<svg width="1000" height="500" viewBox="0 0 1000 500" fill="none" xmlns="http://www.w3.org/2000/svg">
<path d="M683.038 57.42C682.664 57.4311 682.291 57.3654 681.942 57.2271C681.594 57.0888 681.278 56.8808 681.012 56.6157C680.747 56.3507 680.539 56.0343 680.401 55.6859C680.263 55.3376 680.197 54.9646 680.208 54.59V22.59H687.208V51.59H702.668V57.44L683.038 57.42ZM723.648 57.42V22.58H730.648V57.42H723.648ZM777.968 22.59H784.358V55.51C784.356 55.847 784.261 56.1769 784.085 56.4642C783.909 56.7515 783.658 56.9852 783.358 57.14C782.594 57.5713 781.725 57.7824 780.848 57.75C779.973 57.792 779.099 57.6418 778.288 57.31C777.613 56.9521 777.036 56.4335 776.608 55.8L761.208 34V57.42H754.718V25.17C754.688 24.7633 754.765 24.3558 754.94 23.9876C755.116 23.6194 755.384 23.3032 755.718 23.07C756.525 22.5831 757.457 22.3465 758.398 22.39C759.373 22.3346 760.344 22.5455 761.208 23C762.049 23.6469 762.767 24.4395 763.328 25.34L777.918 45.73L777.968 22.59ZM831.558 28.49H815.558V36.73H829.998V42.63H815.498V51.46H831.108V57.46H808.478V25.46C808.472 25.0828 808.547 24.7087 808.699 24.3635C808.851 24.0182 809.076 23.71 809.358 23.46C809.934 22.943 810.685 22.6642 811.458 22.68H831.558V28.49ZM875.778 57.42L872.848 48.79H860.108L857.208 57.42H849.938L861.748 25.18C862.415 23.3267 863.992 22.4 866.478 22.4C868.965 22.4 870.542 23.34 871.208 25.22L883.008 57.42H875.778ZM862.108 42.88H870.838L866.458 30L862.108 42.88ZM917.698 58C912.365 58 908.185 56.4067 905.158 53.22C902.132 50.0333 900.602 45.7233 900.568 40.29C900.568 34.6967 902.195 30.25 905.448 26.95C908.702 23.65 913.012 21.9833 918.378 21.95C921.527 21.8564 924.641 22.6314 927.378 24.19C929.749 25.5577 931.647 27.6159 932.818 30.09L927.208 33.09C925.522 29.6967 922.548 28 918.288 28C916.844 27.9371 915.403 28.1951 914.07 28.7553C912.737 29.3155 911.544 30.1641 910.578 31.24C908.658 33.4 907.698 36.35 907.698 40.09C907.698 43.83 908.592 46.7333 910.378 48.8C911.288 49.8487 912.424 50.6772 913.701 51.2228C914.978 51.7685 916.361 52.0171 917.748 51.95C920.263 52.0473 922.724 51.2021 924.648 49.58C925.522 48.8425 926.225 47.9239 926.708 46.8879C927.192 45.8519 927.444 44.7232 927.448 43.58H918.618V38H934.378V41.9C934.459 44.0526 934.084 46.198 933.278 48.1954C932.471 50.1928 931.251 51.9972 929.698 53.49C928.094 54.996 926.208 56.1698 924.149 56.9439C922.089 57.7179 919.897 58.0768 917.698 58ZM980.208 28.49H964.208V36.73H978.648V42.63H964.208V51.46H979.818V57.46H957.138V25.46C957.132 25.0828 957.207 24.7087 957.359 24.3635C957.511 24.0182 957.736 23.71 958.018 23.46C958.594 22.943 959.345 22.6642 960.118 22.68H980.208V28.49Z" fill="#167C80"/>
<path d="M650.208 40C648.716 40.0003 647.243 40.3346 645.897 40.9783C644.551 41.622 643.366 42.5588 642.428 43.72L642.048 43.57C638.209 42.0509 634.248 40.8567 630.208 40C630.208 40 630.208 40 630.208 40C630.208 34.6957 628.101 29.6086 624.351 25.8579C620.6 22.1071 615.513 20 610.208 20C604.904 20 599.817 22.1071 596.066 25.8579C592.316 29.6086 590.208 34.6957 590.208 40L589.778 40.09C585.885 40.9242 582.065 42.0746 578.358 43.53L577.978 43.68C576.412 41.7268 574.175 40.4252 571.703 40.0278C569.231 39.6304 566.699 40.1655 564.599 41.5293C562.499 42.8931 560.98 44.9884 560.338 47.4085C559.696 49.8287 559.975 52.4012 561.122 54.627C562.269 56.8527 564.203 58.573 566.546 59.454C568.89 60.335 571.478 60.3139 573.807 59.3949C576.136 58.4758 578.041 56.7243 579.152 54.4802C580.263 52.2361 580.5 49.6594 579.818 47.25V47.25C583.324 45.8748 586.936 44.7879 590.618 44C591.546 48.5105 594.002 52.5626 597.571 55.4724C601.14 58.3821 605.604 59.9711 610.208 59.9711C614.813 59.9711 619.277 58.3821 622.846 55.4724C626.415 52.5626 628.871 48.5105 629.798 44C633.474 44.786 637.079 45.8696 640.578 47.24V47.24C640 49.2548 640.069 51.4005 640.776 53.3739C641.484 55.3472 642.793 57.0484 644.52 58.237C646.247 59.4257 648.303 60.0416 650.399 59.9978C652.495 59.954 654.524 59.2527 656.199 57.993C657.875 56.7333 659.112 54.9789 659.736 52.9777C660.361 50.9766 660.34 48.8298 659.678 46.8409C659.016 44.852 657.745 43.1215 656.046 41.8939C654.347 40.6664 652.305 40.0039 650.208 40V40ZM570.208 56C569.022 56 567.862 55.6481 566.875 54.9888C565.888 54.3295 565.119 53.3925 564.665 52.2961C564.211 51.1997 564.092 49.9933 564.324 48.8295C564.555 47.6656 565.127 46.5965 565.966 45.7574C566.805 44.9182 567.874 44.3468 569.038 44.1153C570.202 43.8838 571.408 44.0026 572.505 44.4567C573.601 44.9109 574.538 45.6799 575.197 46.6666C575.857 47.6533 576.208 48.8133 576.208 50C576.208 51.5913 575.576 53.1174 574.451 54.2426C573.326 55.3679 571.8 56 570.208 56V56ZM610.208 56C607.044 56 603.951 55.0616 601.319 53.3035C598.688 51.5454 596.637 49.0466 595.426 46.1229C594.215 43.1993 593.899 39.9823 594.516 36.8786C595.133 33.7749 596.657 30.9239 598.895 28.6863C601.132 26.4487 603.983 24.9248 607.087 24.3074C610.191 23.6901 613.408 24.0069 616.331 25.2179C619.255 26.4289 621.754 28.4797 623.512 31.1109C625.27 33.7421 626.208 36.8355 626.208 40C626.208 44.2435 624.523 48.3131 621.522 51.3137C618.522 54.3143 614.452 56 610.208 56ZM650.208 56C649.022 56 647.862 55.6481 646.875 54.9888C645.888 54.3295 645.119 53.3925 644.665 52.2961C644.211 51.1997 644.092 49.9933 644.324 48.8295C644.555 47.6656 645.127 46.5965 645.966 45.7574C646.805 44.9182 647.874 44.3468 649.038 44.1153C650.202 43.8838 651.408 44.0026 652.505 44.4567C653.601 44.9109 654.538 45.6799 655.197 46.6666C655.857 47.6533 656.208 48.8133 656.208 50C656.208 51.5913 655.576 53.1174 654.451 54.2426C653.326 55.3679 651.8 56 650.208 56ZM618.208 40C618.208 41.5823 617.739 43.129 616.86 44.4446C615.981 45.7602 614.732 46.7855 613.27 47.391C611.808 47.9965 610.2 48.155 608.648 47.8463C607.096 47.5376 605.67 46.7757 604.552 45.6569C603.433 44.538 602.671 43.1126 602.362 41.5607C602.054 40.0089 602.212 38.4003 602.817 36.9385C603.423 35.4767 604.448 34.2273 605.764 33.3482C607.08 32.4692 608.626 32 610.208 32C612.33 32 614.365 32.8429 615.865 34.3431C617.366 35.8434 618.208 37.8783 618.208 40Z" fill="#167C80"/>
<path d="M158.867 211.667C180.067 214.333 196.667 230.933 199.334 252.133C199.734 255.533 202.601 258 205.934 258C206.201 258 206.467 258 206.734 257.933C210.401 257.467 213.001 254.133 212.534 250.467C209.134 223.2 187.734 201.8 160.467 198.4C156.801 198 153.467 200.6 153.067 204.267C152.601 207.933 155.201 211.267 158.867 211.667Z" fill="#6002EE"/>
<path d="M161.401 225.733C157.868 224.8 154.201 226.933 153.268 230.533C152.335 234.133 154.468 237.733 158.068 238.667C165.068 240.467 170.535 245.933 172.401 253C173.201 256 175.868 258 178.868 258C179.401 258 180.001 257.933 180.535 257.8C184.068 256.867 186.201 253.2 185.335 249.667C182.201 237.867 173.068 228.733 161.401 225.733Z" fill="#6002EE"/>
<path d="M201.2 279.733L184.267 277.8C180.2 277.333 176.2 278.733 173.334 281.6L161.067 293.867C142.2 284.267 126.734 268.867 117.134 249.933L129.467 237.6C132.334 234.733 133.734 230.733 133.267 226.667L131.334 209.867C130.534 203.133 124.867 198.067 118.067 198.067H106.534C99.0003 198.067 92.7336 204.333 93.2003 211.867C96.7336 268.8 142.267 314.267 199.134 317.8C206.667 318.267 212.934 312 212.934 304.467V292.933C213 286.2 207.934 280.533 201.2 279.733Z" fill="#6002EE"/>
<path d="M507.801 190.533C467.201 187.667 433.667 221.2 436.534 261.8C438.934 297.067 469.734 323.667 505.067 323.667H529.667C533.334 323.667 536.334 320.667 536.334 317C536.334 313.333 533.334 310.333 529.667 310.333H505.201C480.334 310.333 457.534 294.2 451.334 270.133C441.401 231.467 477.401 195.4 516.067 205.4C540.201 211.533 556.334 234.333 556.334 259.2V266.533C556.334 271.8 551.601 277 546.334 277C541.067 277 536.334 271.8 536.334 266.533V258.2C536.334 241.467 524.467 226.4 507.934 224.067C485.267 220.8 466.134 240.4 470.201 263.2C472.467 275.933 482.401 286.467 495.001 289.467C507.267 292.333 518.934 288.4 526.601 280.6C532.534 288.733 544.401 293 555.267 288.667C564.201 285.133 569.667 276 569.667 266.4C569.667 264.2 569.667 261.733 569.667 259.133C569.667 223.733 543.067 192.933 507.801 190.533ZM503.001 277C491.934 277 483.001 268.067 483.001 257C483.001 245.933 491.934 237 503.001 237C514.067 237 523.001 245.933 523.001 257C523.001 268.067 514.067 277 503.001 277Z" fill="#EE6002" fill-opacity="0.9"/>
<path d="M846.933 183.333C810.133 183.333 780.333 213.2 780.333 250C780.333 286.8 810.133 316.667 846.933 316.667C883.8 316.667 913.667 286.8 913.667 250C913.667 213.2 883.8 183.333 846.933 183.333ZM847 303.333C817.533 303.333 793.667 279.467 793.667 250C793.667 220.533 817.533 196.667 847 196.667C876.467 196.667 900.333 220.533 900.333 250C900.333 279.467 876.467 303.333 847 303.333Z" fill="#00BCD4"/>
<path d="M845.533 216.667H845.133C842.467 216.667 840.333 218.8 840.333 221.467V252.933C840.333 255.267 841.533 257.467 843.6 258.667L871.267 275.267C873.533 276.6 876.467 275.933 877.8 273.667C879.2 271.4 878.467 268.4 876.134 267.067L850.333 251.733V221.467C850.333 218.8 848.2 216.667 845.533 216.667Z" fill="#00BCD4"/>
</svg>
