<svg width="1000" height="500" viewBox="0 0 1000 500" fill="none" xmlns="http://www.w3.org/2000/svg">
<path d="M683.038 57.42C682.664 57.4311 682.291 57.3654 681.943 57.2271C681.594 57.0888 681.278 56.8808 681.013 56.6157C680.748 56.3507 680.54 56.0343 680.401 55.6859C680.263 55.3376 680.197 54.9646 680.208 54.59V22.59H687.208V51.59H702.668V57.44L683.038 57.42ZM723.648 57.42V22.58H730.648V57.42H723.648ZM777.968 22.59H784.358V55.51C784.356 55.847 784.262 56.1769 784.085 56.4642C783.909 56.7515 783.658 56.9851 783.358 57.14C782.594 57.5713 781.725 57.7824 780.848 57.75C779.973 57.792 779.099 57.6418 778.288 57.31C777.613 56.952 777.036 56.4335 776.608 55.8L761.208 34V57.42H754.718V25.17C754.689 24.7633 754.765 24.3558 754.94 23.9876C755.116 23.6194 755.384 23.3032 755.718 23.07C756.525 22.5831 757.458 22.3465 758.398 22.39C759.373 22.3346 760.344 22.5455 761.208 23C762.049 23.6469 762.767 24.4395 763.328 25.34L777.918 45.73L777.968 22.59ZM831.558 28.49H815.558V36.73H829.998V42.63H815.498V51.46H831.108V57.46H808.478V25.46C808.472 25.0828 808.547 24.7087 808.699 24.3635C808.851 24.0182 809.076 23.71 809.358 23.46C809.934 22.943 810.685 22.6642 811.458 22.68H831.558V28.49ZM875.778 57.42L872.848 48.79H860.108L857.208 57.42H849.938L861.748 25.18C862.415 23.3267 863.992 22.4 866.478 22.4C868.965 22.4 870.542 23.34 871.208 25.22L883.008 57.42H875.778ZM862.108 42.88H870.838L866.458 30L862.108 42.88ZM917.698 58C912.365 58 908.185 56.4067 905.158 53.22C902.132 50.0333 900.602 45.7233 900.568 40.29C900.568 34.6967 902.195 30.25 905.448 26.95C908.702 23.65 913.012 21.9833 918.378 21.95C921.527 21.8564 924.641 22.6314 927.378 24.19C929.75 25.5577 931.647 27.6159 932.818 30.09L927.208 33.09C925.522 29.6967 922.548 28 918.288 28C916.844 27.9371 915.403 28.1951 914.07 28.7553C912.737 29.3155 911.545 30.1641 910.578 31.24C908.658 33.4 907.698 36.35 907.698 40.09C907.698 43.83 908.592 46.7333 910.378 48.8C911.288 49.8487 912.424 50.6772 913.701 51.2228C914.978 51.7685 916.362 52.0171 917.748 51.95C920.263 52.0473 922.724 51.2021 924.648 49.58C925.522 48.8425 926.225 47.9239 926.708 46.8879C927.192 45.8519 927.444 44.7232 927.448 43.58H918.618V38H934.378V41.9C934.459 44.0526 934.084 46.198 933.278 48.1954C932.471 50.1928 931.251 51.9972 929.698 53.49C928.095 54.996 926.209 56.1698 924.149 56.9439C922.09 57.7179 919.897 58.0768 917.698 58ZM980.208 28.49H964.208V36.73H978.648V42.63H964.208V51.46H979.818V57.46H957.138V25.46C957.132 25.0828 957.207 24.7087 957.359 24.3635C957.511 24.0182 957.736 23.71 958.018 23.46C958.594 22.943 959.345 22.6642 960.118 22.68H980.208V28.49Z" fill="#167C80"/>
<path d="M650.208 40C648.716 40.0003 647.243 40.3346 645.897 40.9783C644.551 41.622 643.366 42.5588 642.428 43.72L642.048 43.57C638.209 42.0509 634.248 40.8567 630.208 40C630.208 34.6957 628.101 29.6086 624.351 25.8579C620.6 22.1071 615.513 20 610.208 20C604.904 20 599.817 22.1071 596.066 25.8579C592.316 29.6086 590.208 34.6957 590.208 40L589.778 40.09C585.885 40.9242 582.065 42.0746 578.358 43.53L577.978 43.68C576.412 41.7268 574.175 40.4252 571.703 40.0278C569.231 39.6304 566.699 40.1655 564.599 41.5293C562.499 42.8931 560.98 44.9884 560.338 47.4085C559.696 49.8287 559.975 52.4012 561.122 54.627C562.269 56.8527 564.203 58.573 566.546 59.454C568.89 60.335 571.478 60.3139 573.807 59.3949C576.136 58.4758 578.041 56.7243 579.152 54.4802C580.263 52.2361 580.5 49.6594 579.818 47.25C583.324 45.8748 586.936 44.7879 590.618 44C591.546 48.5105 594.002 52.5626 597.571 55.4724C601.14 58.3821 605.604 59.9711 610.208 59.9711C614.813 59.9711 619.277 58.3821 622.846 55.4724C626.415 52.5626 628.871 48.5105 629.798 44C633.474 44.786 637.079 45.8696 640.578 47.24C640 49.2548 640.069 51.4005 640.776 53.3739C641.484 55.3472 642.793 57.0484 644.52 58.237C646.247 59.4257 648.303 60.0416 650.399 59.9978C652.495 59.954 654.524 59.2527 656.199 57.993C657.875 56.7333 659.112 54.9789 659.736 52.9777C660.361 50.9766 660.34 48.8298 659.678 46.8409C659.016 44.852 657.745 43.1215 656.046 41.8939C654.347 40.6664 652.305 40.0039 650.208 40ZM570.208 56C569.022 56 567.862 55.6481 566.875 54.9888C565.888 54.3295 565.119 53.3925 564.665 52.2961C564.211 51.1997 564.092 49.9933 564.324 48.8295C564.555 47.6656 565.127 46.5965 565.966 45.7574C566.805 44.9182 567.874 44.3468 569.038 44.1153C570.202 43.8838 571.408 44.0026 572.505 44.4567C573.601 44.9109 574.538 45.6799 575.197 46.6666C575.857 47.6533 576.208 48.8133 576.208 50C576.208 51.5913 575.576 53.1174 574.451 54.2426C573.326 55.3679 571.8 56 570.208 56ZM610.208 56C607.044 56 603.951 55.0616 601.319 53.3035C598.688 51.5454 596.637 49.0466 595.426 46.1229C594.215 43.1993 593.899 39.9823 594.516 36.8786C595.133 33.7749 596.657 30.9239 598.895 28.6863C601.132 26.4487 603.983 24.9248 607.087 24.3074C610.191 23.6901 613.408 24.0069 616.331 25.2179C619.255 26.4289 621.754 28.4797 623.512 31.1109C625.27 33.7421 626.208 36.8355 626.208 40C626.208 44.2435 624.523 48.3131 621.522 51.3137C618.522 54.3143 614.452 56 610.208 56ZM650.208 56C649.022 56 647.862 55.6481 646.875 54.9888C645.888 54.3295 645.119 53.3925 644.665 52.2961C644.211 51.1997 644.092 49.9933 644.324 48.8295C644.555 47.6656 645.127 46.5965 645.966 45.7574C646.805 44.9182 647.874 44.3468 649.038 44.1153C650.202 43.8838 651.408 44.0026 652.505 44.4567C653.601 44.9109 654.538 45.6799 655.197 46.6666C655.857 47.6533 656.208 48.8133 656.208 50C656.208 51.5913 655.576 53.1174 654.451 54.2426C653.326 55.3679 651.8 56 650.208 56ZM618.208 40C618.208 41.5823 617.739 43.129 616.86 44.4446C615.981 45.7602 614.732 46.7855 613.27 47.391C611.808 47.9965 610.2 48.155 608.648 47.8463C607.096 47.5376 605.67 46.7757 604.552 45.6569C603.433 44.538 602.671 43.1126 602.362 41.5607C602.054 40.0089 602.212 38.4003 602.817 36.9385C603.423 35.4767 604.448 34.2273 605.764 33.3482C607.08 32.4692 608.626 32 610.208 32C612.33 32 614.365 32.8429 615.865 34.3431C617.366 35.8434 618.208 37.8783 618.208 40Z" fill="#167C80"/>
<path d="M581.568 244.829L567.052 228.221L569.081 206.206C569.471 202.289 566.818 198.685 563.072 197.823L541.533 192.888L530.295 173.851C528.266 170.482 524.13 169.072 520.54 170.638L500.25 179.491L480.037 170.795C476.447 169.228 472.233 170.638 470.282 174.007L458.966 192.966L437.505 197.823C433.681 198.685 431.028 202.211 431.418 206.206L433.447 228.142L418.931 244.829C416.356 247.806 416.356 252.194 418.931 255.171L433.447 271.779L431.418 293.872C431.028 297.789 433.681 301.393 437.427 302.255L458.966 307.19L470.204 326.149C472.233 329.518 476.369 330.928 480.037 329.362L500.25 320.509L520.462 329.205C524.052 330.772 528.266 329.362 530.217 325.993L541.455 306.955L562.994 302.02C566.818 301.158 569.393 297.554 569.003 293.637L566.974 271.623L581.489 255.014C584.143 252.194 584.143 247.806 581.568 244.829ZM508.054 289.172H492.445V273.503H508.054V289.172ZM500.25 257.834C495.957 257.834 492.445 254.309 492.445 250V218.663C492.445 214.354 495.957 210.828 500.25 210.828C504.542 210.828 508.054 214.354 508.054 218.663V250C508.054 254.309 504.542 257.834 500.25 257.834Z" fill="#EE6002"/>
<path d="M913.364 180H763.636C754.486 180 747 187.412 747 196.471V303.529C747 312.588 754.486 320 763.636 320H913.364C922.514 320 930 312.588 930 303.529V196.471C930 187.412 922.514 180 913.364 180ZM913.364 295.294C913.364 299.824 909.62 303.529 905.045 303.529H838.5V196.471H905.045C909.62 196.471 913.364 200.176 913.364 204.706V295.294Z" fill="#008B00"/>
<path d="M898.807 225.294H853.057C849.646 225.294 846.818 228.094 846.818 231.471C846.818 234.847 849.646 237.647 853.057 237.647H898.807C902.217 237.647 905.045 234.847 905.045 231.471C905.045 228.094 902.217 225.294 898.807 225.294Z" fill="#008B00"/>
<path d="M898.807 245.882H853.057C849.646 245.882 846.818 248.682 846.818 252.059C846.818 255.435 849.646 258.235 853.057 258.235H898.807C902.217 258.235 905.045 255.435 905.045 252.059C905.045 248.682 902.217 245.882 898.807 245.882Z" fill="#008B00"/>
<path d="M898.807 266.471H853.057C849.646 266.471 846.818 269.271 846.818 272.647C846.818 276.024 849.646 278.824 853.057 278.824H898.807C902.217 278.824 905.045 276.024 905.045 272.647C905.045 269.271 902.217 266.471 898.807 266.471Z" fill="#008B00"/>
<path d="M205.842 250.5C206.15 253.044 206.458 255.588 206.458 258.208C206.458 274.242 200.292 288.81 190.271 299.756C188.267 293.512 182.563 289.042 175.625 289.042H167.917V265.917C167.917 261.677 164.448 258.208 160.208 258.208H113.958V242.792H129.375C133.615 242.792 137.083 239.323 137.083 235.083V219.667H152.5C160.979 219.667 167.917 212.729 167.917 204.25V184.671C160.594 182.358 152.885 181.125 144.792 181.125C102.242 181.125 67.7083 215.658 67.7083 258.208C67.7083 300.758 102.242 335.292 144.792 335.292C187.342 335.292 221.875 300.758 221.875 258.208C221.875 255.588 221.721 253.044 221.49 250.5H205.842ZM137.083 319.335C106.635 315.558 83.125 289.658 83.125 258.208C83.125 253.429 83.7417 248.881 84.7438 244.41L121.667 281.333V289.042C121.667 297.521 128.604 304.458 137.083 304.458V319.335Z" fill="#6002EE"/>
<path d="M229.583 188.833V184.979C229.583 174.342 220.95 165.708 210.313 165.708C199.675 165.708 191.042 174.342 191.042 184.979V188.833C186.802 188.833 183.333 192.302 183.333 196.542V227.375C183.333 231.615 186.802 235.083 191.042 235.083H229.583C233.823 235.083 237.292 231.615 237.292 227.375V196.542C237.292 192.302 233.823 188.833 229.583 188.833ZM221.875 188.833H198.75V184.979C198.75 178.581 203.915 173.417 210.313 173.417C216.71 173.417 221.875 178.581 221.875 184.979V188.833Z" fill="#6002EE"/>
</svg>
