<svg width="668" height="656" viewBox="0 0 668 656" fill="none" xmlns="http://www.w3.org/2000/svg">
<rect x="35" y="539" width="6" height="42" fill="#C4C4C4"/>
<rect x="35" y="307" width="6" height="42" fill="#C4C4C4"/>
<rect x="35" y="191" width="6" height="42" fill="#C4C4C4"/>
<rect x="35" y="75" width="6" height="42" fill="#C4C4C4"/>
<rect x="35" y="423" width="6" height="42" fill="#C4C4C4"/>
<path d="M127.973 50.6367H118.48L116.195 58H112.582L121.762 29.5625H124.789L133.812 58H130.219L127.973 50.6367ZM119.457 47.4922H127.016L123.266 35.1484L119.457 47.4922ZM156.254 47.668C156.254 49.1784 156.072 50.5911 155.707 51.9062C155.342 53.2083 154.809 54.3411 154.105 55.3047C153.402 56.2682 152.53 57.0234 151.488 57.5703C150.46 58.1172 149.281 58.3906 147.953 58.3906C146.664 58.3906 145.525 58.1823 144.535 57.7656C143.559 57.349 142.719 56.75 142.016 55.9688V66.125H138.402V36.8672H141.703L141.879 39.1719C142.582 38.2995 143.428 37.6354 144.418 37.1797C145.421 36.7109 146.579 36.4766 147.895 36.4766C149.249 36.4766 150.447 36.7435 151.488 37.2773C152.53 37.8112 153.402 38.5534 154.105 39.5039C154.809 40.4544 155.342 41.5938 155.707 42.9219C156.072 44.237 156.254 45.6823 156.254 47.2578V47.668ZM152.641 47.2578C152.641 46.2292 152.523 45.2526 152.289 44.3281C152.068 43.3906 151.716 42.5703 151.234 41.8672C150.766 41.151 150.167 40.5846 149.438 40.168C148.708 39.7513 147.836 39.543 146.82 39.543C145.661 39.543 144.685 39.8164 143.891 40.3633C143.109 40.8971 142.484 41.5872 142.016 42.4336V52.6094C142.484 53.4427 143.109 54.1263 143.891 54.6602C144.672 55.181 145.661 55.4414 146.859 55.4414C147.862 55.4414 148.728 55.2331 149.457 54.8164C150.186 54.3867 150.785 53.8138 151.254 53.0977C151.723 52.3815 152.068 51.5547 152.289 50.6172C152.523 49.6797 152.641 48.6966 152.641 47.668V47.2578ZM180.277 47.668C180.277 49.1784 180.095 50.5911 179.73 51.9062C179.366 53.2083 178.832 54.3411 178.129 55.3047C177.426 56.2682 176.553 57.0234 175.512 57.5703C174.483 58.1172 173.305 58.3906 171.977 58.3906C170.688 58.3906 169.548 58.1823 168.559 57.7656C167.582 57.349 166.742 56.75 166.039 55.9688V66.125H162.426V36.8672H165.727L165.902 39.1719C166.605 38.2995 167.452 37.6354 168.441 37.1797C169.444 36.7109 170.603 36.4766 171.918 36.4766C173.272 36.4766 174.47 36.7435 175.512 37.2773C176.553 37.8112 177.426 38.5534 178.129 39.5039C178.832 40.4544 179.366 41.5938 179.73 42.9219C180.095 44.237 180.277 45.6823 180.277 47.2578V47.668ZM176.664 47.2578C176.664 46.2292 176.547 45.2526 176.312 44.3281C176.091 43.3906 175.74 42.5703 175.258 41.8672C174.789 41.151 174.19 40.5846 173.461 40.168C172.732 39.7513 171.859 39.543 170.844 39.543C169.685 39.543 168.708 39.8164 167.914 40.3633C167.133 40.8971 166.508 41.5872 166.039 42.4336V52.6094C166.508 53.4427 167.133 54.1263 167.914 54.6602C168.695 55.181 169.685 55.4414 170.883 55.4414C171.885 55.4414 172.751 55.2331 173.48 54.8164C174.21 54.3867 174.809 53.8138 175.277 53.0977C175.746 52.3815 176.091 51.5547 176.312 50.6172C176.547 49.6797 176.664 48.6966 176.664 47.668V47.2578ZM200.512 52.3945C200.512 51.9648 200.427 51.5807 200.258 51.2422C200.089 50.8906 199.802 50.5716 199.398 50.2852C198.995 49.9987 198.461 49.7383 197.797 49.5039C197.133 49.2565 196.306 49.0352 195.316 48.8398C194.105 48.5924 192.999 48.293 191.996 47.9414C191.007 47.5898 190.154 47.1732 189.438 46.6914C188.734 46.1966 188.188 45.6237 187.797 44.9727C187.406 44.3086 187.211 43.5404 187.211 42.668C187.211 41.8086 187.413 41.0078 187.816 40.2656C188.22 39.5104 188.786 38.8529 189.516 38.293C190.245 37.7331 191.111 37.2904 192.113 36.9648C193.129 36.6393 194.242 36.4766 195.453 36.4766C196.755 36.4766 197.927 36.6458 198.969 36.9844C200.01 37.3229 200.896 37.7917 201.625 38.3906C202.354 38.9896 202.914 39.6927 203.305 40.5C203.708 41.2943 203.91 42.1536 203.91 43.0781H200.297C200.297 42.6224 200.18 42.1797 199.945 41.75C199.711 41.3073 199.385 40.9167 198.969 40.5781C198.552 40.2396 198.044 39.9661 197.445 39.7578C196.859 39.5495 196.195 39.4453 195.453 39.4453C194.685 39.4453 194.008 39.5299 193.422 39.6992C192.849 39.8685 192.367 40.0964 191.977 40.3828C191.599 40.6693 191.312 41.0013 191.117 41.3789C190.922 41.7565 190.824 42.1471 190.824 42.5508C190.824 42.9674 190.902 43.3385 191.059 43.6641C191.215 43.9896 191.482 44.2826 191.859 44.543C192.25 44.8034 192.764 45.0378 193.402 45.2461C194.053 45.4544 194.874 45.6562 195.863 45.8516C197.165 46.125 198.331 46.444 199.359 46.8086C200.388 47.1602 201.254 47.5898 201.957 48.0977C202.66 48.5924 203.194 49.1719 203.559 49.8359C203.936 50.5 204.125 51.2682 204.125 52.1406C204.125 53.0781 203.91 53.931 203.48 54.6992C203.064 55.4674 202.478 56.125 201.723 56.6719C200.967 57.2188 200.062 57.6419 199.008 57.9414C197.953 58.2409 196.801 58.3906 195.551 58.3906C194.118 58.3906 192.842 58.2018 191.723 57.8242C190.603 57.4336 189.652 56.9258 188.871 56.3008C188.103 55.6628 187.51 54.9271 187.094 54.0938C186.69 53.2604 186.488 52.3945 186.488 51.4961H190.102C190.154 52.2383 190.349 52.8633 190.688 53.3711C191.039 53.8789 191.469 54.2891 191.977 54.6016C192.497 54.9141 193.07 55.1354 193.695 55.2656C194.32 55.3958 194.939 55.4609 195.551 55.4609C197.074 55.4609 198.279 55.181 199.164 54.6211C200.049 54.0612 200.499 53.319 200.512 52.3945Z" fill="#333333"/>
<path d="M130.219 160.441H118.383V173H114.73V144.562H132.191V147.648H118.383V157.375H130.219V160.441ZM152.27 151.477C152.608 151.477 152.96 151.49 153.324 151.516C153.689 151.529 154.034 151.561 154.359 151.613C154.698 151.652 155.004 151.704 155.277 151.77C155.564 151.835 155.798 151.906 155.98 151.984L155.492 155.52C154.789 155.363 154.118 155.253 153.48 155.188C152.855 155.109 152.198 155.07 151.508 155.07C149.815 155.07 148.441 155.454 147.387 156.223C146.345 156.991 145.577 158.065 145.082 159.445V173H141.449V151.867H144.887L145.062 155.227C145.922 154.068 146.951 153.156 148.148 152.492C149.359 151.815 150.733 151.477 152.27 151.477ZM176.332 173C176.189 172.727 176.072 172.388 175.98 171.984C175.902 171.568 175.844 171.138 175.805 170.695C175.44 171.06 175.03 171.405 174.574 171.73C174.132 172.056 173.637 172.342 173.09 172.59C172.556 172.837 171.983 173.033 171.371 173.176C170.759 173.319 170.108 173.391 169.418 173.391C168.298 173.391 167.283 173.228 166.371 172.902C165.473 172.577 164.704 172.141 164.066 171.594C163.441 171.034 162.953 170.376 162.602 169.621C162.263 168.853 162.094 168.026 162.094 167.141C162.094 165.982 162.322 164.966 162.777 164.094C163.246 163.221 163.904 162.499 164.75 161.926C165.596 161.34 166.612 160.904 167.797 160.617C168.995 160.331 170.329 160.188 171.801 160.188H175.746V158.527C175.746 157.889 175.629 157.316 175.395 156.809C175.16 156.301 174.828 155.871 174.398 155.52C173.969 155.155 173.441 154.875 172.816 154.68C172.204 154.484 171.514 154.387 170.746 154.387C170.03 154.387 169.385 154.478 168.812 154.66C168.253 154.842 167.777 155.083 167.387 155.383C166.996 155.682 166.69 156.04 166.469 156.457C166.26 156.861 166.156 157.284 166.156 157.727H162.523C162.536 156.958 162.732 156.203 163.109 155.461C163.5 154.719 164.053 154.055 164.77 153.469C165.499 152.87 166.378 152.388 167.406 152.023C168.448 151.659 169.626 151.477 170.941 151.477C172.139 151.477 173.253 151.626 174.281 151.926C175.31 152.212 176.195 152.655 176.938 153.254C177.693 153.84 178.285 154.576 178.715 155.461C179.145 156.346 179.359 157.382 179.359 158.566V168.391C179.359 169.094 179.424 169.842 179.555 170.637C179.685 171.418 179.867 172.102 180.102 172.688V173H176.332ZM169.945 170.246C170.648 170.246 171.306 170.155 171.918 169.973C172.53 169.79 173.083 169.549 173.578 169.25C174.086 168.951 174.522 168.612 174.887 168.234C175.251 167.844 175.538 167.44 175.746 167.023V162.746H172.387C170.277 162.746 168.637 163.059 167.465 163.684C166.293 164.309 165.707 165.292 165.707 166.633C165.707 167.154 165.792 167.635 165.961 168.078C166.143 168.521 166.41 168.905 166.762 169.23C167.113 169.543 167.556 169.79 168.09 169.973C168.624 170.155 169.242 170.246 169.945 170.246ZM188.129 151.867L188.227 153.859C188.656 153.117 189.216 152.538 189.906 152.121C190.609 151.704 191.456 151.49 192.445 151.477C194.385 151.477 195.681 152.232 196.332 153.742C196.749 153.065 197.296 152.525 197.973 152.121C198.663 151.704 199.496 151.49 200.473 151.477C202.022 151.477 203.214 151.952 204.047 152.902C204.88 153.853 205.297 155.292 205.297 157.219V173H201.859V157.18C201.859 155.409 201.046 154.53 199.418 154.543C198.988 154.543 198.617 154.602 198.305 154.719C197.992 154.836 197.732 154.999 197.523 155.207C197.315 155.402 197.152 155.637 197.035 155.91C196.918 156.171 196.84 156.444 196.801 156.73V173H193.363V157.16C193.363 156.314 193.174 155.663 192.797 155.207C192.419 154.751 191.82 154.53 191 154.543C190.245 154.543 189.659 154.693 189.242 154.992C188.826 155.292 188.52 155.689 188.324 156.184V173H184.887V151.867H188.129ZM219.828 173.391C218.344 173.391 216.977 173.137 215.727 172.629C214.49 172.121 213.428 171.411 212.543 170.5C211.658 169.589 210.967 168.508 210.473 167.258C209.978 166.008 209.73 164.647 209.73 163.176V162.355C209.73 160.65 210.004 159.126 210.551 157.785C211.098 156.431 211.82 155.292 212.719 154.367C213.63 153.43 214.659 152.714 215.805 152.219C216.964 151.724 218.148 151.477 219.359 151.477C220.883 151.477 222.211 151.743 223.344 152.277C224.49 152.798 225.44 153.527 226.195 154.465C226.951 155.389 227.51 156.483 227.875 157.746C228.253 159.009 228.441 160.376 228.441 161.848V163.469H213.344C213.383 164.432 213.565 165.337 213.891 166.184C214.229 167.03 214.685 167.772 215.258 168.41C215.844 169.035 216.54 169.53 217.348 169.895C218.155 170.259 219.047 170.441 220.023 170.441C221.312 170.441 222.458 170.181 223.461 169.66C224.464 169.139 225.297 168.449 225.961 167.59L228.168 169.309C227.816 169.842 227.374 170.357 226.84 170.852C226.319 171.333 225.714 171.763 225.023 172.141C224.333 172.518 223.552 172.818 222.68 173.039C221.807 173.273 220.857 173.391 219.828 173.391ZM219.359 154.445C218.63 154.445 217.94 154.582 217.289 154.855C216.638 155.116 216.052 155.507 215.531 156.027C215.01 156.535 214.568 157.167 214.203 157.922C213.852 158.664 213.604 159.523 213.461 160.5H224.828V160.227C224.789 159.523 224.652 158.827 224.418 158.137C224.197 157.447 223.865 156.828 223.422 156.281C222.979 155.734 222.419 155.292 221.742 154.953C221.078 154.615 220.284 154.445 219.359 154.445ZM237.719 165.344L238.148 168.371L238.676 165.344L242.055 151.867H244.379L247.738 165.344L248.305 168.664L248.832 165.344L251.176 151.867H254.379L249.887 173H247.035L243.734 160.051L243.188 156.77L242.66 160.051L239.398 173H236.547L232.055 151.867H235.258L237.719 165.344ZM257.523 162.238C257.523 160.715 257.745 159.302 258.188 158C258.63 156.685 259.262 155.546 260.082 154.582C260.915 153.618 261.924 152.863 263.109 152.316C264.294 151.757 265.629 151.477 267.113 151.477C268.611 151.477 269.952 151.757 271.137 152.316C272.335 152.863 273.344 153.618 274.164 154.582C274.997 155.546 275.635 156.685 276.078 158C276.521 159.302 276.742 160.715 276.742 162.238V162.668C276.742 164.191 276.521 165.604 276.078 166.906C275.635 168.208 274.997 169.341 274.164 170.305C273.344 171.268 272.341 172.023 271.156 172.57C269.971 173.117 268.637 173.391 267.152 173.391C265.655 173.391 264.307 173.117 263.109 172.57C261.924 172.023 260.915 171.268 260.082 170.305C259.262 169.341 258.63 168.208 258.188 166.906C257.745 165.604 257.523 164.191 257.523 162.668V162.238ZM261.137 162.668C261.137 163.71 261.26 164.706 261.508 165.656C261.755 166.594 262.126 167.421 262.621 168.137C263.129 168.853 263.76 169.419 264.516 169.836C265.271 170.253 266.15 170.461 267.152 170.461C268.142 170.461 269.008 170.253 269.75 169.836C270.505 169.419 271.13 168.853 271.625 168.137C272.133 167.421 272.51 166.594 272.758 165.656C273.005 164.706 273.129 163.71 273.129 162.668V162.238C273.129 161.21 272.999 160.227 272.738 159.289C272.491 158.339 272.113 157.505 271.605 156.789C271.111 156.073 270.486 155.507 269.73 155.09C268.988 154.66 268.116 154.445 267.113 154.445C266.111 154.445 265.238 154.66 264.496 155.09C263.754 155.507 263.129 156.073 262.621 156.789C262.126 157.505 261.755 158.339 261.508 159.289C261.26 160.227 261.137 161.21 261.137 162.238V162.668ZM296.41 151.477C296.749 151.477 297.1 151.49 297.465 151.516C297.829 151.529 298.174 151.561 298.5 151.613C298.839 151.652 299.145 151.704 299.418 151.77C299.704 151.835 299.939 151.906 300.121 151.984L299.633 155.52C298.93 155.363 298.259 155.253 297.621 155.188C296.996 155.109 296.339 155.07 295.648 155.07C293.956 155.07 292.582 155.454 291.527 156.223C290.486 156.991 289.717 158.065 289.223 159.445V173H285.59V151.867H289.027L289.203 155.227C290.062 154.068 291.091 153.156 292.289 152.492C293.5 151.815 294.874 151.477 296.41 151.477ZM312.914 163.137L310.258 165.695V173H306.625V143H310.258V161.359L312.621 158.82L319.555 151.867H323.949L315.395 160.676L325.258 173H320.668L312.914 163.137ZM344.652 167.395C344.652 166.965 344.568 166.581 344.398 166.242C344.229 165.891 343.943 165.572 343.539 165.285C343.135 164.999 342.602 164.738 341.938 164.504C341.273 164.257 340.447 164.035 339.457 163.84C338.246 163.592 337.139 163.293 336.137 162.941C335.147 162.59 334.294 162.173 333.578 161.691C332.875 161.197 332.328 160.624 331.938 159.973C331.547 159.309 331.352 158.54 331.352 157.668C331.352 156.809 331.553 156.008 331.957 155.266C332.361 154.51 332.927 153.853 333.656 153.293C334.385 152.733 335.251 152.29 336.254 151.965C337.27 151.639 338.383 151.477 339.594 151.477C340.896 151.477 342.068 151.646 343.109 151.984C344.151 152.323 345.036 152.792 345.766 153.391C346.495 153.99 347.055 154.693 347.445 155.5C347.849 156.294 348.051 157.154 348.051 158.078H344.438C344.438 157.622 344.32 157.18 344.086 156.75C343.852 156.307 343.526 155.917 343.109 155.578C342.693 155.24 342.185 154.966 341.586 154.758C341 154.549 340.336 154.445 339.594 154.445C338.826 154.445 338.148 154.53 337.562 154.699C336.99 154.868 336.508 155.096 336.117 155.383C335.74 155.669 335.453 156.001 335.258 156.379C335.062 156.757 334.965 157.147 334.965 157.551C334.965 157.967 335.043 158.339 335.199 158.664C335.355 158.99 335.622 159.283 336 159.543C336.391 159.803 336.905 160.038 337.543 160.246C338.194 160.454 339.014 160.656 340.004 160.852C341.306 161.125 342.471 161.444 343.5 161.809C344.529 162.16 345.395 162.59 346.098 163.098C346.801 163.592 347.335 164.172 347.699 164.836C348.077 165.5 348.266 166.268 348.266 167.141C348.266 168.078 348.051 168.931 347.621 169.699C347.204 170.467 346.618 171.125 345.863 171.672C345.108 172.219 344.203 172.642 343.148 172.941C342.094 173.241 340.941 173.391 339.691 173.391C338.259 173.391 336.983 173.202 335.863 172.824C334.743 172.434 333.793 171.926 333.012 171.301C332.243 170.663 331.651 169.927 331.234 169.094C330.831 168.26 330.629 167.395 330.629 166.496H334.242C334.294 167.238 334.49 167.863 334.828 168.371C335.18 168.879 335.609 169.289 336.117 169.602C336.638 169.914 337.211 170.135 337.836 170.266C338.461 170.396 339.079 170.461 339.691 170.461C341.215 170.461 342.419 170.181 343.305 169.621C344.19 169.061 344.639 168.319 344.652 167.395Z" fill="#333333"/>
<circle cx="38" cy="154" r="38" fill="#FFB300"/>
<circle cx="38" cy="38" r="38" fill="#008B00"/>
<path d="M132.23 290H128.812V276.855H117.152V290H113.754V261.562H117.152V273.789H128.812V261.562H132.23V290ZM138.422 261.562H155.609V264.707H148.793V286.875H155.609V290H138.422V286.875H145.082V264.707H138.422V261.562ZM162.074 290V261.562H168.656C170.635 261.589 172.4 261.927 173.949 262.578C175.512 263.216 176.827 264.115 177.895 265.273C178.975 266.419 179.796 267.799 180.355 269.414C180.928 271.016 181.221 272.793 181.234 274.746V276.836C181.221 278.789 180.928 280.573 180.355 282.188C179.796 283.789 178.975 285.169 177.895 286.328C176.827 287.474 175.512 288.372 173.949 289.023C172.4 289.661 170.635 289.987 168.656 290H162.074ZM165.746 264.531V287.051H168.656C170.193 287.038 171.521 286.771 172.641 286.25C173.76 285.716 174.685 284.993 175.414 284.082C176.156 283.171 176.703 282.096 177.055 280.859C177.419 279.622 177.608 278.281 177.621 276.836V274.707C177.608 273.262 177.419 271.927 177.055 270.703C176.69 269.466 176.143 268.398 175.414 267.5C174.685 266.589 173.76 265.872 172.641 265.352C171.521 264.831 170.193 264.557 168.656 264.531H165.746ZM190.551 286.934H204.457V290H186.938V261.562H190.551V286.934ZM248.363 268.477C248.702 268.477 249.053 268.49 249.418 268.516C249.783 268.529 250.128 268.561 250.453 268.613C250.792 268.652 251.098 268.704 251.371 268.77C251.658 268.835 251.892 268.906 252.074 268.984L251.586 272.52C250.883 272.363 250.212 272.253 249.574 272.188C248.949 272.109 248.292 272.07 247.602 272.07C245.909 272.07 244.535 272.454 243.48 273.223C242.439 273.991 241.671 275.065 241.176 276.445V290H237.543V268.867H240.98L241.156 272.227C242.016 271.068 243.044 270.156 244.242 269.492C245.453 268.815 246.827 268.477 248.363 268.477ZM272.426 290C272.283 289.727 272.165 289.388 272.074 288.984C271.996 288.568 271.938 288.138 271.898 287.695C271.534 288.06 271.124 288.405 270.668 288.73C270.225 289.056 269.73 289.342 269.184 289.59C268.65 289.837 268.077 290.033 267.465 290.176C266.853 290.319 266.202 290.391 265.512 290.391C264.392 290.391 263.376 290.228 262.465 289.902C261.566 289.577 260.798 289.141 260.16 288.594C259.535 288.034 259.047 287.376 258.695 286.621C258.357 285.853 258.188 285.026 258.188 284.141C258.188 282.982 258.415 281.966 258.871 281.094C259.34 280.221 259.997 279.499 260.844 278.926C261.69 278.34 262.706 277.904 263.891 277.617C265.089 277.331 266.423 277.188 267.895 277.188H271.84V275.527C271.84 274.889 271.723 274.316 271.488 273.809C271.254 273.301 270.922 272.871 270.492 272.52C270.062 272.155 269.535 271.875 268.91 271.68C268.298 271.484 267.608 271.387 266.84 271.387C266.124 271.387 265.479 271.478 264.906 271.66C264.346 271.842 263.871 272.083 263.48 272.383C263.09 272.682 262.784 273.04 262.562 273.457C262.354 273.861 262.25 274.284 262.25 274.727H258.617C258.63 273.958 258.826 273.203 259.203 272.461C259.594 271.719 260.147 271.055 260.863 270.469C261.592 269.87 262.471 269.388 263.5 269.023C264.542 268.659 265.72 268.477 267.035 268.477C268.233 268.477 269.346 268.626 270.375 268.926C271.404 269.212 272.289 269.655 273.031 270.254C273.786 270.84 274.379 271.576 274.809 272.461C275.238 273.346 275.453 274.382 275.453 275.566V285.391C275.453 286.094 275.518 286.842 275.648 287.637C275.779 288.418 275.961 289.102 276.195 289.688V290H272.426ZM266.039 287.246C266.742 287.246 267.4 287.155 268.012 286.973C268.624 286.79 269.177 286.549 269.672 286.25C270.18 285.951 270.616 285.612 270.98 285.234C271.345 284.844 271.632 284.44 271.84 284.023V279.746H268.48C266.371 279.746 264.73 280.059 263.559 280.684C262.387 281.309 261.801 282.292 261.801 283.633C261.801 284.154 261.885 284.635 262.055 285.078C262.237 285.521 262.504 285.905 262.855 286.23C263.207 286.543 263.65 286.79 264.184 286.973C264.717 287.155 265.336 287.246 266.039 287.246ZM281.879 279.258C281.879 277.682 282.074 276.237 282.465 274.922C282.868 273.594 283.435 272.454 284.164 271.504C284.906 270.553 285.798 269.811 286.84 269.277C287.882 268.743 289.047 268.477 290.336 268.477C291.599 268.477 292.699 268.691 293.637 269.121C294.587 269.538 295.408 270.15 296.098 270.957V260H299.711V290H296.391L296.234 287.773C295.531 288.633 294.691 289.284 293.715 289.727C292.738 290.169 291.599 290.391 290.297 290.391C289.021 290.391 287.862 290.117 286.82 289.57C285.792 289.023 284.913 288.268 284.184 287.305C283.454 286.341 282.888 285.208 282.484 283.906C282.081 282.591 281.879 281.178 281.879 279.668V279.258ZM285.492 279.668C285.492 280.697 285.603 281.673 285.824 282.598C286.046 283.522 286.384 284.336 286.84 285.039C287.309 285.742 287.901 286.302 288.617 286.719C289.333 287.122 290.193 287.324 291.195 287.324C291.807 287.324 292.361 287.253 292.855 287.109C293.35 286.966 293.799 286.764 294.203 286.504C294.607 286.23 294.965 285.911 295.277 285.547C295.59 285.169 295.863 284.753 296.098 284.297V274.492C295.629 273.633 294.997 272.93 294.203 272.383C293.409 271.823 292.419 271.543 291.234 271.543C290.219 271.543 289.346 271.751 288.617 272.168C287.901 272.585 287.309 273.151 286.84 273.867C286.384 274.57 286.046 275.391 285.824 276.328C285.603 277.253 285.492 278.229 285.492 279.258V279.668ZM307.152 268.867H317.953V286.875H324.848V290H307.152V286.875H314.34V272.012H307.152V268.867ZM313.871 263.32C313.871 262.721 314.047 262.22 314.398 261.816C314.763 261.4 315.31 261.191 316.039 261.191C316.755 261.191 317.296 261.4 317.66 261.816C318.025 262.22 318.207 262.721 318.207 263.32C318.207 263.906 318.025 264.395 317.66 264.785C317.296 265.176 316.755 265.371 316.039 265.371C315.31 265.371 314.763 265.176 314.398 264.785C314.047 264.395 313.871 263.906 313.871 263.32ZM329.594 279.238C329.594 277.715 329.815 276.302 330.258 275C330.701 273.685 331.332 272.546 332.152 271.582C332.986 270.618 333.995 269.863 335.18 269.316C336.365 268.757 337.699 268.477 339.184 268.477C340.681 268.477 342.022 268.757 343.207 269.316C344.405 269.863 345.414 270.618 346.234 271.582C347.068 272.546 347.706 273.685 348.148 275C348.591 276.302 348.812 277.715 348.812 279.238V279.668C348.812 281.191 348.591 282.604 348.148 283.906C347.706 285.208 347.068 286.341 346.234 287.305C345.414 288.268 344.411 289.023 343.227 289.57C342.042 290.117 340.707 290.391 339.223 290.391C337.725 290.391 336.378 290.117 335.18 289.57C333.995 289.023 332.986 288.268 332.152 287.305C331.332 286.341 330.701 285.208 330.258 283.906C329.815 282.604 329.594 281.191 329.594 279.668V279.238ZM333.207 279.668C333.207 280.71 333.331 281.706 333.578 282.656C333.826 283.594 334.197 284.421 334.691 285.137C335.199 285.853 335.831 286.419 336.586 286.836C337.341 287.253 338.22 287.461 339.223 287.461C340.212 287.461 341.078 287.253 341.82 286.836C342.576 286.419 343.201 285.853 343.695 285.137C344.203 284.421 344.581 283.594 344.828 282.656C345.076 281.706 345.199 280.71 345.199 279.668V279.238C345.199 278.21 345.069 277.227 344.809 276.289C344.561 275.339 344.184 274.505 343.676 273.789C343.181 273.073 342.556 272.507 341.801 272.09C341.059 271.66 340.186 271.445 339.184 271.445C338.181 271.445 337.309 271.66 336.566 272.09C335.824 272.507 335.199 273.073 334.691 273.789C334.197 274.505 333.826 275.339 333.578 276.289C333.331 277.227 333.207 278.21 333.207 279.238V279.668ZM379.223 268.867H390.023V286.875H396.918V290H379.223V286.875H386.41V272.012H379.223V268.867ZM385.941 263.32C385.941 262.721 386.117 262.22 386.469 261.816C386.833 261.4 387.38 261.191 388.109 261.191C388.826 261.191 389.366 261.4 389.73 261.816C390.095 262.22 390.277 262.721 390.277 263.32C390.277 263.906 390.095 264.395 389.73 264.785C389.366 265.176 388.826 265.371 388.109 265.371C387.38 265.371 386.833 265.176 386.469 264.785C386.117 264.395 385.941 263.906 385.941 263.32ZM405.922 268.867L406.176 271.992C406.944 270.898 407.888 270.046 409.008 269.434C410.128 268.809 411.378 268.49 412.758 268.477C413.865 268.477 414.867 268.633 415.766 268.945C416.677 269.258 417.452 269.746 418.09 270.41C418.728 271.074 419.216 271.921 419.555 272.949C419.906 273.965 420.082 275.176 420.082 276.582V290H416.469V276.66C416.469 275.723 416.365 274.928 416.156 274.277C415.948 273.626 415.635 273.099 415.219 272.695C414.815 272.292 414.314 271.999 413.715 271.816C413.129 271.634 412.452 271.543 411.684 271.543C410.473 271.543 409.405 271.849 408.48 272.461C407.569 273.06 406.84 273.854 406.293 274.844V290H402.68V268.867H405.922ZM435.258 263.75V268.867H443.305V271.66H435.258V283.145C435.258 283.965 435.362 284.642 435.57 285.176C435.779 285.71 436.065 286.139 436.43 286.465C436.794 286.777 437.211 286.999 437.68 287.129C438.161 287.259 438.669 287.324 439.203 287.324C439.594 287.324 439.997 287.305 440.414 287.266C440.831 287.214 441.234 287.155 441.625 287.09C442.029 287.025 442.4 286.96 442.738 286.895C443.09 286.816 443.376 286.751 443.598 286.699L444.105 289.258C443.806 289.44 443.441 289.603 443.012 289.746C442.582 289.876 442.113 289.987 441.605 290.078C441.098 290.182 440.557 290.26 439.984 290.312C439.424 290.365 438.865 290.391 438.305 290.391C437.367 290.391 436.488 290.26 435.668 290C434.861 289.727 434.158 289.303 433.559 288.73C432.96 288.145 432.484 287.396 432.133 286.484C431.794 285.56 431.625 284.447 431.625 283.145V271.66H426.078V268.867H431.625V263.75H435.258ZM460.062 290.391C458.578 290.391 457.211 290.137 455.961 289.629C454.724 289.121 453.663 288.411 452.777 287.5C451.892 286.589 451.202 285.508 450.707 284.258C450.212 283.008 449.965 281.647 449.965 280.176V279.355C449.965 277.65 450.238 276.126 450.785 274.785C451.332 273.431 452.055 272.292 452.953 271.367C453.865 270.43 454.893 269.714 456.039 269.219C457.198 268.724 458.383 268.477 459.594 268.477C461.117 268.477 462.445 268.743 463.578 269.277C464.724 269.798 465.674 270.527 466.43 271.465C467.185 272.389 467.745 273.483 468.109 274.746C468.487 276.009 468.676 277.376 468.676 278.848V280.469H453.578C453.617 281.432 453.799 282.337 454.125 283.184C454.464 284.03 454.919 284.772 455.492 285.41C456.078 286.035 456.775 286.53 457.582 286.895C458.389 287.259 459.281 287.441 460.258 287.441C461.547 287.441 462.693 287.181 463.695 286.66C464.698 286.139 465.531 285.449 466.195 284.59L468.402 286.309C468.051 286.842 467.608 287.357 467.074 287.852C466.553 288.333 465.948 288.763 465.258 289.141C464.568 289.518 463.786 289.818 462.914 290.039C462.042 290.273 461.091 290.391 460.062 290.391ZM459.594 271.445C458.865 271.445 458.174 271.582 457.523 271.855C456.872 272.116 456.286 272.507 455.766 273.027C455.245 273.535 454.802 274.167 454.438 274.922C454.086 275.664 453.839 276.523 453.695 277.5H465.062V277.227C465.023 276.523 464.887 275.827 464.652 275.137C464.431 274.447 464.099 273.828 463.656 273.281C463.214 272.734 462.654 272.292 461.977 271.953C461.312 271.615 460.518 271.445 459.594 271.445ZM488.598 268.477C488.936 268.477 489.288 268.49 489.652 268.516C490.017 268.529 490.362 268.561 490.688 268.613C491.026 268.652 491.332 268.704 491.605 268.77C491.892 268.835 492.126 268.906 492.309 268.984L491.82 272.52C491.117 272.363 490.447 272.253 489.809 272.188C489.184 272.109 488.526 272.07 487.836 272.07C486.143 272.07 484.77 272.454 483.715 273.223C482.673 273.991 481.905 275.065 481.41 276.445V290H477.777V268.867H481.215L481.391 272.227C482.25 271.068 483.279 270.156 484.477 269.492C485.688 268.815 487.061 268.477 488.598 268.477ZM504.164 290V271.66H498.344V268.867H504.164V267.383C504.164 266.029 504.359 264.844 504.75 263.828C505.154 262.799 505.714 261.94 506.43 261.25C507.159 260.56 508.031 260.039 509.047 259.688C510.062 259.336 511.195 259.16 512.445 259.16C513.305 259.16 514.138 259.232 514.945 259.375C515.766 259.518 516.605 259.701 517.465 259.922L517.035 262.91C516.501 262.728 515.876 262.572 515.16 262.441C514.457 262.298 513.702 262.227 512.895 262.227C511.202 262.24 509.926 262.669 509.066 263.516C508.22 264.362 507.797 265.651 507.797 267.383V268.867H515.941V271.66H507.797V290H504.164ZM536.684 290C536.54 289.727 536.423 289.388 536.332 288.984C536.254 288.568 536.195 288.138 536.156 287.695C535.792 288.06 535.382 288.405 534.926 288.73C534.483 289.056 533.988 289.342 533.441 289.59C532.908 289.837 532.335 290.033 531.723 290.176C531.111 290.319 530.46 290.391 529.77 290.391C528.65 290.391 527.634 290.228 526.723 289.902C525.824 289.577 525.056 289.141 524.418 288.594C523.793 288.034 523.305 287.376 522.953 286.621C522.615 285.853 522.445 285.026 522.445 284.141C522.445 282.982 522.673 281.966 523.129 281.094C523.598 280.221 524.255 279.499 525.102 278.926C525.948 278.34 526.964 277.904 528.148 277.617C529.346 277.331 530.681 277.188 532.152 277.188H536.098V275.527C536.098 274.889 535.98 274.316 535.746 273.809C535.512 273.301 535.18 272.871 534.75 272.52C534.32 272.155 533.793 271.875 533.168 271.68C532.556 271.484 531.866 271.387 531.098 271.387C530.382 271.387 529.737 271.478 529.164 271.66C528.604 271.842 528.129 272.083 527.738 272.383C527.348 272.682 527.042 273.04 526.82 273.457C526.612 273.861 526.508 274.284 526.508 274.727H522.875C522.888 273.958 523.083 273.203 523.461 272.461C523.852 271.719 524.405 271.055 525.121 270.469C525.85 269.87 526.729 269.388 527.758 269.023C528.799 268.659 529.978 268.477 531.293 268.477C532.491 268.477 533.604 268.626 534.633 268.926C535.661 269.212 536.547 269.655 537.289 270.254C538.044 270.84 538.637 271.576 539.066 272.461C539.496 273.346 539.711 274.382 539.711 275.566V285.391C539.711 286.094 539.776 286.842 539.906 287.637C540.036 288.418 540.219 289.102 540.453 289.688V290H536.684ZM530.297 287.246C531 287.246 531.658 287.155 532.27 286.973C532.882 286.79 533.435 286.549 533.93 286.25C534.438 285.951 534.874 285.612 535.238 285.234C535.603 284.844 535.889 284.44 536.098 284.023V279.746H532.738C530.629 279.746 528.988 280.059 527.816 280.684C526.645 281.309 526.059 282.292 526.059 283.633C526.059 284.154 526.143 284.635 526.312 285.078C526.495 285.521 526.762 285.905 527.113 286.23C527.465 286.543 527.908 286.79 528.441 286.973C528.975 287.155 529.594 287.246 530.297 287.246ZM555.824 287.461C556.475 287.461 557.107 287.357 557.719 287.148C558.344 286.94 558.897 286.654 559.379 286.289C559.861 285.911 560.245 285.475 560.531 284.98C560.831 284.473 560.987 283.926 561 283.34H564.418C564.405 284.277 564.158 285.176 563.676 286.035C563.207 286.882 562.576 287.63 561.781 288.281C560.987 288.919 560.076 289.434 559.047 289.824C558.018 290.202 556.944 290.391 555.824 290.391C554.223 290.391 552.823 290.104 551.625 289.531C550.427 288.958 549.424 288.19 548.617 287.227C547.823 286.25 547.224 285.13 546.82 283.867C546.417 282.591 546.215 281.25 546.215 279.844V279.023C546.215 277.63 546.417 276.296 546.82 275.02C547.224 273.743 547.823 272.624 548.617 271.66C549.424 270.684 550.427 269.909 551.625 269.336C552.823 268.763 554.223 268.477 555.824 268.477C557.074 268.477 558.22 268.678 559.262 269.082C560.316 269.473 561.221 270.013 561.977 270.703C562.745 271.38 563.344 272.188 563.773 273.125C564.203 274.062 564.418 275.065 564.418 276.133H561C560.987 275.495 560.844 274.896 560.57 274.336C560.31 273.763 559.952 273.262 559.496 272.832C559.04 272.402 558.493 272.064 557.855 271.816C557.23 271.569 556.553 271.445 555.824 271.445C554.704 271.445 553.76 271.673 552.992 272.129C552.237 272.572 551.625 273.158 551.156 273.887C550.688 274.603 550.349 275.41 550.141 276.309C549.945 277.207 549.848 278.112 549.848 279.023V279.844C549.848 280.768 549.945 281.686 550.141 282.598C550.349 283.496 550.681 284.31 551.137 285.039C551.605 285.755 552.217 286.341 552.973 286.797C553.741 287.24 554.691 287.461 555.824 287.461ZM580.18 290.391C578.695 290.391 577.328 290.137 576.078 289.629C574.841 289.121 573.78 288.411 572.895 287.5C572.009 286.589 571.319 285.508 570.824 284.258C570.329 283.008 570.082 281.647 570.082 280.176V279.355C570.082 277.65 570.355 276.126 570.902 274.785C571.449 273.431 572.172 272.292 573.07 271.367C573.982 270.43 575.01 269.714 576.156 269.219C577.315 268.724 578.5 268.477 579.711 268.477C581.234 268.477 582.562 268.743 583.695 269.277C584.841 269.798 585.792 270.527 586.547 271.465C587.302 272.389 587.862 273.483 588.227 274.746C588.604 276.009 588.793 277.376 588.793 278.848V280.469H573.695C573.734 281.432 573.917 282.337 574.242 283.184C574.581 284.03 575.036 284.772 575.609 285.41C576.195 286.035 576.892 286.53 577.699 286.895C578.507 287.259 579.398 287.441 580.375 287.441C581.664 287.441 582.81 287.181 583.812 286.66C584.815 286.139 585.648 285.449 586.312 284.59L588.52 286.309C588.168 286.842 587.725 287.357 587.191 287.852C586.671 288.333 586.065 288.763 585.375 289.141C584.685 289.518 583.904 289.818 583.031 290.039C582.159 290.273 581.208 290.391 580.18 290.391ZM579.711 271.445C578.982 271.445 578.292 271.582 577.641 271.855C576.99 272.116 576.404 272.507 575.883 273.027C575.362 273.535 574.919 274.167 574.555 274.922C574.203 275.664 573.956 276.523 573.812 277.5H585.18V277.227C585.141 276.523 585.004 275.827 584.77 275.137C584.548 274.447 584.216 273.828 583.773 273.281C583.331 272.734 582.771 272.292 582.094 271.953C581.43 271.615 580.635 271.445 579.711 271.445Z" fill="#333333"/>
<circle cx="38" cy="270" r="38" fill="#FF991F"/>
<path d="M132.23 406H128.812V392.855H117.152V406H113.754V377.562H117.152V389.789H128.812V377.562H132.23V406ZM138.422 377.562H155.609V380.707H148.793V402.875H155.609V406H138.422V402.875H145.082V380.707H138.422V377.562ZM162.074 406V377.562H168.656C170.635 377.589 172.4 377.927 173.949 378.578C175.512 379.216 176.827 380.115 177.895 381.273C178.975 382.419 179.796 383.799 180.355 385.414C180.928 387.016 181.221 388.793 181.234 390.746V392.836C181.221 394.789 180.928 396.573 180.355 398.188C179.796 399.789 178.975 401.169 177.895 402.328C176.827 403.474 175.512 404.372 173.949 405.023C172.4 405.661 170.635 405.987 168.656 406H162.074ZM165.746 380.531V403.051H168.656C170.193 403.038 171.521 402.771 172.641 402.25C173.76 401.716 174.685 400.993 175.414 400.082C176.156 399.171 176.703 398.096 177.055 396.859C177.419 395.622 177.608 394.281 177.621 392.836V390.707C177.608 389.262 177.419 387.927 177.055 386.703C176.69 385.466 176.143 384.398 175.414 383.5C174.685 382.589 173.76 381.872 172.641 381.352C171.521 380.831 170.193 380.557 168.656 380.531H165.746ZM190.551 402.934H204.457V406H186.938V377.562H190.551V402.934ZM248.363 384.477C248.702 384.477 249.053 384.49 249.418 384.516C249.783 384.529 250.128 384.561 250.453 384.613C250.792 384.652 251.098 384.704 251.371 384.77C251.658 384.835 251.892 384.906 252.074 384.984L251.586 388.52C250.883 388.363 250.212 388.253 249.574 388.188C248.949 388.109 248.292 388.07 247.602 388.07C245.909 388.07 244.535 388.454 243.48 389.223C242.439 389.991 241.671 391.065 241.176 392.445V406H237.543V384.867H240.98L241.156 388.227C242.016 387.068 243.044 386.156 244.242 385.492C245.453 384.815 246.827 384.477 248.363 384.477ZM272.426 406C272.283 405.727 272.165 405.388 272.074 404.984C271.996 404.568 271.938 404.138 271.898 403.695C271.534 404.06 271.124 404.405 270.668 404.73C270.225 405.056 269.73 405.342 269.184 405.59C268.65 405.837 268.077 406.033 267.465 406.176C266.853 406.319 266.202 406.391 265.512 406.391C264.392 406.391 263.376 406.228 262.465 405.902C261.566 405.577 260.798 405.141 260.16 404.594C259.535 404.034 259.047 403.376 258.695 402.621C258.357 401.853 258.188 401.026 258.188 400.141C258.188 398.982 258.415 397.966 258.871 397.094C259.34 396.221 259.997 395.499 260.844 394.926C261.69 394.34 262.706 393.904 263.891 393.617C265.089 393.331 266.423 393.188 267.895 393.188H271.84V391.527C271.84 390.889 271.723 390.316 271.488 389.809C271.254 389.301 270.922 388.871 270.492 388.52C270.062 388.155 269.535 387.875 268.91 387.68C268.298 387.484 267.608 387.387 266.84 387.387C266.124 387.387 265.479 387.478 264.906 387.66C264.346 387.842 263.871 388.083 263.48 388.383C263.09 388.682 262.784 389.04 262.562 389.457C262.354 389.861 262.25 390.284 262.25 390.727H258.617C258.63 389.958 258.826 389.203 259.203 388.461C259.594 387.719 260.147 387.055 260.863 386.469C261.592 385.87 262.471 385.388 263.5 385.023C264.542 384.659 265.72 384.477 267.035 384.477C268.233 384.477 269.346 384.626 270.375 384.926C271.404 385.212 272.289 385.655 273.031 386.254C273.786 386.84 274.379 387.576 274.809 388.461C275.238 389.346 275.453 390.382 275.453 391.566V401.391C275.453 402.094 275.518 402.842 275.648 403.637C275.779 404.418 275.961 405.102 276.195 405.688V406H272.426ZM266.039 403.246C266.742 403.246 267.4 403.155 268.012 402.973C268.624 402.79 269.177 402.549 269.672 402.25C270.18 401.951 270.616 401.612 270.98 401.234C271.345 400.844 271.632 400.44 271.84 400.023V395.746H268.48C266.371 395.746 264.73 396.059 263.559 396.684C262.387 397.309 261.801 398.292 261.801 399.633C261.801 400.154 261.885 400.635 262.055 401.078C262.237 401.521 262.504 401.905 262.855 402.23C263.207 402.543 263.65 402.79 264.184 402.973C264.717 403.155 265.336 403.246 266.039 403.246ZM281.879 395.258C281.879 393.682 282.074 392.237 282.465 390.922C282.868 389.594 283.435 388.454 284.164 387.504C284.906 386.553 285.798 385.811 286.84 385.277C287.882 384.743 289.047 384.477 290.336 384.477C291.599 384.477 292.699 384.691 293.637 385.121C294.587 385.538 295.408 386.15 296.098 386.957V376H299.711V406H296.391L296.234 403.773C295.531 404.633 294.691 405.284 293.715 405.727C292.738 406.169 291.599 406.391 290.297 406.391C289.021 406.391 287.862 406.117 286.82 405.57C285.792 405.023 284.913 404.268 284.184 403.305C283.454 402.341 282.888 401.208 282.484 399.906C282.081 398.591 281.879 397.178 281.879 395.668V395.258ZM285.492 395.668C285.492 396.697 285.603 397.673 285.824 398.598C286.046 399.522 286.384 400.336 286.84 401.039C287.309 401.742 287.901 402.302 288.617 402.719C289.333 403.122 290.193 403.324 291.195 403.324C291.807 403.324 292.361 403.253 292.855 403.109C293.35 402.966 293.799 402.764 294.203 402.504C294.607 402.23 294.965 401.911 295.277 401.547C295.59 401.169 295.863 400.753 296.098 400.297V390.492C295.629 389.633 294.997 388.93 294.203 388.383C293.409 387.823 292.419 387.543 291.234 387.543C290.219 387.543 289.346 387.751 288.617 388.168C287.901 388.585 287.309 389.151 286.84 389.867C286.384 390.57 286.046 391.391 285.824 392.328C285.603 393.253 285.492 394.229 285.492 395.258V395.668ZM307.152 384.867H317.953V402.875H324.848V406H307.152V402.875H314.34V388.012H307.152V384.867ZM313.871 379.32C313.871 378.721 314.047 378.22 314.398 377.816C314.763 377.4 315.31 377.191 316.039 377.191C316.755 377.191 317.296 377.4 317.66 377.816C318.025 378.22 318.207 378.721 318.207 379.32C318.207 379.906 318.025 380.395 317.66 380.785C317.296 381.176 316.755 381.371 316.039 381.371C315.31 381.371 314.763 381.176 314.398 380.785C314.047 380.395 313.871 379.906 313.871 379.32ZM329.594 395.238C329.594 393.715 329.815 392.302 330.258 391C330.701 389.685 331.332 388.546 332.152 387.582C332.986 386.618 333.995 385.863 335.18 385.316C336.365 384.757 337.699 384.477 339.184 384.477C340.681 384.477 342.022 384.757 343.207 385.316C344.405 385.863 345.414 386.618 346.234 387.582C347.068 388.546 347.706 389.685 348.148 391C348.591 392.302 348.812 393.715 348.812 395.238V395.668C348.812 397.191 348.591 398.604 348.148 399.906C347.706 401.208 347.068 402.341 346.234 403.305C345.414 404.268 344.411 405.023 343.227 405.57C342.042 406.117 340.707 406.391 339.223 406.391C337.725 406.391 336.378 406.117 335.18 405.57C333.995 405.023 332.986 404.268 332.152 403.305C331.332 402.341 330.701 401.208 330.258 399.906C329.815 398.604 329.594 397.191 329.594 395.668V395.238ZM333.207 395.668C333.207 396.71 333.331 397.706 333.578 398.656C333.826 399.594 334.197 400.421 334.691 401.137C335.199 401.853 335.831 402.419 336.586 402.836C337.341 403.253 338.22 403.461 339.223 403.461C340.212 403.461 341.078 403.253 341.82 402.836C342.576 402.419 343.201 401.853 343.695 401.137C344.203 400.421 344.581 399.594 344.828 398.656C345.076 397.706 345.199 396.71 345.199 395.668V395.238C345.199 394.21 345.069 393.227 344.809 392.289C344.561 391.339 344.184 390.505 343.676 389.789C343.181 389.073 342.556 388.507 341.801 388.09C341.059 387.66 340.186 387.445 339.184 387.445C338.181 387.445 337.309 387.66 336.566 388.09C335.824 388.507 335.199 389.073 334.691 389.789C334.197 390.505 333.826 391.339 333.578 392.289C333.331 393.227 333.207 394.21 333.207 395.238V395.668ZM381.859 398.344L382.289 401.371L382.816 398.344L386.195 384.867H388.52L391.879 398.344L392.445 401.664L392.973 398.344L395.316 384.867H398.52L394.027 406H391.176L387.875 393.051L387.328 389.77L386.801 393.051L383.539 406H380.688L376.195 384.867H379.398L381.859 398.344ZM416.527 384.477C416.866 384.477 417.217 384.49 417.582 384.516C417.947 384.529 418.292 384.561 418.617 384.613C418.956 384.652 419.262 384.704 419.535 384.77C419.822 384.835 420.056 384.906 420.238 384.984L419.75 388.52C419.047 388.363 418.376 388.253 417.738 388.188C417.113 388.109 416.456 388.07 415.766 388.07C414.073 388.07 412.699 388.454 411.645 389.223C410.603 389.991 409.835 391.065 409.34 392.445V406H405.707V384.867H409.145L409.32 388.227C410.18 387.068 411.208 386.156 412.406 385.492C413.617 384.815 414.991 384.477 416.527 384.477ZM440.59 406C440.447 405.727 440.329 405.388 440.238 404.984C440.16 404.568 440.102 404.138 440.062 403.695C439.698 404.06 439.288 404.405 438.832 404.73C438.389 405.056 437.895 405.342 437.348 405.59C436.814 405.837 436.241 406.033 435.629 406.176C435.017 406.319 434.366 406.391 433.676 406.391C432.556 406.391 431.54 406.228 430.629 405.902C429.73 405.577 428.962 405.141 428.324 404.594C427.699 404.034 427.211 403.376 426.859 402.621C426.521 401.853 426.352 401.026 426.352 400.141C426.352 398.982 426.579 397.966 427.035 397.094C427.504 396.221 428.161 395.499 429.008 394.926C429.854 394.34 430.87 393.904 432.055 393.617C433.253 393.331 434.587 393.188 436.059 393.188H440.004V391.527C440.004 390.889 439.887 390.316 439.652 389.809C439.418 389.301 439.086 388.871 438.656 388.52C438.227 388.155 437.699 387.875 437.074 387.68C436.462 387.484 435.772 387.387 435.004 387.387C434.288 387.387 433.643 387.478 433.07 387.66C432.51 387.842 432.035 388.083 431.645 388.383C431.254 388.682 430.948 389.04 430.727 389.457C430.518 389.861 430.414 390.284 430.414 390.727H426.781C426.794 389.958 426.99 389.203 427.367 388.461C427.758 387.719 428.311 387.055 429.027 386.469C429.757 385.87 430.635 385.388 431.664 385.023C432.706 384.659 433.884 384.477 435.199 384.477C436.397 384.477 437.51 384.626 438.539 384.926C439.568 385.212 440.453 385.655 441.195 386.254C441.951 386.84 442.543 387.576 442.973 388.461C443.402 389.346 443.617 390.382 443.617 391.566V401.391C443.617 402.094 443.682 402.842 443.812 403.637C443.943 404.418 444.125 405.102 444.359 405.688V406H440.59ZM434.203 403.246C434.906 403.246 435.564 403.155 436.176 402.973C436.788 402.79 437.341 402.549 437.836 402.25C438.344 401.951 438.78 401.612 439.145 401.234C439.509 400.844 439.796 400.44 440.004 400.023V395.746H436.645C434.535 395.746 432.895 396.059 431.723 396.684C430.551 397.309 429.965 398.292 429.965 399.633C429.965 400.154 430.049 400.635 430.219 401.078C430.401 401.521 430.668 401.905 431.02 402.23C431.371 402.543 431.814 402.79 432.348 402.973C432.882 403.155 433.5 403.246 434.203 403.246ZM468.559 395.668C468.559 397.178 468.376 398.591 468.012 399.906C467.647 401.208 467.113 402.341 466.41 403.305C465.707 404.268 464.835 405.023 463.793 405.57C462.764 406.117 461.586 406.391 460.258 406.391C458.969 406.391 457.829 406.182 456.84 405.766C455.863 405.349 455.023 404.75 454.32 403.969V414.125H450.707V384.867H454.008L454.184 387.172C454.887 386.299 455.733 385.635 456.723 385.18C457.725 384.711 458.884 384.477 460.199 384.477C461.553 384.477 462.751 384.743 463.793 385.277C464.835 385.811 465.707 386.553 466.41 387.504C467.113 388.454 467.647 389.594 468.012 390.922C468.376 392.237 468.559 393.682 468.559 395.258V395.668ZM464.945 395.258C464.945 394.229 464.828 393.253 464.594 392.328C464.372 391.391 464.021 390.57 463.539 389.867C463.07 389.151 462.471 388.585 461.742 388.168C461.013 387.751 460.141 387.543 459.125 387.543C457.966 387.543 456.99 387.816 456.195 388.363C455.414 388.897 454.789 389.587 454.32 390.434V400.609C454.789 401.443 455.414 402.126 456.195 402.66C456.977 403.181 457.966 403.441 459.164 403.441C460.167 403.441 461.033 403.233 461.762 402.816C462.491 402.387 463.09 401.814 463.559 401.098C464.027 400.382 464.372 399.555 464.594 398.617C464.828 397.68 464.945 396.697 464.945 395.668V395.258ZM492.582 395.668C492.582 397.178 492.4 398.591 492.035 399.906C491.671 401.208 491.137 402.341 490.434 403.305C489.73 404.268 488.858 405.023 487.816 405.57C486.788 406.117 485.609 406.391 484.281 406.391C482.992 406.391 481.853 406.182 480.863 405.766C479.887 405.349 479.047 404.75 478.344 403.969V414.125H474.73V384.867H478.031L478.207 387.172C478.91 386.299 479.757 385.635 480.746 385.18C481.749 384.711 482.908 384.477 484.223 384.477C485.577 384.477 486.775 384.743 487.816 385.277C488.858 385.811 489.73 386.553 490.434 387.504C491.137 388.454 491.671 389.594 492.035 390.922C492.4 392.237 492.582 393.682 492.582 395.258V395.668ZM488.969 395.258C488.969 394.229 488.852 393.253 488.617 392.328C488.396 391.391 488.044 390.57 487.562 389.867C487.094 389.151 486.495 388.585 485.766 388.168C485.036 387.751 484.164 387.543 483.148 387.543C481.99 387.543 481.013 387.816 480.219 388.363C479.438 388.897 478.812 389.587 478.344 390.434V400.609C478.812 401.443 479.438 402.126 480.219 402.66C481 403.181 481.99 403.441 483.188 403.441C484.19 403.441 485.056 403.233 485.785 402.816C486.514 402.387 487.113 401.814 487.582 401.098C488.051 400.382 488.396 399.555 488.617 398.617C488.852 397.68 488.969 396.697 488.969 395.668V395.258ZM508.109 406.391C506.625 406.391 505.258 406.137 504.008 405.629C502.771 405.121 501.71 404.411 500.824 403.5C499.939 402.589 499.249 401.508 498.754 400.258C498.259 399.008 498.012 397.647 498.012 396.176V395.355C498.012 393.65 498.285 392.126 498.832 390.785C499.379 389.431 500.102 388.292 501 387.367C501.911 386.43 502.94 385.714 504.086 385.219C505.245 384.724 506.43 384.477 507.641 384.477C509.164 384.477 510.492 384.743 511.625 385.277C512.771 385.798 513.721 386.527 514.477 387.465C515.232 388.389 515.792 389.483 516.156 390.746C516.534 392.009 516.723 393.376 516.723 394.848V396.469H501.625C501.664 397.432 501.846 398.337 502.172 399.184C502.51 400.03 502.966 400.772 503.539 401.41C504.125 402.035 504.822 402.53 505.629 402.895C506.436 403.259 507.328 403.441 508.305 403.441C509.594 403.441 510.74 403.181 511.742 402.66C512.745 402.139 513.578 401.449 514.242 400.59L516.449 402.309C516.098 402.842 515.655 403.357 515.121 403.852C514.6 404.333 513.995 404.763 513.305 405.141C512.615 405.518 511.833 405.818 510.961 406.039C510.089 406.273 509.138 406.391 508.109 406.391ZM507.641 387.445C506.911 387.445 506.221 387.582 505.57 387.855C504.919 388.116 504.333 388.507 503.812 389.027C503.292 389.535 502.849 390.167 502.484 390.922C502.133 391.664 501.885 392.523 501.742 393.5H513.109V393.227C513.07 392.523 512.934 391.827 512.699 391.137C512.478 390.447 512.146 389.828 511.703 389.281C511.26 388.734 510.701 388.292 510.023 387.953C509.359 387.615 508.565 387.445 507.641 387.445ZM536.645 384.477C536.983 384.477 537.335 384.49 537.699 384.516C538.064 384.529 538.409 384.561 538.734 384.613C539.073 384.652 539.379 384.704 539.652 384.77C539.939 384.835 540.173 384.906 540.355 384.984L539.867 388.52C539.164 388.363 538.493 388.253 537.855 388.188C537.23 388.109 536.573 388.07 535.883 388.07C534.19 388.07 532.816 388.454 531.762 389.223C530.72 389.991 529.952 391.065 529.457 392.445V406H525.824V384.867H529.262L529.438 388.227C530.297 387.068 531.326 386.156 532.523 385.492C533.734 384.815 535.108 384.477 536.645 384.477Z" fill="#333333"/>
<circle cx="38" cy="386" r="38" fill="#F44336"/>
<path d="M118.363 493.562L122.992 507.781L127.992 493.562H132.484V522H128.969V510.652L129.262 498.777L124.008 514.09H121.938L117.113 499.188L117.406 510.652V522H113.891V493.562H118.363ZM137.406 511.238C137.406 509.715 137.628 508.302 138.07 507C138.513 505.685 139.145 504.546 139.965 503.582C140.798 502.618 141.807 501.863 142.992 501.316C144.177 500.757 145.512 500.477 146.996 500.477C148.493 500.477 149.835 500.757 151.02 501.316C152.217 501.863 153.227 502.618 154.047 503.582C154.88 504.546 155.518 505.685 155.961 507C156.404 508.302 156.625 509.715 156.625 511.238V511.668C156.625 513.191 156.404 514.604 155.961 515.906C155.518 517.208 154.88 518.341 154.047 519.305C153.227 520.268 152.224 521.023 151.039 521.57C149.854 522.117 148.52 522.391 147.035 522.391C145.538 522.391 144.19 522.117 142.992 521.57C141.807 521.023 140.798 520.268 139.965 519.305C139.145 518.341 138.513 517.208 138.07 515.906C137.628 514.604 137.406 513.191 137.406 511.668V511.238ZM141.02 511.668C141.02 512.71 141.143 513.706 141.391 514.656C141.638 515.594 142.009 516.421 142.504 517.137C143.012 517.853 143.643 518.419 144.398 518.836C145.154 519.253 146.033 519.461 147.035 519.461C148.025 519.461 148.891 519.253 149.633 518.836C150.388 518.419 151.013 517.853 151.508 517.137C152.016 516.421 152.393 515.594 152.641 514.656C152.888 513.706 153.012 512.71 153.012 511.668V511.238C153.012 510.21 152.882 509.227 152.621 508.289C152.374 507.339 151.996 506.505 151.488 505.789C150.993 505.073 150.368 504.507 149.613 504.09C148.871 503.66 147.999 503.445 146.996 503.445C145.993 503.445 145.121 503.66 144.379 504.09C143.637 504.507 143.012 505.073 142.504 505.789C142.009 506.505 141.638 507.339 141.391 508.289C141.143 509.227 141.02 510.21 141.02 511.238V511.668ZM161.762 511.258C161.762 509.682 161.957 508.237 162.348 506.922C162.751 505.594 163.318 504.454 164.047 503.504C164.789 502.553 165.681 501.811 166.723 501.277C167.764 500.743 168.93 500.477 170.219 500.477C171.482 500.477 172.582 500.691 173.52 501.121C174.47 501.538 175.29 502.15 175.98 502.957V492H179.594V522H176.273L176.117 519.773C175.414 520.633 174.574 521.284 173.598 521.727C172.621 522.169 171.482 522.391 170.18 522.391C168.904 522.391 167.745 522.117 166.703 521.57C165.674 521.023 164.796 520.268 164.066 519.305C163.337 518.341 162.771 517.208 162.367 515.906C161.964 514.591 161.762 513.178 161.762 511.668V511.258ZM165.375 511.668C165.375 512.697 165.486 513.673 165.707 514.598C165.928 515.522 166.267 516.336 166.723 517.039C167.191 517.742 167.784 518.302 168.5 518.719C169.216 519.122 170.076 519.324 171.078 519.324C171.69 519.324 172.243 519.253 172.738 519.109C173.233 518.966 173.682 518.764 174.086 518.504C174.49 518.23 174.848 517.911 175.16 517.547C175.473 517.169 175.746 516.753 175.98 516.297V506.492C175.512 505.633 174.88 504.93 174.086 504.383C173.292 503.823 172.302 503.543 171.117 503.543C170.102 503.543 169.229 503.751 168.5 504.168C167.784 504.585 167.191 505.151 166.723 505.867C166.267 506.57 165.928 507.391 165.707 508.328C165.486 509.253 165.375 510.229 165.375 511.258V511.668ZM195.805 522.391C194.32 522.391 192.953 522.137 191.703 521.629C190.466 521.121 189.405 520.411 188.52 519.5C187.634 518.589 186.944 517.508 186.449 516.258C185.954 515.008 185.707 513.647 185.707 512.176V511.355C185.707 509.65 185.98 508.126 186.527 506.785C187.074 505.431 187.797 504.292 188.695 503.367C189.607 502.43 190.635 501.714 191.781 501.219C192.94 500.724 194.125 500.477 195.336 500.477C196.859 500.477 198.188 500.743 199.32 501.277C200.466 501.798 201.417 502.527 202.172 503.465C202.927 504.389 203.487 505.483 203.852 506.746C204.229 508.009 204.418 509.376 204.418 510.848V512.469H189.32C189.359 513.432 189.542 514.337 189.867 515.184C190.206 516.03 190.661 516.772 191.234 517.41C191.82 518.035 192.517 518.53 193.324 518.895C194.132 519.259 195.023 519.441 196 519.441C197.289 519.441 198.435 519.181 199.438 518.66C200.44 518.139 201.273 517.449 201.938 516.59L204.145 518.309C203.793 518.842 203.35 519.357 202.816 519.852C202.296 520.333 201.69 520.763 201 521.141C200.31 521.518 199.529 521.818 198.656 522.039C197.784 522.273 196.833 522.391 195.805 522.391ZM195.336 503.445C194.607 503.445 193.917 503.582 193.266 503.855C192.615 504.116 192.029 504.507 191.508 505.027C190.987 505.535 190.544 506.167 190.18 506.922C189.828 507.664 189.581 508.523 189.438 509.5H200.805V509.227C200.766 508.523 200.629 507.827 200.395 507.137C200.173 506.447 199.841 505.828 199.398 505.281C198.956 504.734 198.396 504.292 197.719 503.953C197.055 503.615 196.26 503.445 195.336 503.445ZM212.152 500.867L212.25 502.859C212.68 502.117 213.24 501.538 213.93 501.121C214.633 500.704 215.479 500.49 216.469 500.477C218.409 500.477 219.704 501.232 220.355 502.742C220.772 502.065 221.319 501.525 221.996 501.121C222.686 500.704 223.52 500.49 224.496 500.477C226.046 500.477 227.237 500.952 228.07 501.902C228.904 502.853 229.32 504.292 229.32 506.219V522H225.883V506.18C225.883 504.409 225.069 503.53 223.441 503.543C223.012 503.543 222.641 503.602 222.328 503.719C222.016 503.836 221.755 503.999 221.547 504.207C221.339 504.402 221.176 504.637 221.059 504.91C220.941 505.171 220.863 505.444 220.824 505.73V522H217.387V506.16C217.387 505.314 217.198 504.663 216.82 504.207C216.443 503.751 215.844 503.53 215.023 503.543C214.268 503.543 213.682 503.693 213.266 503.992C212.849 504.292 212.543 504.689 212.348 505.184V522H208.91V500.867H212.152ZM259.105 500.867H269.906V518.875H276.801V522H259.105V518.875H266.293V504.012H259.105V500.867ZM265.824 495.32C265.824 494.721 266 494.22 266.352 493.816C266.716 493.4 267.263 493.191 267.992 493.191C268.708 493.191 269.249 493.4 269.613 493.816C269.978 494.22 270.16 494.721 270.16 495.32C270.16 495.906 269.978 496.395 269.613 496.785C269.249 497.176 268.708 497.371 267.992 497.371C267.263 497.371 266.716 497.176 266.352 496.785C266 496.395 265.824 495.906 265.824 495.32ZM285.805 500.867L286.059 503.992C286.827 502.898 287.771 502.046 288.891 501.434C290.01 500.809 291.26 500.49 292.641 500.477C293.747 500.477 294.75 500.633 295.648 500.945C296.56 501.258 297.335 501.746 297.973 502.41C298.611 503.074 299.099 503.921 299.438 504.949C299.789 505.965 299.965 507.176 299.965 508.582V522H296.352V508.66C296.352 507.723 296.247 506.928 296.039 506.277C295.831 505.626 295.518 505.099 295.102 504.695C294.698 504.292 294.197 503.999 293.598 503.816C293.012 503.634 292.335 503.543 291.566 503.543C290.355 503.543 289.288 503.849 288.363 504.461C287.452 505.06 286.723 505.854 286.176 506.844V522H282.562V500.867H285.805ZM315.141 495.75V500.867H323.188V503.66H315.141V515.145C315.141 515.965 315.245 516.642 315.453 517.176C315.661 517.71 315.948 518.139 316.312 518.465C316.677 518.777 317.094 518.999 317.562 519.129C318.044 519.259 318.552 519.324 319.086 519.324C319.477 519.324 319.88 519.305 320.297 519.266C320.714 519.214 321.117 519.155 321.508 519.09C321.911 519.025 322.283 518.96 322.621 518.895C322.973 518.816 323.259 518.751 323.48 518.699L323.988 521.258C323.689 521.44 323.324 521.603 322.895 521.746C322.465 521.876 321.996 521.987 321.488 522.078C320.98 522.182 320.44 522.26 319.867 522.312C319.307 522.365 318.747 522.391 318.188 522.391C317.25 522.391 316.371 522.26 315.551 522C314.743 521.727 314.04 521.303 313.441 520.73C312.842 520.145 312.367 519.396 312.016 518.484C311.677 517.56 311.508 516.447 311.508 515.145V503.66H305.961V500.867H311.508V495.75H315.141ZM339.945 522.391C338.461 522.391 337.094 522.137 335.844 521.629C334.607 521.121 333.546 520.411 332.66 519.5C331.775 518.589 331.085 517.508 330.59 516.258C330.095 515.008 329.848 513.647 329.848 512.176V511.355C329.848 509.65 330.121 508.126 330.668 506.785C331.215 505.431 331.938 504.292 332.836 503.367C333.747 502.43 334.776 501.714 335.922 501.219C337.081 500.724 338.266 500.477 339.477 500.477C341 500.477 342.328 500.743 343.461 501.277C344.607 501.798 345.557 502.527 346.312 503.465C347.068 504.389 347.628 505.483 347.992 506.746C348.37 508.009 348.559 509.376 348.559 510.848V512.469H333.461C333.5 513.432 333.682 514.337 334.008 515.184C334.346 516.03 334.802 516.772 335.375 517.41C335.961 518.035 336.658 518.53 337.465 518.895C338.272 519.259 339.164 519.441 340.141 519.441C341.43 519.441 342.576 519.181 343.578 518.66C344.581 518.139 345.414 517.449 346.078 516.59L348.285 518.309C347.934 518.842 347.491 519.357 346.957 519.852C346.436 520.333 345.831 520.763 345.141 521.141C344.451 521.518 343.669 521.818 342.797 522.039C341.924 522.273 340.974 522.391 339.945 522.391ZM339.477 503.445C338.747 503.445 338.057 503.582 337.406 503.855C336.755 504.116 336.169 504.507 335.648 505.027C335.128 505.535 334.685 506.167 334.32 506.922C333.969 507.664 333.721 508.523 333.578 509.5H344.945V509.227C344.906 508.523 344.77 507.827 344.535 507.137C344.314 506.447 343.982 505.828 343.539 505.281C343.096 504.734 342.536 504.292 341.859 503.953C341.195 503.615 340.401 503.445 339.477 503.445ZM368.48 500.477C368.819 500.477 369.171 500.49 369.535 500.516C369.9 500.529 370.245 500.561 370.57 500.613C370.909 500.652 371.215 500.704 371.488 500.77C371.775 500.835 372.009 500.906 372.191 500.984L371.703 504.52C371 504.363 370.329 504.253 369.691 504.188C369.066 504.109 368.409 504.07 367.719 504.07C366.026 504.07 364.652 504.454 363.598 505.223C362.556 505.991 361.788 507.065 361.293 508.445V522H357.66V500.867H361.098L361.273 504.227C362.133 503.068 363.161 502.156 364.359 501.492C365.57 500.815 366.944 500.477 368.48 500.477ZM384.047 522V503.66H378.227V500.867H384.047V499.383C384.047 498.029 384.242 496.844 384.633 495.828C385.036 494.799 385.596 493.94 386.312 493.25C387.042 492.56 387.914 492.039 388.93 491.688C389.945 491.336 391.078 491.16 392.328 491.16C393.188 491.16 394.021 491.232 394.828 491.375C395.648 491.518 396.488 491.701 397.348 491.922L396.918 494.91C396.384 494.728 395.759 494.572 395.043 494.441C394.34 494.298 393.585 494.227 392.777 494.227C391.085 494.24 389.809 494.669 388.949 495.516C388.103 496.362 387.68 497.651 387.68 499.383V500.867H395.824V503.66H387.68V522H384.047ZM416.566 522C416.423 521.727 416.306 521.388 416.215 520.984C416.137 520.568 416.078 520.138 416.039 519.695C415.674 520.06 415.264 520.405 414.809 520.73C414.366 521.056 413.871 521.342 413.324 521.59C412.79 521.837 412.217 522.033 411.605 522.176C410.993 522.319 410.342 522.391 409.652 522.391C408.533 522.391 407.517 522.228 406.605 521.902C405.707 521.577 404.939 521.141 404.301 520.594C403.676 520.034 403.188 519.376 402.836 518.621C402.497 517.853 402.328 517.026 402.328 516.141C402.328 514.982 402.556 513.966 403.012 513.094C403.48 512.221 404.138 511.499 404.984 510.926C405.831 510.34 406.846 509.904 408.031 509.617C409.229 509.331 410.564 509.188 412.035 509.188H415.98V507.527C415.98 506.889 415.863 506.316 415.629 505.809C415.395 505.301 415.062 504.871 414.633 504.52C414.203 504.155 413.676 503.875 413.051 503.68C412.439 503.484 411.749 503.387 410.98 503.387C410.264 503.387 409.62 503.478 409.047 503.66C408.487 503.842 408.012 504.083 407.621 504.383C407.23 504.682 406.924 505.04 406.703 505.457C406.495 505.861 406.391 506.284 406.391 506.727H402.758C402.771 505.958 402.966 505.203 403.344 504.461C403.734 503.719 404.288 503.055 405.004 502.469C405.733 501.87 406.612 501.388 407.641 501.023C408.682 500.659 409.861 500.477 411.176 500.477C412.374 500.477 413.487 500.626 414.516 500.926C415.544 501.212 416.43 501.655 417.172 502.254C417.927 502.84 418.52 503.576 418.949 504.461C419.379 505.346 419.594 506.382 419.594 507.566V517.391C419.594 518.094 419.659 518.842 419.789 519.637C419.919 520.418 420.102 521.102 420.336 521.688V522H416.566ZM410.18 519.246C410.883 519.246 411.54 519.155 412.152 518.973C412.764 518.79 413.318 518.549 413.812 518.25C414.32 517.951 414.757 517.612 415.121 517.234C415.486 516.844 415.772 516.44 415.98 516.023V511.746H412.621C410.512 511.746 408.871 512.059 407.699 512.684C406.527 513.309 405.941 514.292 405.941 515.633C405.941 516.154 406.026 516.635 406.195 517.078C406.378 517.521 406.645 517.905 406.996 518.23C407.348 518.543 407.79 518.79 408.324 518.973C408.858 519.155 409.477 519.246 410.18 519.246ZM435.707 519.461C436.358 519.461 436.99 519.357 437.602 519.148C438.227 518.94 438.78 518.654 439.262 518.289C439.743 517.911 440.128 517.475 440.414 516.98C440.714 516.473 440.87 515.926 440.883 515.34H444.301C444.288 516.277 444.04 517.176 443.559 518.035C443.09 518.882 442.458 519.63 441.664 520.281C440.87 520.919 439.958 521.434 438.93 521.824C437.901 522.202 436.827 522.391 435.707 522.391C434.105 522.391 432.706 522.104 431.508 521.531C430.31 520.958 429.307 520.19 428.5 519.227C427.706 518.25 427.107 517.13 426.703 515.867C426.299 514.591 426.098 513.25 426.098 511.844V511.023C426.098 509.63 426.299 508.296 426.703 507.02C427.107 505.743 427.706 504.624 428.5 503.66C429.307 502.684 430.31 501.909 431.508 501.336C432.706 500.763 434.105 500.477 435.707 500.477C436.957 500.477 438.103 500.678 439.145 501.082C440.199 501.473 441.104 502.013 441.859 502.703C442.628 503.38 443.227 504.188 443.656 505.125C444.086 506.062 444.301 507.065 444.301 508.133H440.883C440.87 507.495 440.727 506.896 440.453 506.336C440.193 505.763 439.835 505.262 439.379 504.832C438.923 504.402 438.376 504.064 437.738 503.816C437.113 503.569 436.436 503.445 435.707 503.445C434.587 503.445 433.643 503.673 432.875 504.129C432.12 504.572 431.508 505.158 431.039 505.887C430.57 506.603 430.232 507.41 430.023 508.309C429.828 509.207 429.73 510.112 429.73 511.023V511.844C429.73 512.768 429.828 513.686 430.023 514.598C430.232 515.496 430.564 516.31 431.02 517.039C431.488 517.755 432.1 518.341 432.855 518.797C433.624 519.24 434.574 519.461 435.707 519.461ZM460.062 522.391C458.578 522.391 457.211 522.137 455.961 521.629C454.724 521.121 453.663 520.411 452.777 519.5C451.892 518.589 451.202 517.508 450.707 516.258C450.212 515.008 449.965 513.647 449.965 512.176V511.355C449.965 509.65 450.238 508.126 450.785 506.785C451.332 505.431 452.055 504.292 452.953 503.367C453.865 502.43 454.893 501.714 456.039 501.219C457.198 500.724 458.383 500.477 459.594 500.477C461.117 500.477 462.445 500.743 463.578 501.277C464.724 501.798 465.674 502.527 466.43 503.465C467.185 504.389 467.745 505.483 468.109 506.746C468.487 508.009 468.676 509.376 468.676 510.848V512.469H453.578C453.617 513.432 453.799 514.337 454.125 515.184C454.464 516.03 454.919 516.772 455.492 517.41C456.078 518.035 456.775 518.53 457.582 518.895C458.389 519.259 459.281 519.441 460.258 519.441C461.547 519.441 462.693 519.181 463.695 518.66C464.698 518.139 465.531 517.449 466.195 516.59L468.402 518.309C468.051 518.842 467.608 519.357 467.074 519.852C466.553 520.333 465.948 520.763 465.258 521.141C464.568 521.518 463.786 521.818 462.914 522.039C462.042 522.273 461.091 522.391 460.062 522.391ZM459.594 503.445C458.865 503.445 458.174 503.582 457.523 503.855C456.872 504.116 456.286 504.507 455.766 505.027C455.245 505.535 454.802 506.167 454.438 506.922C454.086 507.664 453.839 508.523 453.695 509.5H465.062V509.227C465.023 508.523 464.887 507.827 464.652 507.137C464.431 506.447 464.099 505.828 463.656 505.281C463.214 504.734 462.654 504.292 461.977 503.953C461.312 503.615 460.518 503.445 459.594 503.445ZM499.34 492H510.141V518.875H517.035V522H499.34V518.875H506.527V495.145H499.34V492ZM523.363 500.867H534.164V518.875H541.059V522H523.363V518.875H530.551V504.012H523.363V500.867ZM530.082 495.32C530.082 494.721 530.258 494.22 530.609 493.816C530.974 493.4 531.521 493.191 532.25 493.191C532.966 493.191 533.507 493.4 533.871 493.816C534.236 494.22 534.418 494.721 534.418 495.32C534.418 495.906 534.236 496.395 533.871 496.785C533.507 497.176 532.966 497.371 532.25 497.371C531.521 497.371 530.974 497.176 530.609 496.785C530.258 496.395 530.082 495.906 530.082 495.32ZM564.73 511.668C564.73 513.178 564.548 514.591 564.184 515.906C563.819 517.208 563.285 518.341 562.582 519.305C561.879 520.268 561.007 521.023 559.965 521.57C558.936 522.117 557.751 522.391 556.41 522.391C555.056 522.391 553.878 522.15 552.875 521.668C551.885 521.186 551.039 520.496 550.336 519.598L550.16 522H546.84V492H550.453V503.133C551.143 502.273 551.977 501.616 552.953 501.16C553.93 500.704 555.069 500.477 556.371 500.477C557.725 500.477 558.923 500.743 559.965 501.277C561.007 501.811 561.879 502.553 562.582 503.504C563.285 504.454 563.819 505.594 564.184 506.922C564.548 508.237 564.73 509.682 564.73 511.258V511.668ZM561.117 511.258C561.117 510.229 561.013 509.253 560.805 508.328C560.609 507.391 560.29 506.57 559.848 505.867C559.405 505.151 558.826 504.585 558.109 504.168C557.393 503.751 556.514 503.543 555.473 503.543C554.848 503.543 554.275 503.628 553.754 503.797C553.233 503.953 552.764 504.181 552.348 504.48C551.944 504.767 551.579 505.112 551.254 505.516C550.941 505.906 550.674 506.336 550.453 506.805V516.043C550.688 516.512 550.961 516.948 551.273 517.352C551.599 517.742 551.97 518.087 552.387 518.387C552.803 518.686 553.272 518.921 553.793 519.09C554.314 519.246 554.887 519.324 555.512 519.324C556.501 519.324 557.348 519.122 558.051 518.719C558.767 518.302 559.346 517.742 559.789 517.039C560.245 516.336 560.577 515.522 560.785 514.598C561.007 513.673 561.117 512.697 561.117 511.668V511.258ZM584.691 500.477C585.03 500.477 585.382 500.49 585.746 500.516C586.111 500.529 586.456 500.561 586.781 500.613C587.12 500.652 587.426 500.704 587.699 500.77C587.986 500.835 588.22 500.906 588.402 500.984L587.914 504.52C587.211 504.363 586.54 504.253 585.902 504.188C585.277 504.109 584.62 504.07 583.93 504.07C582.237 504.07 580.863 504.454 579.809 505.223C578.767 505.991 577.999 507.065 577.504 508.445V522H573.871V500.867H577.309L577.484 504.227C578.344 503.068 579.372 502.156 580.57 501.492C581.781 500.815 583.155 500.477 584.691 500.477ZM608.754 522C608.611 521.727 608.493 521.388 608.402 520.984C608.324 520.568 608.266 520.138 608.227 519.695C607.862 520.06 607.452 520.405 606.996 520.73C606.553 521.056 606.059 521.342 605.512 521.59C604.978 521.837 604.405 522.033 603.793 522.176C603.181 522.319 602.53 522.391 601.84 522.391C600.72 522.391 599.704 522.228 598.793 521.902C597.895 521.577 597.126 521.141 596.488 520.594C595.863 520.034 595.375 519.376 595.023 518.621C594.685 517.853 594.516 517.026 594.516 516.141C594.516 514.982 594.743 513.966 595.199 513.094C595.668 512.221 596.326 511.499 597.172 510.926C598.018 510.34 599.034 509.904 600.219 509.617C601.417 509.331 602.751 509.188 604.223 509.188H608.168V507.527C608.168 506.889 608.051 506.316 607.816 505.809C607.582 505.301 607.25 504.871 606.82 504.52C606.391 504.155 605.863 503.875 605.238 503.68C604.626 503.484 603.936 503.387 603.168 503.387C602.452 503.387 601.807 503.478 601.234 503.66C600.674 503.842 600.199 504.083 599.809 504.383C599.418 504.682 599.112 505.04 598.891 505.457C598.682 505.861 598.578 506.284 598.578 506.727H594.945C594.958 505.958 595.154 505.203 595.531 504.461C595.922 503.719 596.475 503.055 597.191 502.469C597.921 501.87 598.799 501.388 599.828 501.023C600.87 500.659 602.048 500.477 603.363 500.477C604.561 500.477 605.674 500.626 606.703 500.926C607.732 501.212 608.617 501.655 609.359 502.254C610.115 502.84 610.707 503.576 611.137 504.461C611.566 505.346 611.781 506.382 611.781 507.566V517.391C611.781 518.094 611.846 518.842 611.977 519.637C612.107 520.418 612.289 521.102 612.523 521.688V522H608.754ZM602.367 519.246C603.07 519.246 603.728 519.155 604.34 518.973C604.952 518.79 605.505 518.549 606 518.25C606.508 517.951 606.944 517.612 607.309 517.234C607.673 516.844 607.96 516.44 608.168 516.023V511.746H604.809C602.699 511.746 601.059 512.059 599.887 512.684C598.715 513.309 598.129 514.292 598.129 515.633C598.129 516.154 598.214 516.635 598.383 517.078C598.565 517.521 598.832 517.905 599.184 518.23C599.535 518.543 599.978 518.79 600.512 518.973C601.046 519.155 601.664 519.246 602.367 519.246ZM632.738 500.477C633.077 500.477 633.428 500.49 633.793 500.516C634.158 500.529 634.503 500.561 634.828 500.613C635.167 500.652 635.473 500.704 635.746 500.77C636.033 500.835 636.267 500.906 636.449 500.984L635.961 504.52C635.258 504.363 634.587 504.253 633.949 504.188C633.324 504.109 632.667 504.07 631.977 504.07C630.284 504.07 628.91 504.454 627.855 505.223C626.814 505.991 626.046 507.065 625.551 508.445V522H621.918V500.867H625.355L625.531 504.227C626.391 503.068 627.419 502.156 628.617 501.492C629.828 500.815 631.202 500.477 632.738 500.477ZM650.688 514.5L651.625 517.059L658.07 500.867H662.113L651.391 525.262C651.143 525.809 650.824 526.388 650.434 527C650.056 527.612 649.594 528.178 649.047 528.699C648.5 529.22 647.862 529.656 647.133 530.008C646.404 530.359 645.564 530.535 644.613 530.535C644.444 530.535 644.255 530.522 644.047 530.496C643.839 530.483 643.63 530.457 643.422 530.418C643.214 530.392 643.018 530.359 642.836 530.32C642.654 530.281 642.504 530.249 642.387 530.223L642.973 527.273C643.064 527.273 643.188 527.28 643.344 527.293C643.5 527.306 643.663 527.319 643.832 527.332C644.001 527.345 644.164 527.352 644.32 527.352C644.477 527.365 644.6 527.371 644.691 527.371C645.186 527.371 645.635 527.234 646.039 526.961C646.456 526.688 646.82 526.362 647.133 525.984C647.458 525.607 647.732 525.216 647.953 524.812C648.188 524.409 648.37 524.077 648.5 523.816L649.945 521.004L640.844 500.867H644.887L650.688 514.5Z" fill="#333333"/>
<circle cx="38" cy="502" r="38" fill="#DD0074"/>
<path d="M118.363 599.562L122.992 613.781L127.992 599.562H132.484V628H128.969V616.652L129.262 604.777L124.008 620.09H121.938L117.113 605.188L117.406 616.652V628H113.891V599.562H118.363ZM137.406 617.238C137.406 615.715 137.628 614.302 138.07 613C138.513 611.685 139.145 610.546 139.965 609.582C140.798 608.618 141.807 607.863 142.992 607.316C144.177 606.757 145.512 606.477 146.996 606.477C148.493 606.477 149.835 606.757 151.02 607.316C152.217 607.863 153.227 608.618 154.047 609.582C154.88 610.546 155.518 611.685 155.961 613C156.404 614.302 156.625 615.715 156.625 617.238V617.668C156.625 619.191 156.404 620.604 155.961 621.906C155.518 623.208 154.88 624.341 154.047 625.305C153.227 626.268 152.224 627.023 151.039 627.57C149.854 628.117 148.52 628.391 147.035 628.391C145.538 628.391 144.19 628.117 142.992 627.57C141.807 627.023 140.798 626.268 139.965 625.305C139.145 624.341 138.513 623.208 138.07 621.906C137.628 620.604 137.406 619.191 137.406 617.668V617.238ZM141.02 617.668C141.02 618.71 141.143 619.706 141.391 620.656C141.638 621.594 142.009 622.421 142.504 623.137C143.012 623.853 143.643 624.419 144.398 624.836C145.154 625.253 146.033 625.461 147.035 625.461C148.025 625.461 148.891 625.253 149.633 624.836C150.388 624.419 151.013 623.853 151.508 623.137C152.016 622.421 152.393 621.594 152.641 620.656C152.888 619.706 153.012 618.71 153.012 617.668V617.238C153.012 616.21 152.882 615.227 152.621 614.289C152.374 613.339 151.996 612.505 151.488 611.789C150.993 611.073 150.368 610.507 149.613 610.09C148.871 609.66 147.999 609.445 146.996 609.445C145.993 609.445 145.121 609.66 144.379 610.09C143.637 610.507 143.012 611.073 142.504 611.789C142.009 612.505 141.638 613.339 141.391 614.289C141.143 615.227 141.02 616.21 141.02 617.238V617.668ZM161.762 617.258C161.762 615.682 161.957 614.237 162.348 612.922C162.751 611.594 163.318 610.454 164.047 609.504C164.789 608.553 165.681 607.811 166.723 607.277C167.764 606.743 168.93 606.477 170.219 606.477C171.482 606.477 172.582 606.691 173.52 607.121C174.47 607.538 175.29 608.15 175.98 608.957V598H179.594V628H176.273L176.117 625.773C175.414 626.633 174.574 627.284 173.598 627.727C172.621 628.169 171.482 628.391 170.18 628.391C168.904 628.391 167.745 628.117 166.703 627.57C165.674 627.023 164.796 626.268 164.066 625.305C163.337 624.341 162.771 623.208 162.367 621.906C161.964 620.591 161.762 619.178 161.762 617.668V617.258ZM165.375 617.668C165.375 618.697 165.486 619.673 165.707 620.598C165.928 621.522 166.267 622.336 166.723 623.039C167.191 623.742 167.784 624.302 168.5 624.719C169.216 625.122 170.076 625.324 171.078 625.324C171.69 625.324 172.243 625.253 172.738 625.109C173.233 624.966 173.682 624.764 174.086 624.504C174.49 624.23 174.848 623.911 175.16 623.547C175.473 623.169 175.746 622.753 175.98 622.297V612.492C175.512 611.633 174.88 610.93 174.086 610.383C173.292 609.823 172.302 609.543 171.117 609.543C170.102 609.543 169.229 609.751 168.5 610.168C167.784 610.585 167.191 611.151 166.723 611.867C166.267 612.57 165.928 613.391 165.707 614.328C165.486 615.253 165.375 616.229 165.375 617.258V617.668ZM195.805 628.391C194.32 628.391 192.953 628.137 191.703 627.629C190.466 627.121 189.405 626.411 188.52 625.5C187.634 624.589 186.944 623.508 186.449 622.258C185.954 621.008 185.707 619.647 185.707 618.176V617.355C185.707 615.65 185.98 614.126 186.527 612.785C187.074 611.431 187.797 610.292 188.695 609.367C189.607 608.43 190.635 607.714 191.781 607.219C192.94 606.724 194.125 606.477 195.336 606.477C196.859 606.477 198.188 606.743 199.32 607.277C200.466 607.798 201.417 608.527 202.172 609.465C202.927 610.389 203.487 611.483 203.852 612.746C204.229 614.009 204.418 615.376 204.418 616.848V618.469H189.32C189.359 619.432 189.542 620.337 189.867 621.184C190.206 622.03 190.661 622.772 191.234 623.41C191.82 624.035 192.517 624.53 193.324 624.895C194.132 625.259 195.023 625.441 196 625.441C197.289 625.441 198.435 625.181 199.438 624.66C200.44 624.139 201.273 623.449 201.938 622.59L204.145 624.309C203.793 624.842 203.35 625.357 202.816 625.852C202.296 626.333 201.69 626.763 201 627.141C200.31 627.518 199.529 627.818 198.656 628.039C197.784 628.273 196.833 628.391 195.805 628.391ZM195.336 609.445C194.607 609.445 193.917 609.582 193.266 609.855C192.615 610.116 192.029 610.507 191.508 611.027C190.987 611.535 190.544 612.167 190.18 612.922C189.828 613.664 189.581 614.523 189.438 615.5H200.805V615.227C200.766 614.523 200.629 613.827 200.395 613.137C200.173 612.447 199.841 611.828 199.398 611.281C198.956 610.734 198.396 610.292 197.719 609.953C197.055 609.615 196.26 609.445 195.336 609.445ZM212.152 606.867L212.25 608.859C212.68 608.117 213.24 607.538 213.93 607.121C214.633 606.704 215.479 606.49 216.469 606.477C218.409 606.477 219.704 607.232 220.355 608.742C220.772 608.065 221.319 607.525 221.996 607.121C222.686 606.704 223.52 606.49 224.496 606.477C226.046 606.477 227.237 606.952 228.07 607.902C228.904 608.853 229.32 610.292 229.32 612.219V628H225.883V612.18C225.883 610.409 225.069 609.53 223.441 609.543C223.012 609.543 222.641 609.602 222.328 609.719C222.016 609.836 221.755 609.999 221.547 610.207C221.339 610.402 221.176 610.637 221.059 610.91C220.941 611.171 220.863 611.444 220.824 611.73V628H217.387V612.16C217.387 611.314 217.198 610.663 216.82 610.207C216.443 609.751 215.844 609.53 215.023 609.543C214.268 609.543 213.682 609.693 213.266 609.992C212.849 610.292 212.543 610.689 212.348 611.184V628H208.91V606.867H212.152ZM263.93 628V609.66H258.109V606.867H263.93V605.383C263.93 604.029 264.125 602.844 264.516 601.828C264.919 600.799 265.479 599.94 266.195 599.25C266.924 598.56 267.797 598.039 268.812 597.688C269.828 597.336 270.961 597.16 272.211 597.16C273.07 597.16 273.904 597.232 274.711 597.375C275.531 597.518 276.371 597.701 277.23 597.922L276.801 600.91C276.267 600.728 275.642 600.572 274.926 600.441C274.223 600.298 273.467 600.227 272.66 600.227C270.967 600.24 269.691 600.669 268.832 601.516C267.986 602.362 267.562 603.651 267.562 605.383V606.867H275.707V609.66H267.562V628H263.93ZM283.129 606.867H293.93V624.875H300.824V628H283.129V624.875H290.316V610.012H283.129V606.867ZM289.848 601.32C289.848 600.721 290.023 600.22 290.375 599.816C290.74 599.4 291.286 599.191 292.016 599.191C292.732 599.191 293.272 599.4 293.637 599.816C294.001 600.22 294.184 600.721 294.184 601.32C294.184 601.906 294.001 602.395 293.637 602.785C293.272 603.176 292.732 603.371 292.016 603.371C291.286 603.371 290.74 603.176 290.375 602.785C290.023 602.395 289.848 601.906 289.848 601.32ZM320.434 606.477C320.772 606.477 321.124 606.49 321.488 606.516C321.853 606.529 322.198 606.561 322.523 606.613C322.862 606.652 323.168 606.704 323.441 606.77C323.728 606.835 323.962 606.906 324.145 606.984L323.656 610.52C322.953 610.363 322.283 610.253 321.645 610.188C321.02 610.109 320.362 610.07 319.672 610.07C317.979 610.07 316.605 610.454 315.551 611.223C314.509 611.991 313.741 613.065 313.246 614.445V628H309.613V606.867H313.051L313.227 610.227C314.086 609.068 315.115 608.156 316.312 607.492C317.523 606.815 318.897 606.477 320.434 606.477ZM332.27 606.867L332.367 608.859C332.797 608.117 333.357 607.538 334.047 607.121C334.75 606.704 335.596 606.49 336.586 606.477C338.526 606.477 339.822 607.232 340.473 608.742C340.889 608.065 341.436 607.525 342.113 607.121C342.803 606.704 343.637 606.49 344.613 606.477C346.163 606.477 347.354 606.952 348.188 607.902C349.021 608.853 349.438 610.292 349.438 612.219V628H346V612.18C346 610.409 345.186 609.53 343.559 609.543C343.129 609.543 342.758 609.602 342.445 609.719C342.133 609.836 341.872 609.999 341.664 610.207C341.456 610.402 341.293 610.637 341.176 610.91C341.059 611.171 340.98 611.444 340.941 611.73V628H337.504V612.16C337.504 611.314 337.315 610.663 336.938 610.207C336.56 609.751 335.961 609.53 335.141 609.543C334.385 609.543 333.799 609.693 333.383 609.992C332.966 610.292 332.66 610.689 332.465 611.184V628H329.027V606.867H332.27ZM357.836 620.344L358.266 623.371L358.793 620.344L362.172 606.867H364.496L367.855 620.344L368.422 623.664L368.949 620.344L371.293 606.867H374.496L370.004 628H367.152L363.852 615.051L363.305 611.77L362.777 615.051L359.516 628H356.664L352.172 606.867H355.375L357.836 620.344ZM392.543 628C392.4 627.727 392.283 627.388 392.191 626.984C392.113 626.568 392.055 626.138 392.016 625.695C391.651 626.06 391.241 626.405 390.785 626.73C390.342 627.056 389.848 627.342 389.301 627.59C388.767 627.837 388.194 628.033 387.582 628.176C386.97 628.319 386.319 628.391 385.629 628.391C384.509 628.391 383.493 628.228 382.582 627.902C381.684 627.577 380.915 627.141 380.277 626.594C379.652 626.034 379.164 625.376 378.812 624.621C378.474 623.853 378.305 623.026 378.305 622.141C378.305 620.982 378.533 619.966 378.988 619.094C379.457 618.221 380.115 617.499 380.961 616.926C381.807 616.34 382.823 615.904 384.008 615.617C385.206 615.331 386.54 615.188 388.012 615.188H391.957V613.527C391.957 612.889 391.84 612.316 391.605 611.809C391.371 611.301 391.039 610.871 390.609 610.52C390.18 610.155 389.652 609.875 389.027 609.68C388.415 609.484 387.725 609.387 386.957 609.387C386.241 609.387 385.596 609.478 385.023 609.66C384.464 609.842 383.988 610.083 383.598 610.383C383.207 610.682 382.901 611.04 382.68 611.457C382.471 611.861 382.367 612.284 382.367 612.727H378.734C378.747 611.958 378.943 611.203 379.32 610.461C379.711 609.719 380.264 609.055 380.98 608.469C381.71 607.87 382.589 607.388 383.617 607.023C384.659 606.659 385.837 606.477 387.152 606.477C388.35 606.477 389.464 606.626 390.492 606.926C391.521 607.212 392.406 607.655 393.148 608.254C393.904 608.84 394.496 609.576 394.926 610.461C395.355 611.346 395.57 612.382 395.57 613.566V623.391C395.57 624.094 395.635 624.842 395.766 625.637C395.896 626.418 396.078 627.102 396.312 627.688V628H392.543ZM386.156 625.246C386.859 625.246 387.517 625.155 388.129 624.973C388.741 624.79 389.294 624.549 389.789 624.25C390.297 623.951 390.733 623.612 391.098 623.234C391.462 622.844 391.749 622.44 391.957 622.023V617.746H388.598C386.488 617.746 384.848 618.059 383.676 618.684C382.504 619.309 381.918 620.292 381.918 621.633C381.918 622.154 382.003 622.635 382.172 623.078C382.354 623.521 382.621 623.905 382.973 624.23C383.324 624.543 383.767 624.79 384.301 624.973C384.835 625.155 385.453 625.246 386.156 625.246ZM416.527 606.477C416.866 606.477 417.217 606.49 417.582 606.516C417.947 606.529 418.292 606.561 418.617 606.613C418.956 606.652 419.262 606.704 419.535 606.77C419.822 606.835 420.056 606.906 420.238 606.984L419.75 610.52C419.047 610.363 418.376 610.253 417.738 610.188C417.113 610.109 416.456 610.07 415.766 610.07C414.073 610.07 412.699 610.454 411.645 611.223C410.603 611.991 409.835 613.065 409.34 614.445V628H405.707V606.867H409.145L409.32 610.227C410.18 609.068 411.208 608.156 412.406 607.492C413.617 606.815 414.991 606.477 416.527 606.477ZM436.039 628.391C434.555 628.391 433.188 628.137 431.938 627.629C430.701 627.121 429.639 626.411 428.754 625.5C427.868 624.589 427.178 623.508 426.684 622.258C426.189 621.008 425.941 619.647 425.941 618.176V617.355C425.941 615.65 426.215 614.126 426.762 612.785C427.309 611.431 428.031 610.292 428.93 609.367C429.841 608.43 430.87 607.714 432.016 607.219C433.174 606.724 434.359 606.477 435.57 606.477C437.094 606.477 438.422 606.743 439.555 607.277C440.701 607.798 441.651 608.527 442.406 609.465C443.161 610.389 443.721 611.483 444.086 612.746C444.464 614.009 444.652 615.376 444.652 616.848V618.469H429.555C429.594 619.432 429.776 620.337 430.102 621.184C430.44 622.03 430.896 622.772 431.469 623.41C432.055 624.035 432.751 624.53 433.559 624.895C434.366 625.259 435.258 625.441 436.234 625.441C437.523 625.441 438.669 625.181 439.672 624.66C440.674 624.139 441.508 623.449 442.172 622.59L444.379 624.309C444.027 624.842 443.585 625.357 443.051 625.852C442.53 626.333 441.924 626.763 441.234 627.141C440.544 627.518 439.763 627.818 438.891 628.039C438.018 628.273 437.068 628.391 436.039 628.391ZM435.57 609.445C434.841 609.445 434.151 609.582 433.5 609.855C432.849 610.116 432.263 610.507 431.742 611.027C431.221 611.535 430.779 612.167 430.414 612.922C430.062 613.664 429.815 614.523 429.672 615.5H441.039V615.227C441 614.523 440.863 613.827 440.629 613.137C440.408 612.447 440.076 611.828 439.633 611.281C439.19 610.734 438.63 610.292 437.953 609.953C437.289 609.615 436.495 609.445 435.57 609.445Z" fill="#333333"/>
<circle cx="38" cy="618" r="38" fill="#6002EE"/>
</svg>
