<svg width="1000" height="500" viewBox="0 0 1000 500" fill="none" xmlns="http://www.w3.org/2000/svg">
<path d="M683.038 57.42C682.664 57.431 682.291 57.3654 681.943 57.2271C681.594 57.0888 681.278 56.8807 681.013 56.6157C680.748 56.3507 680.54 56.0343 680.401 55.6859C680.263 55.3376 680.197 54.9646 680.208 54.59V22.59H687.208V51.59H702.668V57.44L683.038 57.42ZM723.648 57.42V22.58H730.648V57.42H723.648ZM777.968 22.59H784.358V55.51C784.356 55.847 784.262 56.1769 784.085 56.4642C783.909 56.7514 783.658 56.9851 783.358 57.14C782.594 57.5712 781.725 57.7824 780.848 57.75C779.973 57.792 779.099 57.6418 778.288 57.31C777.613 56.952 777.036 56.4335 776.608 55.8L761.208 34V57.42H754.718V25.17C754.689 24.7632 754.765 24.3558 754.94 23.9876C755.116 23.6194 755.384 23.3031 755.718 23.07C756.525 22.5831 757.458 22.3465 758.398 22.39C759.373 22.3346 760.344 22.5454 761.208 23C762.049 23.6469 762.767 24.4394 763.328 25.34L777.918 45.73L777.968 22.59ZM831.558 28.49H815.558V36.73H829.998V42.63H815.498V51.46H831.108V57.46H808.478V25.46C808.472 25.0828 808.547 24.7087 808.699 24.3634C808.851 24.0182 809.076 23.7099 809.358 23.46C809.934 22.943 810.685 22.6642 811.458 22.68H831.558V28.49ZM875.778 57.42L872.848 48.79H860.108L857.208 57.42H849.938L861.748 25.18C862.415 23.3266 863.992 22.4 866.478 22.4C868.965 22.4 870.542 23.34 871.208 25.22L883.008 57.42H875.778ZM862.108 42.88H870.838L866.458 30L862.108 42.88ZM917.698 58C912.365 58 908.185 56.4066 905.158 53.22C902.132 50.0333 900.602 45.7233 900.568 40.29C900.568 34.6966 902.195 30.25 905.448 26.95C908.702 23.65 913.012 21.9833 918.378 21.95C921.527 21.8564 924.641 22.6314 927.378 24.19C929.75 25.5577 931.647 27.6159 932.818 30.09L927.208 33.09C925.522 29.6966 922.548 28 918.288 28C916.844 27.9371 915.403 28.195 914.07 28.7553C912.737 29.3155 911.545 30.164 910.578 31.24C908.658 33.4 907.698 36.35 907.698 40.09C907.698 43.83 908.592 46.7333 910.378 48.8C911.288 49.8487 912.424 50.6771 913.701 51.2228C914.978 51.7685 916.362 52.0171 917.748 51.95C920.263 52.0473 922.724 51.2021 924.648 49.58C925.522 48.8424 926.225 47.9239 926.708 46.8879C927.192 45.8519 927.444 44.7232 927.448 43.58H918.618V38H934.378V41.9C934.459 44.0526 934.084 46.1979 933.278 48.1954C932.471 50.1928 931.251 51.9971 929.698 53.49C928.095 54.996 926.209 56.1698 924.149 56.9438C922.09 57.7178 919.897 58.0768 917.698 58ZM980.208 28.49H964.208V36.73H978.648V42.63H964.208V51.46H979.818V57.46H957.138V25.46C957.132 25.0828 957.207 24.7087 957.359 24.3634C957.511 24.0182 957.736 23.7099 958.018 23.46C958.594 22.943 959.345 22.6642 960.118 22.68H980.208V28.49Z" fill="#167C80"/>
<path d="M650.208 40C648.716 40.0003 647.243 40.3346 645.897 40.9783C644.551 41.622 643.366 42.5588 642.428 43.72L642.048 43.57C638.209 42.0509 634.248 40.8567 630.208 40C630.208 34.6957 628.101 29.6086 624.351 25.8579C620.6 22.1071 615.513 20 610.208 20C604.904 20 599.817 22.1071 596.066 25.8579C592.316 29.6086 590.208 34.6957 590.208 40L589.778 40.09C585.885 40.9242 582.065 42.0746 578.358 43.53L577.978 43.68C576.412 41.7268 574.175 40.4252 571.703 40.0278C569.231 39.6304 566.699 40.1655 564.599 41.5293C562.499 42.8931 560.98 44.9884 560.338 47.4085C559.696 49.8287 559.975 52.4012 561.122 54.627C562.269 56.8527 564.203 58.573 566.546 59.454C568.89 60.335 571.478 60.3139 573.807 59.3949C576.136 58.4758 578.041 56.7243 579.152 54.4802C580.263 52.2361 580.5 49.6594 579.818 47.25C583.324 45.8748 586.936 44.7879 590.618 44C591.546 48.5105 594.002 52.5626 597.571 55.4724C601.14 58.3821 605.604 59.9711 610.208 59.9711C614.813 59.9711 619.277 58.3821 622.846 55.4724C626.415 52.5626 628.871 48.5105 629.798 44C633.474 44.786 637.079 45.8696 640.578 47.24C640 49.2548 640.069 51.4005 640.776 53.3739C641.484 55.3472 642.793 57.0484 644.52 58.237C646.247 59.4257 648.303 60.0416 650.399 59.9978C652.495 59.954 654.524 59.2527 656.199 57.993C657.875 56.7333 659.112 54.9789 659.736 52.9777C660.361 50.9766 660.34 48.8298 659.678 46.8409C659.016 44.852 657.745 43.1215 656.046 41.8939C654.347 40.6664 652.305 40.0039 650.208 40ZM570.208 56C569.022 56 567.862 55.6481 566.875 54.9888C565.888 54.3295 565.119 53.3925 564.665 52.2961C564.211 51.1997 564.092 49.9933 564.324 48.8295C564.555 47.6656 565.127 46.5965 565.966 45.7574C566.805 44.9182 567.874 44.3468 569.038 44.1153C570.202 43.8838 571.408 44.0026 572.505 44.4567C573.601 44.9109 574.538 45.6799 575.197 46.6666C575.857 47.6533 576.208 48.8133 576.208 50C576.208 51.5913 575.576 53.1174 574.451 54.2426C573.326 55.3679 571.8 56 570.208 56ZM610.208 56C607.044 56 603.951 55.0616 601.319 53.3035C598.688 51.5454 596.637 49.0466 595.426 46.1229C594.215 43.1993 593.899 39.9823 594.516 36.8786C595.133 33.7749 596.657 30.9239 598.895 28.6863C601.132 26.4487 603.983 24.9248 607.087 24.3074C610.191 23.6901 613.408 24.0069 616.331 25.2179C619.255 26.4289 621.754 28.4797 623.512 31.1109C625.27 33.7421 626.208 36.8355 626.208 40C626.208 44.2435 624.523 48.3131 621.522 51.3137C618.522 54.3143 614.452 56 610.208 56ZM650.208 56C649.022 56 647.862 55.6481 646.875 54.9888C645.888 54.3295 645.119 53.3925 644.665 52.2961C644.211 51.1997 644.092 49.9933 644.324 48.8295C644.555 47.6656 645.127 46.5965 645.966 45.7574C646.805 44.9182 647.874 44.3468 649.038 44.1153C650.202 43.8838 651.408 44.0026 652.505 44.4567C653.601 44.9109 654.538 45.6799 655.197 46.6666C655.857 47.6533 656.208 48.8133 656.208 50C656.208 51.5913 655.576 53.1174 654.451 54.2426C653.326 55.3679 651.8 56 650.208 56ZM618.208 40C618.208 41.5823 617.739 43.129 616.86 44.4446C615.981 45.7602 614.732 46.7855 613.27 47.391C611.808 47.9965 610.2 48.155 608.648 47.8463C607.096 47.5376 605.67 46.7757 604.552 45.6569C603.433 44.538 602.671 43.1126 602.362 41.5607C602.054 40.0089 602.212 38.4003 602.817 36.9385C603.423 35.4767 604.448 34.2273 605.764 33.3482C607.08 32.4692 608.626 32 610.208 32C612.33 32 614.365 32.8429 615.865 34.3431C617.366 35.8434 618.208 37.8783 618.208 40Z" fill="#167C80"/>
<path d="M200.2 272.733L183.267 270.8C179.2 270.333 175.2 271.733 172.333 274.6L160.067 286.867C141.2 277.267 125.733 261.867 116.133 242.933L128.467 230.6C131.333 227.733 132.733 223.733 132.267 219.667L130.333 202.867C129.533 196.133 123.867 191.067 117.067 191.067H105.533C98 191.067 91.7334 197.333 92.2 204.867C95.7334 261.8 141.267 307.267 198.133 310.8C205.667 311.267 211.933 305 211.933 297.467V285.933C212 279.2 206.933 273.533 200.2 272.733Z" fill="#167C80"/>
<path d="M439.641 235.367H423.82V281H417.492V235.367H401.672V229.812H439.641V235.367ZM465.164 281.703C462.492 281.703 460.031 281.246 457.781 280.332C455.555 279.418 453.645 278.141 452.051 276.5C450.457 274.859 449.215 272.914 448.324 270.664C447.434 268.414 446.988 265.965 446.988 263.316V261.84C446.988 258.77 447.48 256.027 448.465 253.613C449.449 251.176 450.75 249.125 452.367 247.461C454.008 245.773 455.859 244.484 457.922 243.594C460.008 242.703 462.141 242.258 464.32 242.258C467.062 242.258 469.453 242.738 471.492 243.699C473.555 244.637 475.266 245.949 476.625 247.637C477.984 249.301 478.992 251.27 479.648 253.543C480.328 255.816 480.668 258.277 480.668 260.926V263.844H453.492C453.562 265.578 453.891 267.207 454.477 268.73C455.086 270.254 455.906 271.59 456.938 272.738C457.992 273.863 459.246 274.754 460.699 275.41C462.152 276.066 463.758 276.395 465.516 276.395C467.836 276.395 469.898 275.926 471.703 274.988C473.508 274.051 475.008 272.809 476.203 271.262L480.176 274.355C479.543 275.316 478.746 276.242 477.785 277.133C476.848 278 475.758 278.773 474.516 279.453C473.273 280.133 471.867 280.672 470.297 281.07C468.727 281.492 467.016 281.703 465.164 281.703ZM464.32 247.602C463.008 247.602 461.766 247.848 460.594 248.34C459.422 248.809 458.367 249.512 457.43 250.449C456.492 251.363 455.695 252.5 455.039 253.859C454.406 255.195 453.961 256.742 453.703 258.5H474.164V258.008C474.094 256.742 473.848 255.488 473.426 254.246C473.027 253.004 472.43 251.891 471.633 250.906C470.836 249.922 469.828 249.125 468.609 248.516C467.414 247.906 465.984 247.602 464.32 247.602ZM492.621 227H512.062V275.375H524.473V281H492.621V275.375H505.559V232.66H492.621V227ZM551.648 281.703C548.977 281.703 546.516 281.246 544.266 280.332C542.039 279.418 540.129 278.141 538.535 276.5C536.941 274.859 535.699 272.914 534.809 270.664C533.918 268.414 533.473 265.965 533.473 263.316V261.84C533.473 258.77 533.965 256.027 534.949 253.613C535.934 251.176 537.234 249.125 538.852 247.461C540.492 245.773 542.344 244.484 544.406 243.594C546.492 242.703 548.625 242.258 550.805 242.258C553.547 242.258 555.938 242.738 557.977 243.699C560.039 244.637 561.75 245.949 563.109 247.637C564.469 249.301 565.477 251.27 566.133 253.543C566.812 255.816 567.152 258.277 567.152 260.926V263.844H539.977C540.047 265.578 540.375 267.207 540.961 268.73C541.57 270.254 542.391 271.59 543.422 272.738C544.477 273.863 545.73 274.754 547.184 275.41C548.637 276.066 550.242 276.395 552 276.395C554.32 276.395 556.383 275.926 558.188 274.988C559.992 274.051 561.492 272.809 562.688 271.262L566.66 274.355C566.027 275.316 565.23 276.242 564.27 277.133C563.332 278 562.242 278.773 561 279.453C559.758 280.133 558.352 280.672 556.781 281.07C555.211 281.492 553.5 281.703 551.648 281.703ZM550.805 247.602C549.492 247.602 548.25 247.848 547.078 248.34C545.906 248.809 544.852 249.512 543.914 250.449C542.977 251.363 542.18 252.5 541.523 253.859C540.891 255.195 540.445 256.742 540.188 258.5H560.648V258.008C560.578 256.742 560.332 255.488 559.91 254.246C559.512 253.004 558.914 251.891 558.117 250.906C557.32 249.922 556.312 249.125 555.094 248.516C553.898 247.906 552.469 247.602 550.805 247.602ZM610.184 262.402C610.184 265.121 609.855 267.664 609.199 270.031C608.543 272.375 607.582 274.414 606.316 276.148C605.051 277.883 603.48 279.242 601.605 280.227C599.754 281.211 597.633 281.703 595.242 281.703C592.922 281.703 590.871 281.328 589.09 280.578C587.332 279.828 585.82 278.75 584.555 277.344V295.625H578.051V242.961H583.992L584.309 247.109C585.574 245.539 587.098 244.344 588.879 243.523C590.684 242.68 592.77 242.258 595.137 242.258C597.574 242.258 599.73 242.738 601.605 243.699C603.48 244.66 605.051 245.996 606.316 247.707C607.582 249.418 608.543 251.469 609.199 253.859C609.855 256.227 610.184 258.828 610.184 261.664V262.402ZM603.68 261.664C603.68 259.812 603.469 258.055 603.047 256.391C602.648 254.703 602.016 253.227 601.148 251.961C600.305 250.672 599.227 249.652 597.914 248.902C596.602 248.152 595.031 247.777 593.203 247.777C591.117 247.777 589.359 248.27 587.93 249.254C586.523 250.215 585.398 251.457 584.555 252.98V271.297C585.398 272.797 586.523 274.027 587.93 274.988C589.336 275.926 591.117 276.395 593.273 276.395C595.078 276.395 596.637 276.02 597.949 275.27C599.262 274.496 600.34 273.465 601.184 272.176C602.027 270.887 602.648 269.398 603.047 267.711C603.469 266.023 603.68 264.254 603.68 262.402V261.664ZM627.832 248.621C629.191 246.629 630.867 245.082 632.859 243.98C634.852 242.855 637.09 242.281 639.574 242.258C641.566 242.258 643.371 242.551 644.988 243.137C646.629 243.699 648.023 244.59 649.172 245.809C650.32 247.027 651.199 248.574 651.809 250.449C652.441 252.301 652.758 254.504 652.758 257.059V281H646.254V256.988C646.254 253.871 645.504 251.551 644.004 250.027C642.527 248.504 640.406 247.754 637.641 247.777C635.555 247.777 633.656 248.293 631.945 249.324C630.258 250.332 628.887 251.68 627.832 253.367V281H621.328V227H627.832V248.621ZM662.742 261.629C662.742 258.887 663.141 256.344 663.938 254C664.734 251.633 665.871 249.582 667.348 247.848C668.848 246.113 670.664 244.754 672.797 243.77C674.93 242.762 677.332 242.258 680.004 242.258C682.699 242.258 685.113 242.762 687.246 243.77C689.402 244.754 691.219 246.113 692.695 247.848C694.195 249.582 695.344 251.633 696.141 254C696.938 256.344 697.336 258.887 697.336 261.629V262.402C697.336 265.145 696.938 267.688 696.141 270.031C695.344 272.375 694.195 274.414 692.695 276.148C691.219 277.883 689.414 279.242 687.281 280.227C685.148 281.211 682.746 281.703 680.074 281.703C677.379 281.703 674.953 281.211 672.797 280.227C670.664 279.242 668.848 277.883 667.348 276.148C665.871 274.414 664.734 272.375 663.938 270.031C663.141 267.688 662.742 265.145 662.742 262.402V261.629ZM669.246 262.402C669.246 264.277 669.469 266.07 669.914 267.781C670.359 269.469 671.027 270.957 671.918 272.246C672.832 273.535 673.969 274.555 675.328 275.305C676.688 276.055 678.27 276.43 680.074 276.43C681.855 276.43 683.414 276.055 684.75 275.305C686.109 274.555 687.234 273.535 688.125 272.246C689.039 270.957 689.719 269.469 690.164 267.781C690.609 266.07 690.832 264.277 690.832 262.402V261.629C690.832 259.777 690.598 258.008 690.129 256.32C689.684 254.609 689.004 253.109 688.09 251.82C687.199 250.531 686.074 249.512 684.715 248.762C683.379 247.988 681.809 247.602 680.004 247.602C678.199 247.602 676.629 247.988 675.293 248.762C673.957 249.512 672.832 250.531 671.918 251.82C671.027 253.109 670.359 254.609 669.914 256.32C669.469 258.008 669.246 259.777 669.246 261.629V262.402ZM713.648 242.961L714.105 248.586C715.488 246.617 717.188 245.082 719.203 243.98C721.219 242.855 723.469 242.281 725.953 242.258C727.945 242.258 729.75 242.539 731.367 243.102C733.008 243.664 734.402 244.543 735.551 245.738C736.699 246.934 737.578 248.457 738.188 250.309C738.82 252.137 739.137 254.316 739.137 256.848V281H732.633V256.988C732.633 255.301 732.445 253.871 732.07 252.699C731.695 251.527 731.133 250.578 730.383 249.852C729.656 249.125 728.754 248.598 727.676 248.27C726.621 247.941 725.402 247.777 724.02 247.777C721.84 247.777 719.918 248.328 718.254 249.43C716.613 250.508 715.301 251.938 714.316 253.719V281H707.812V242.961H713.648ZM765.047 267.5L766.734 272.105L778.336 242.961H785.613L766.312 286.871C765.867 287.855 765.293 288.898 764.59 290C763.91 291.102 763.078 292.121 762.094 293.059C761.109 293.996 759.961 294.781 758.648 295.414C757.336 296.047 755.824 296.363 754.113 296.363C753.809 296.363 753.469 296.34 753.094 296.293C752.719 296.27 752.344 296.223 751.969 296.152C751.594 296.105 751.242 296.047 750.914 295.977C750.586 295.906 750.316 295.848 750.105 295.801L751.16 290.492C751.324 290.492 751.547 290.504 751.828 290.527C752.109 290.551 752.402 290.574 752.707 290.598C753.012 290.621 753.305 290.633 753.586 290.633C753.867 290.656 754.09 290.668 754.254 290.668C755.145 290.668 755.953 290.422 756.68 289.93C757.43 289.438 758.086 288.852 758.648 288.172C759.234 287.492 759.727 286.789 760.125 286.062C760.547 285.336 760.875 284.738 761.109 284.27L763.711 279.207L747.328 242.961H754.605L765.047 267.5Z" fill="black"/>
</svg>
