<svg width="1000" height="500" viewBox="0 0 1000 500" fill="none" xmlns="http://www.w3.org/2000/svg">
<path d="M683.038 57.42C682.664 57.431 682.291 57.3654 681.943 57.2271C681.594 57.0888 681.278 56.8807 681.013 56.6157C680.748 56.3507 680.54 56.0343 680.401 55.6859C680.263 55.3376 680.197 54.9646 680.208 54.59V22.59H687.208V51.59H702.668V57.44L683.038 57.42ZM723.648 57.42V22.58H730.648V57.42H723.648ZM777.968 22.59H784.358V55.51C784.356 55.847 784.262 56.1769 784.085 56.4642C783.909 56.7515 783.658 56.9851 783.358 57.14C782.594 57.5712 781.725 57.7824 780.848 57.75C779.973 57.792 779.099 57.6418 778.288 57.31C777.613 56.952 777.036 56.4335 776.608 55.8L761.208 34V57.42H754.718V25.17C754.689 24.7632 754.765 24.3558 754.94 23.9876C755.116 23.6194 755.384 23.3031 755.718 23.07C756.525 22.5831 757.458 22.3465 758.398 22.39C759.373 22.3346 760.344 22.5454 761.208 23C762.049 23.6469 762.767 24.4394 763.328 25.34L777.918 45.73L777.968 22.59ZM831.558 28.49H815.558V36.73H829.998V42.63H815.498V51.46H831.108V57.46H808.478V25.46C808.472 25.0828 808.547 24.7087 808.699 24.3634C808.851 24.0182 809.076 23.7099 809.358 23.46C809.934 22.943 810.685 22.6642 811.458 22.68H831.558V28.49ZM875.778 57.42L872.848 48.79H860.108L857.208 57.42H849.938L861.748 25.18C862.415 23.3266 863.992 22.4 866.478 22.4C868.965 22.4 870.542 23.34 871.208 25.22L883.008 57.42H875.778ZM862.108 42.88H870.838L866.458 30L862.108 42.88ZM917.698 58C912.365 58 908.185 56.4066 905.158 53.22C902.132 50.0333 900.602 45.7233 900.568 40.29C900.568 34.6966 902.195 30.25 905.448 26.95C908.702 23.65 913.012 21.9833 918.378 21.95C921.527 21.8564 924.641 22.6314 927.378 24.19C929.75 25.5577 931.647 27.6159 932.818 30.09L927.208 33.09C925.522 29.6966 922.548 28 918.288 28C916.844 27.9371 915.403 28.195 914.07 28.7553C912.737 29.3155 911.545 30.164 910.578 31.24C908.658 33.4 907.698 36.35 907.698 40.09C907.698 43.83 908.592 46.7333 910.378 48.8C911.288 49.8487 912.424 50.6771 913.701 51.2228C914.978 51.7685 916.362 52.0171 917.748 51.95C920.263 52.0473 922.724 51.2021 924.648 49.58C925.522 48.8424 926.225 47.9239 926.708 46.8879C927.192 45.8519 927.444 44.7232 927.448 43.58H918.618V38H934.378V41.9C934.459 44.0526 934.084 46.1979 933.278 48.1954C932.471 50.1928 931.251 51.9971 929.698 53.49C928.095 54.996 926.209 56.1698 924.149 56.9438C922.09 57.7178 919.897 58.0768 917.698 58ZM980.208 28.49H964.208V36.73H978.648V42.63H964.208V51.46H979.818V57.46H957.138V25.46C957.132 25.0828 957.207 24.7087 957.359 24.3634C957.511 24.0182 957.736 23.7099 958.018 23.46C958.594 22.943 959.345 22.6642 960.118 22.68H980.208V28.49Z" fill="#167C80"/>
<path d="M650.208 40C648.716 40.0003 647.243 40.3346 645.897 40.9783C644.551 41.622 643.366 42.5588 642.428 43.72L642.048 43.57C638.209 42.0509 634.248 40.8567 630.208 40C630.208 40 630.208 40 630.208 40C630.208 34.6957 628.101 29.6086 624.351 25.8579C620.6 22.1071 615.513 20 610.208 20C604.904 20 599.817 22.1071 596.066 25.8579C592.316 29.6086 590.208 34.6957 590.208 40L589.778 40.09C585.885 40.9242 582.065 42.0746 578.358 43.53L577.978 43.68C576.412 41.7268 574.175 40.4252 571.703 40.0278C569.231 39.6304 566.699 40.1655 564.599 41.5293C562.499 42.8931 560.98 44.9884 560.338 47.4085C559.696 49.8287 559.975 52.4012 561.122 54.627C562.269 56.8527 564.203 58.573 566.546 59.454C568.89 60.335 571.478 60.3139 573.807 59.3949C576.136 58.4758 578.041 56.7243 579.152 54.4802C580.263 52.2361 580.5 49.6594 579.818 47.25V47.25C583.324 45.8748 586.936 44.7879 590.618 44C591.546 48.5105 594.002 52.5626 597.571 55.4724C601.14 58.3821 605.604 59.9711 610.208 59.9711C614.813 59.9711 619.277 58.3821 622.846 55.4724C626.415 52.5626 628.871 48.5105 629.798 44C633.474 44.786 637.079 45.8696 640.578 47.24V47.24C640 49.2548 640.069 51.4005 640.776 53.3739C641.484 55.3472 642.793 57.0484 644.52 58.237C646.247 59.4257 648.303 60.0416 650.399 59.9978C652.495 59.954 654.524 59.2527 656.199 57.993C657.875 56.7333 659.112 54.9789 659.736 52.9777C660.361 50.9766 660.34 48.8298 659.678 46.8409C659.016 44.852 657.745 43.1215 656.046 41.8939C654.347 40.6664 652.305 40.0039 650.208 40V40ZM570.208 56C569.022 56 567.862 55.6481 566.875 54.9888C565.888 54.3295 565.119 53.3925 564.665 52.2961C564.211 51.1997 564.092 49.9933 564.324 48.8295C564.555 47.6656 565.127 46.5965 565.966 45.7574C566.805 44.9182 567.874 44.3468 569.038 44.1153C570.202 43.8838 571.408 44.0026 572.505 44.4567C573.601 44.9109 574.538 45.6799 575.197 46.6666C575.857 47.6533 576.208 48.8133 576.208 50C576.208 51.5913 575.576 53.1174 574.451 54.2426C573.326 55.3679 571.8 56 570.208 56V56ZM610.208 56C607.044 56 603.951 55.0616 601.319 53.3035C598.688 51.5454 596.637 49.0466 595.426 46.1229C594.215 43.1993 593.899 39.9823 594.516 36.8786C595.133 33.7749 596.657 30.9239 598.895 28.6863C601.132 26.4487 603.983 24.9248 607.087 24.3074C610.191 23.6901 613.408 24.0069 616.331 25.2179C619.255 26.4289 621.754 28.4797 623.512 31.1109C625.27 33.7421 626.208 36.8355 626.208 40C626.208 44.2435 624.523 48.3131 621.522 51.3137C618.522 54.3143 614.452 56 610.208 56ZM650.208 56C649.022 56 647.862 55.6481 646.875 54.9888C645.888 54.3295 645.119 53.3925 644.665 52.2961C644.211 51.1997 644.092 49.9933 644.324 48.8295C644.555 47.6656 645.127 46.5965 645.966 45.7574C646.805 44.9182 647.874 44.3468 649.038 44.1153C650.202 43.8838 651.408 44.0026 652.505 44.4567C653.601 44.9109 654.538 45.6799 655.197 46.6666C655.857 47.6533 656.208 48.8133 656.208 50C656.208 51.5913 655.576 53.1174 654.451 54.2426C653.326 55.3679 651.8 56 650.208 56ZM618.208 40C618.208 41.5823 617.739 43.129 616.86 44.4446C615.981 45.7602 614.732 46.7855 613.27 47.391C611.808 47.9965 610.2 48.155 608.648 47.8463C607.096 47.5376 605.67 46.7757 604.552 45.6569C603.433 44.538 602.671 43.1126 602.362 41.5607C602.054 40.0089 602.212 38.4003 602.817 36.9385C603.423 35.4767 604.448 34.2273 605.764 33.3482C607.08 32.4692 608.626 32 610.208 32C612.33 32 614.365 32.8429 615.865 34.3431C617.366 35.8434 618.208 37.8783 618.208 40Z" fill="#167C80"/>
<path d="M437.867 225.691C437.844 227.59 437.68 229.5 437.375 231.422C437.07 233.344 436.602 235.195 435.969 236.977C435.359 238.758 434.562 240.434 433.578 242.004C432.617 243.551 431.457 244.898 430.098 246.047L438.922 253.395L434.457 257.648L424.332 249.07C422.879 249.492 421.309 249.703 419.621 249.703C417.441 249.703 415.484 249.375 413.75 248.719C412.016 248.039 410.469 247.125 409.109 245.977C407.773 244.828 406.613 243.48 405.629 241.934C404.645 240.363 403.836 238.688 403.203 236.906C402.57 235.125 402.102 233.285 401.797 231.387C401.492 229.465 401.328 227.566 401.305 225.691V221.191C401.328 219.316 401.492 217.418 401.797 215.496C402.102 213.574 402.57 211.723 403.203 209.941C403.836 208.16 404.633 206.496 405.594 204.949C406.555 203.379 407.703 202.02 409.039 200.871C410.398 199.699 411.945 198.785 413.68 198.129C415.438 197.449 417.406 197.109 419.586 197.109C421.766 197.109 423.723 197.449 425.457 198.129C427.215 198.785 428.762 199.688 430.098 200.836C431.457 201.984 432.617 203.344 433.578 204.914C434.562 206.461 435.359 208.125 435.969 209.906C436.602 211.688 437.07 213.551 437.375 215.496C437.68 217.418 437.844 219.316 437.867 221.191V225.691ZM431.398 221.121C431.375 219.832 431.293 218.496 431.152 217.113C431.035 215.707 430.801 214.336 430.449 213C430.121 211.641 429.664 210.352 429.078 209.133C428.516 207.914 427.801 206.848 426.934 205.934C426.066 204.996 425.023 204.258 423.805 203.719C422.609 203.18 421.203 202.91 419.586 202.91C417.992 202.91 416.598 203.191 415.402 203.754C414.207 204.293 413.176 205.031 412.309 205.969C411.441 206.883 410.715 207.949 410.129 209.168C409.566 210.387 409.109 211.676 408.758 213.035C408.406 214.371 408.148 215.742 407.984 217.148C407.844 218.531 407.773 219.855 407.773 221.121V225.691C407.773 226.957 407.844 228.293 407.984 229.699C408.148 231.082 408.406 232.453 408.758 233.812C409.109 235.172 409.566 236.461 410.129 237.68C410.715 238.898 411.441 239.977 412.309 240.914C413.176 241.852 414.207 242.602 415.402 243.164C416.621 243.703 418.027 243.973 419.621 243.973C421.238 243.973 422.645 243.703 423.84 243.164C425.059 242.602 426.102 241.863 426.969 240.949C427.836 240.012 428.551 238.934 429.113 237.715C429.676 236.496 430.121 235.207 430.449 233.848C430.801 232.488 431.035 231.117 431.152 229.734C431.293 228.328 431.375 226.98 431.398 225.691V221.121ZM463.566 244.43C464.738 244.43 465.875 244.242 466.977 243.867C468.102 243.492 469.098 242.977 469.965 242.32C470.832 241.641 471.523 240.855 472.039 239.965C472.578 239.051 472.859 238.066 472.883 237.012H479.035C479.012 238.699 478.566 240.316 477.699 241.863C476.855 243.387 475.719 244.734 474.289 245.906C472.859 247.055 471.219 247.98 469.367 248.684C467.516 249.363 465.582 249.703 463.566 249.703C460.684 249.703 458.164 249.188 456.008 248.156C453.852 247.125 452.047 245.742 450.594 244.008C449.164 242.25 448.086 240.234 447.359 237.961C446.633 235.664 446.27 233.25 446.27 230.719V229.242C446.27 226.734 446.633 224.332 447.359 222.035C448.086 219.738 449.164 217.723 450.594 215.988C452.047 214.23 453.852 212.836 456.008 211.805C458.164 210.773 460.684 210.258 463.566 210.258C465.816 210.258 467.879 210.621 469.754 211.348C471.652 212.051 473.281 213.023 474.641 214.266C476.023 215.484 477.102 216.938 477.875 218.625C478.648 220.312 479.035 222.117 479.035 224.039H472.883C472.859 222.891 472.602 221.812 472.109 220.805C471.641 219.773 470.996 218.871 470.176 218.098C469.355 217.324 468.371 216.715 467.223 216.27C466.098 215.824 464.879 215.602 463.566 215.602C461.551 215.602 459.852 216.012 458.469 216.832C457.109 217.629 456.008 218.684 455.164 219.996C454.32 221.285 453.711 222.738 453.336 224.355C452.984 225.973 452.809 227.602 452.809 229.242V230.719C452.809 232.383 452.984 234.035 453.336 235.676C453.711 237.293 454.309 238.758 455.129 240.07C455.973 241.359 457.074 242.414 458.434 243.234C459.816 244.031 461.527 244.43 463.566 244.43ZM488.773 229.629C488.773 226.887 489.172 224.344 489.969 222C490.766 219.633 491.902 217.582 493.379 215.848C494.879 214.113 496.695 212.754 498.828 211.77C500.961 210.762 503.363 210.258 506.035 210.258C508.73 210.258 511.145 210.762 513.277 211.77C515.434 212.754 517.25 214.113 518.727 215.848C520.227 217.582 521.375 219.633 522.172 222C522.969 224.344 523.367 226.887 523.367 229.629V230.402C523.367 233.145 522.969 235.688 522.172 238.031C521.375 240.375 520.227 242.414 518.727 244.148C517.25 245.883 515.445 247.242 513.312 248.227C511.18 249.211 508.777 249.703 506.105 249.703C503.41 249.703 500.984 249.211 498.828 248.227C496.695 247.242 494.879 245.883 493.379 244.148C491.902 242.414 490.766 240.375 489.969 238.031C489.172 235.688 488.773 233.145 488.773 230.402V229.629ZM495.277 230.402C495.277 232.277 495.5 234.07 495.945 235.781C496.391 237.469 497.059 238.957 497.949 240.246C498.863 241.535 500 242.555 501.359 243.305C502.719 244.055 504.301 244.43 506.105 244.43C507.887 244.43 509.445 244.055 510.781 243.305C512.141 242.555 513.266 241.535 514.156 240.246C515.07 238.957 515.75 237.469 516.195 235.781C516.641 234.07 516.863 232.277 516.863 230.402V229.629C516.863 227.777 516.629 226.008 516.16 224.32C515.715 222.609 515.035 221.109 514.121 219.82C513.23 218.531 512.105 217.512 510.746 216.762C509.41 215.988 507.84 215.602 506.035 215.602C504.23 215.602 502.66 215.988 501.324 216.762C499.988 217.512 498.863 218.531 497.949 219.82C497.059 221.109 496.391 222.609 495.945 224.32C495.5 226.008 495.277 227.777 495.277 229.629V230.402ZM536.832 210.961L537.008 214.547C537.781 213.211 538.789 212.168 540.031 211.418C541.297 210.668 542.82 210.281 544.602 210.258C548.094 210.258 550.426 211.617 551.598 214.336C552.348 213.117 553.332 212.145 554.551 211.418C555.793 210.668 557.293 210.281 559.051 210.258C561.84 210.258 563.984 211.113 565.484 212.824C566.984 214.535 567.734 217.125 567.734 220.594V249H561.547V220.523C561.547 217.336 560.082 215.754 557.152 215.777C556.379 215.777 555.711 215.883 555.148 216.094C554.586 216.305 554.117 216.598 553.742 216.973C553.367 217.324 553.074 217.746 552.863 218.238C552.652 218.707 552.512 219.199 552.441 219.715V249H546.254V220.488C546.254 218.965 545.914 217.793 545.234 216.973C544.555 216.152 543.477 215.754 542 215.777C540.641 215.777 539.586 216.047 538.836 216.586C538.086 217.125 537.535 217.84 537.184 218.73V249H530.996V210.961H536.832ZM596.844 199.395C596.844 200.496 596.703 201.656 596.422 202.875C596.164 204.094 595.766 205.301 595.227 206.496C594.711 207.668 594.078 208.793 593.328 209.871C592.578 210.949 591.711 211.91 590.727 212.754L587.176 210.223C588.277 208.559 589.098 206.859 589.637 205.125C590.199 203.391 590.48 201.516 590.48 199.5V194.227H596.844V199.395ZM645.605 238.91C645.605 238.137 645.453 237.445 645.148 236.836C644.844 236.203 644.328 235.629 643.602 235.113C642.875 234.598 641.914 234.129 640.719 233.707C639.523 233.262 638.035 232.863 636.254 232.512C634.074 232.066 632.082 231.527 630.277 230.895C628.496 230.262 626.961 229.512 625.672 228.645C624.406 227.754 623.422 226.723 622.719 225.551C622.016 224.355 621.664 222.973 621.664 221.402C621.664 219.855 622.027 218.414 622.754 217.078C623.48 215.719 624.5 214.535 625.812 213.527C627.125 212.52 628.684 211.723 630.488 211.137C632.316 210.551 634.32 210.258 636.5 210.258C638.844 210.258 640.953 210.562 642.828 211.172C644.703 211.781 646.297 212.625 647.609 213.703C648.922 214.781 649.93 216.047 650.633 217.5C651.359 218.93 651.723 220.477 651.723 222.141H645.219C645.219 221.32 645.008 220.523 644.586 219.75C644.164 218.953 643.578 218.25 642.828 217.641C642.078 217.031 641.164 216.539 640.086 216.164C639.031 215.789 637.836 215.602 636.5 215.602C635.117 215.602 633.898 215.754 632.844 216.059C631.812 216.363 630.945 216.773 630.242 217.289C629.562 217.805 629.047 218.402 628.695 219.082C628.344 219.762 628.168 220.465 628.168 221.191C628.168 221.941 628.309 222.609 628.59 223.195C628.871 223.781 629.352 224.309 630.031 224.777C630.734 225.246 631.66 225.668 632.809 226.043C633.98 226.418 635.457 226.781 637.238 227.133C639.582 227.625 641.68 228.199 643.531 228.855C645.383 229.488 646.941 230.262 648.207 231.176C649.473 232.066 650.434 233.109 651.09 234.305C651.77 235.5 652.109 236.883 652.109 238.453C652.109 240.141 651.723 241.676 650.949 243.059C650.199 244.441 649.145 245.625 647.785 246.609C646.426 247.594 644.797 248.355 642.898 248.895C641 249.434 638.926 249.703 636.676 249.703C634.098 249.703 631.801 249.363 629.785 248.684C627.77 247.98 626.059 247.066 624.652 245.941C623.27 244.793 622.203 243.469 621.453 241.969C620.727 240.469 620.363 238.91 620.363 237.293H626.867C626.961 238.629 627.312 239.754 627.922 240.668C628.555 241.582 629.328 242.32 630.242 242.883C631.18 243.445 632.211 243.844 633.336 244.078C634.461 244.312 635.574 244.43 636.676 244.43C639.418 244.43 641.586 243.926 643.18 242.918C644.773 241.91 645.582 240.574 645.605 238.91ZM739.965 233.602C739.66 235.969 739.051 238.148 738.137 240.141C737.223 242.109 736.027 243.809 734.551 245.238C733.098 246.645 731.363 247.746 729.348 248.543C727.355 249.316 725.129 249.703 722.668 249.703C720.559 249.703 718.637 249.41 716.902 248.824C715.191 248.215 713.656 247.383 712.297 246.328C710.961 245.273 709.801 244.031 708.816 242.602C707.855 241.172 707.047 239.613 706.391 237.926C705.758 236.238 705.277 234.469 704.949 232.617C704.645 230.766 704.48 228.891 704.457 226.992V219.855C704.48 217.957 704.645 216.082 704.949 214.23C705.277 212.379 705.758 210.609 706.391 208.922C707.047 207.234 707.855 205.676 708.816 204.246C709.801 202.793 710.961 201.539 712.297 200.484C713.656 199.43 715.191 198.609 716.902 198.023C718.613 197.414 720.535 197.109 722.668 197.109C725.223 197.109 727.508 197.508 729.523 198.305C731.539 199.078 733.273 200.191 734.727 201.645C736.18 203.074 737.34 204.797 738.207 206.812C739.098 208.828 739.684 211.055 739.965 213.492H733.461C733.25 211.945 732.887 210.504 732.371 209.168C731.855 207.832 731.164 206.66 730.297 205.652C729.43 204.645 728.363 203.859 727.098 203.297C725.855 202.711 724.379 202.418 722.668 202.418C721.121 202.418 719.75 202.676 718.555 203.191C717.383 203.684 716.363 204.363 715.496 205.23C714.652 206.098 713.938 207.105 713.352 208.254C712.789 209.402 712.332 210.621 711.98 211.91C711.629 213.199 711.371 214.523 711.207 215.883C711.066 217.219 710.996 218.52 710.996 219.785V226.992C710.996 228.258 711.066 229.57 711.207 230.93C711.371 232.266 711.629 233.59 711.98 234.902C712.332 236.191 712.789 237.41 713.352 238.559C713.914 239.707 714.629 240.727 715.496 241.617C716.363 242.484 717.383 243.176 718.555 243.691C719.727 244.184 721.098 244.43 722.668 244.43C724.379 244.43 725.855 244.16 727.098 243.621C728.363 243.082 729.43 242.332 730.297 241.371C731.164 240.387 731.855 239.238 732.371 237.926C732.887 236.59 733.25 235.148 733.461 233.602H739.965ZM756.559 216.621C757.918 214.629 759.594 213.082 761.586 211.98C763.578 210.855 765.816 210.281 768.301 210.258C770.293 210.258 772.098 210.551 773.715 211.137C775.355 211.699 776.75 212.59 777.898 213.809C779.047 215.027 779.926 216.574 780.535 218.449C781.168 220.301 781.484 222.504 781.484 225.059V249H774.98V224.988C774.98 221.871 774.23 219.551 772.73 218.027C771.254 216.504 769.133 215.754 766.367 215.777C764.281 215.777 762.383 216.293 760.672 217.324C758.984 218.332 757.613 219.68 756.559 221.367V249H750.055V195H756.559V216.621ZM818.293 249C818.035 248.508 817.824 247.898 817.66 247.172C817.52 246.422 817.414 245.648 817.344 244.852C816.688 245.508 815.949 246.129 815.129 246.715C814.332 247.301 813.441 247.816 812.457 248.262C811.496 248.707 810.465 249.059 809.363 249.316C808.262 249.574 807.09 249.703 805.848 249.703C803.832 249.703 802.004 249.41 800.363 248.824C798.746 248.238 797.363 247.453 796.215 246.469C795.09 245.461 794.211 244.277 793.578 242.918C792.969 241.535 792.664 240.047 792.664 238.453C792.664 236.367 793.074 234.539 793.895 232.969C794.738 231.398 795.922 230.098 797.445 229.066C798.969 228.012 800.797 227.227 802.93 226.711C805.086 226.195 807.488 225.938 810.137 225.938H817.238V222.949C817.238 221.801 817.027 220.77 816.605 219.855C816.184 218.941 815.586 218.168 814.812 217.535C814.039 216.879 813.09 216.375 811.965 216.023C810.863 215.672 809.621 215.496 808.238 215.496C806.949 215.496 805.789 215.66 804.758 215.988C803.75 216.316 802.895 216.75 802.191 217.289C801.488 217.828 800.938 218.473 800.539 219.223C800.164 219.949 799.977 220.711 799.977 221.508H793.438C793.461 220.125 793.812 218.766 794.492 217.43C795.195 216.094 796.191 214.898 797.48 213.844C798.793 212.766 800.375 211.898 802.227 211.242C804.102 210.586 806.223 210.258 808.59 210.258C810.746 210.258 812.75 210.527 814.602 211.066C816.453 211.582 818.047 212.379 819.383 213.457C820.742 214.512 821.809 215.836 822.582 217.43C823.355 219.023 823.742 220.887 823.742 223.02V240.703C823.742 241.969 823.859 243.316 824.094 244.746C824.328 246.152 824.656 247.383 825.078 248.438V249H818.293ZM806.797 244.043C808.062 244.043 809.246 243.879 810.348 243.551C811.449 243.223 812.445 242.789 813.336 242.25C814.25 241.711 815.035 241.102 815.691 240.422C816.348 239.719 816.863 238.992 817.238 238.242V230.543H811.191C807.395 230.543 804.441 231.105 802.332 232.23C800.223 233.355 799.168 235.125 799.168 237.539C799.168 238.477 799.32 239.344 799.625 240.141C799.953 240.938 800.434 241.629 801.066 242.215C801.699 242.777 802.496 243.223 803.457 243.551C804.418 243.879 805.531 244.043 806.797 244.043ZM837.559 210.961H857V243.375H869.41V249H837.559V243.375H850.496V216.621H837.559V210.961ZM849.652 200.977C849.652 199.898 849.969 198.996 850.602 198.27C851.258 197.52 852.242 197.145 853.555 197.145C854.844 197.145 855.816 197.52 856.473 198.27C857.129 198.996 857.457 199.898 857.457 200.977C857.457 202.031 857.129 202.91 856.473 203.613C855.816 204.316 854.844 204.668 853.555 204.668C852.242 204.668 851.258 204.316 850.602 203.613C849.969 202.91 849.652 202.031 849.652 200.977ZM885.617 210.961L886.074 216.586C887.457 214.617 889.156 213.082 891.172 211.98C893.188 210.855 895.438 210.281 897.922 210.258C899.914 210.258 901.719 210.539 903.336 211.102C904.977 211.664 906.371 212.543 907.52 213.738C908.668 214.934 909.547 216.457 910.156 218.309C910.789 220.137 911.105 222.316 911.105 224.848V249H904.602V224.988C904.602 223.301 904.414 221.871 904.039 220.699C903.664 219.527 903.102 218.578 902.352 217.852C901.625 217.125 900.723 216.598 899.645 216.27C898.59 215.941 897.371 215.777 895.988 215.777C893.809 215.777 891.887 216.328 890.223 217.43C888.582 218.508 887.27 219.938 886.285 221.719V249H879.781V210.961H885.617ZM402.289 313.629C402.289 310.887 402.688 308.344 403.484 306C404.281 303.633 405.418 301.582 406.895 299.848C408.395 298.113 410.211 296.754 412.344 295.77C414.477 294.762 416.879 294.258 419.551 294.258C422.246 294.258 424.66 294.762 426.793 295.77C428.949 296.754 430.766 298.113 432.242 299.848C433.742 301.582 434.891 303.633 435.688 306C436.484 308.344 436.883 310.887 436.883 313.629V314.402C436.883 317.145 436.484 319.688 435.688 322.031C434.891 324.375 433.742 326.414 432.242 328.148C430.766 329.883 428.961 331.242 426.828 332.227C424.695 333.211 422.293 333.703 419.621 333.703C416.926 333.703 414.5 333.211 412.344 332.227C410.211 331.242 408.395 329.883 406.895 328.148C405.418 326.414 404.281 324.375 403.484 322.031C402.688 319.688 402.289 317.145 402.289 314.402V313.629ZM408.793 314.402C408.793 316.277 409.016 318.07 409.461 319.781C409.906 321.469 410.574 322.957 411.465 324.246C412.379 325.535 413.516 326.555 414.875 327.305C416.234 328.055 417.816 328.43 419.621 328.43C421.402 328.43 422.961 328.055 424.297 327.305C425.656 326.555 426.781 325.535 427.672 324.246C428.586 322.957 429.266 321.469 429.711 319.781C430.156 318.07 430.379 316.277 430.379 314.402V313.629C430.379 311.777 430.145 310.008 429.676 308.32C429.23 306.609 428.551 305.109 427.637 303.82C426.746 302.531 425.621 301.512 424.262 300.762C422.926 299.988 421.355 299.602 419.551 299.602C417.746 299.602 416.176 299.988 414.84 300.762C413.504 301.512 412.379 302.531 411.465 303.82C410.574 305.109 409.906 306.609 409.461 308.32C409.016 310.008 408.793 311.777 408.793 313.629V314.402ZM457.062 333V299.988H446.586V294.961H457.062V292.289C457.062 289.852 457.414 287.719 458.117 285.891C458.844 284.039 459.852 282.492 461.141 281.25C462.453 280.008 464.023 279.07 465.852 278.438C467.68 277.805 469.719 277.488 471.969 277.488C473.516 277.488 475.016 277.617 476.469 277.875C477.945 278.133 479.457 278.461 481.004 278.859L480.23 284.238C479.27 283.91 478.145 283.629 476.855 283.395C475.59 283.137 474.23 283.008 472.777 283.008C469.73 283.031 467.434 283.805 465.887 285.328C464.363 286.852 463.602 289.172 463.602 292.289V294.961H478.262V299.988H463.602V333H457.062ZM568.367 287.367H552.547V333H546.219V287.367H530.398V281.812H568.367V287.367ZM602.012 294.258C602.621 294.258 603.254 294.281 603.91 294.328C604.566 294.352 605.188 294.41 605.773 294.504C606.383 294.574 606.934 294.668 607.426 294.785C607.941 294.902 608.363 295.031 608.691 295.172L607.812 301.535C606.547 301.254 605.34 301.055 604.191 300.938C603.066 300.797 601.883 300.727 600.641 300.727C597.594 300.727 595.121 301.418 593.223 302.801C591.348 304.184 589.965 306.117 589.074 308.602V333H582.535V294.961H588.723L589.039 301.008C590.586 298.922 592.438 297.281 594.594 296.086C596.773 294.867 599.246 294.258 602.012 294.258ZM645.008 327.762C643.742 329.637 642.16 331.102 640.262 332.156C638.363 333.188 636.172 333.703 633.688 333.703C631.695 333.703 629.891 333.398 628.273 332.789C626.656 332.156 625.273 331.184 624.125 329.871C622.977 328.559 622.086 326.895 621.453 324.879C620.844 322.84 620.539 320.402 620.539 317.566V294.961H627.043V317.637C627.043 319.699 627.207 321.41 627.535 322.77C627.863 324.129 628.355 325.219 629.012 326.039C629.668 326.836 630.465 327.398 631.402 327.727C632.363 328.055 633.465 328.219 634.707 328.219C637.355 328.219 639.488 327.68 641.105 326.602C642.746 325.523 643.965 324.07 644.762 322.242V294.961H651.301V333H645.395L645.008 327.762ZM688.848 322.91C688.848 322.137 688.695 321.445 688.391 320.836C688.086 320.203 687.57 319.629 686.844 319.113C686.117 318.598 685.156 318.129 683.961 317.707C682.766 317.262 681.277 316.863 679.496 316.512C677.316 316.066 675.324 315.527 673.52 314.895C671.738 314.262 670.203 313.512 668.914 312.645C667.648 311.754 666.664 310.723 665.961 309.551C665.258 308.355 664.906 306.973 664.906 305.402C664.906 303.855 665.27 302.414 665.996 301.078C666.723 299.719 667.742 298.535 669.055 297.527C670.367 296.52 671.926 295.723 673.73 295.137C675.559 294.551 677.562 294.258 679.742 294.258C682.086 294.258 684.195 294.562 686.07 295.172C687.945 295.781 689.539 296.625 690.852 297.703C692.164 298.781 693.172 300.047 693.875 301.5C694.602 302.93 694.965 304.477 694.965 306.141H688.461C688.461 305.32 688.25 304.523 687.828 303.75C687.406 302.953 686.82 302.25 686.07 301.641C685.32 301.031 684.406 300.539 683.328 300.164C682.273 299.789 681.078 299.602 679.742 299.602C678.359 299.602 677.141 299.754 676.086 300.059C675.055 300.363 674.188 300.773 673.484 301.289C672.805 301.805 672.289 302.402 671.938 303.082C671.586 303.762 671.41 304.465 671.41 305.191C671.41 305.941 671.551 306.609 671.832 307.195C672.113 307.781 672.594 308.309 673.273 308.777C673.977 309.246 674.902 309.668 676.051 310.043C677.223 310.418 678.699 310.781 680.48 311.133C682.824 311.625 684.922 312.199 686.773 312.855C688.625 313.488 690.184 314.262 691.449 315.176C692.715 316.066 693.676 317.109 694.332 318.305C695.012 319.5 695.352 320.883 695.352 322.453C695.352 324.141 694.965 325.676 694.191 327.059C693.441 328.441 692.387 329.625 691.027 330.609C689.668 331.594 688.039 332.355 686.141 332.895C684.242 333.434 682.168 333.703 679.918 333.703C677.34 333.703 675.043 333.363 673.027 332.684C671.012 331.98 669.301 331.066 667.895 329.941C666.512 328.793 665.445 327.469 664.695 325.969C663.969 324.469 663.605 322.91 663.605 321.293H670.109C670.203 322.629 670.555 323.754 671.164 324.668C671.797 325.582 672.57 326.32 673.484 326.883C674.422 327.445 675.453 327.844 676.578 328.078C677.703 328.312 678.816 328.43 679.918 328.43C682.66 328.43 684.828 327.926 686.422 326.918C688.016 325.91 688.824 324.574 688.848 322.91ZM722.211 285.75V294.961H736.695V299.988H722.211V320.66C722.211 322.137 722.398 323.355 722.773 324.316C723.148 325.277 723.664 326.051 724.32 326.637C724.977 327.199 725.727 327.598 726.57 327.832C727.438 328.066 728.352 328.184 729.312 328.184C730.016 328.184 730.742 328.148 731.492 328.078C732.242 327.984 732.969 327.879 733.672 327.762C734.398 327.645 735.066 327.527 735.676 327.41C736.309 327.27 736.824 327.152 737.223 327.059L738.137 331.664C737.598 331.992 736.941 332.285 736.168 332.543C735.395 332.777 734.551 332.977 733.637 333.141C732.723 333.328 731.75 333.469 730.719 333.562C729.711 333.656 728.703 333.703 727.695 333.703C726.008 333.703 724.426 333.469 722.949 333C721.496 332.508 720.23 331.746 719.152 330.715C718.074 329.66 717.219 328.312 716.586 326.672C715.977 325.008 715.672 323.004 715.672 320.66V299.988H705.688V294.961H715.672V285.75H722.211Z" fill="black"/>
<path d="M152 191C148.333 191 145.333 194 145.333 197.667V251C145.333 254.667 148.333 257.667 152 257.667C155.666 257.667 158.666 254.667 158.666 251V197.667C158.666 194 155.666 191 152 191ZM186.266 210.067C183.666 212.667 183.733 216.733 186.2 219.333C193.733 227.333 198.4 238 198.666 249.8C199.266 275.333 178.133 297.333 152.6 297.6C126.533 298 105.333 277 105.333 251C105.333 238.733 110.066 227.6 117.8 219.267C120.266 216.667 120.266 212.6 117.733 210.067C115.066 207.4 110.733 207.467 108.2 210.2C98.5329 220.467 92.4662 234.133 91.9995 249.267C91.0662 281.8 117.533 309.933 150.066 310.933C184.066 312 212 284.733 212 250.933C212 235.133 205.866 220.867 195.866 210.2C193.333 207.467 188.933 207.4 186.266 210.067Z" fill="#167C80"/>
</svg>
