<svg xmlns="http://www.w3.org/2000/svg" width="396" height="396" data-name="Layer 1">
  <path d="M0 0h396v396H0z" style="fill:#167c80;fill-opacity:1;stroke:none;stroke-width:11.4532"/>
  <path d="M318.158 196.757a29.926 29.857 0 0 0-23.334 11.126l-1.13-.449a221.491 220.985 0 0 0-35.547-10.567v-.11a60.011 59.874 0 0 0-120.023 0v.1l-1.28.279a219.69 219.189 0 0 0-34.266 10.298l-1.13.45a30.006 29.937 0 1 0 5.54 10.687 208.039 207.563 0 0 1 32.327-9.71 60.011 59.874 0 0 0 117.572 0 207.509 207.034 0 0 1 32.346 9.7 30.006 29.937 0 1 0 28.925-21.804M78.113 244.656a18.003 17.962 0 1 1 18.004-17.962 18.003 17.962 0 0 1-18.004 17.962m120.023 0a48.009 47.9 0 1 1 48.009-47.9 48.059 47.95 0 0 1-48.01 47.9m120.022 0a18.003 17.962 0 1 1 18.003-17.962 18.003 17.962 0 0 1-18.003 17.962m-96.018-47.9a24.004 23.95 0 1 1-24.004-23.949 24.004 23.95 0 0 1 24.004 23.95" style="fill:#fff;stroke-width:.999045"/>
</svg>
