<svg xmlns="http://www.w3.org/2000/svg" width="1000" height="1000"><g clip-path="url(#a)"><path fill="#167c80" d="M0 0h1000v1000H0z"/><svg xmlns="http://www.w3.org/2000/svg" xmlns:svg="http://www.w3.org/2000/svg" width="512" height="512" data-name="Layer 1" transform="scale(1.95313)" viewBox="0 0 396 396"><defs><clipPath id="a"><rect width="1000" height="1000" rx="0" ry="0"/></clipPath></defs><path d="M318.025 197.966a29.92 29.92 0 0 0-23.33 11.15l-1.13-.45a221.5 221.5 0 0 0-35.54-10.59v-.11a60 60 0 0 0-120 0v.1l-1.28.28a219.7 219.7 0 0 0-34.26 10.32l-1.13.45a30 30 0 1 0 5.54 10.71 208 208 0 0 1 32.32-9.73 60 60 0 0 0 117.55 0 207.5 207.5 0 0 1 32.34 9.72 30 30 0 1 0 28.92-21.85m-240 48a18 18 0 1 1 18-18 18 18 0 0 1-18 18m120 0a48 48 0 1 1 48-48 48.05 48.05 0 0 1-48 48m120 0a18 18 0 1 1 18-18 18 18 0 0 1-18 18m-96-48a24 24 0 1 1-24-24 24 24 0 0 1 24 24" style="fill:#fff"/></svg></g></svg>