<svg width="384" height="384" viewBox="0 0 384 384" fill="none" xmlns="http://www.w3.org/2000/svg">
<path d="M341.333 213.333V320C341.333 331.733 331.733 341.333 320 341.333H64C52.2667 341.333 42.6667 331.733 42.6667 320V213.333C42.6667 201.6 33.0667 192 21.3333 192C9.6 192 0 201.6 0 213.333V341.333C0 364.8 19.2 384 42.6667 384H341.333C364.8 384 384 364.8 384 341.333V213.333C384 201.6 374.4 192 362.667 192C350.933 192 341.333 201.6 341.333 213.333ZM213.333 206.293L253.44 166.187C261.76 157.867 275.2 157.867 283.52 166.187C291.84 174.507 291.84 187.947 283.52 196.267L206.933 272.853C198.613 281.173 185.173 281.173 176.853 272.853L100.267 196.267C91.9467 187.947 91.9467 174.507 100.267 166.187C108.587 157.867 122.027 157.867 130.347 166.187L170.667 206.293V21.3333C170.667 9.6 180.267 0 192 0C203.733 0 213.333 9.6 213.333 21.3333V206.293Z" fill="#167C80"/>
</svg>
