<svg width="180" height="180" viewBox="0 0 180 180" fill="none" xmlns="http://www.w3.org/2000/svg">
<path d="M20 0H160C171.05 0 180 8.95 180 20V90C180 139.71 139.71 180 90 180C40.29 180 0 139.71 0 90V20C0 8.95 8.95 0 20 0ZM159.02 101.68C159.94 96.24 156.27 91.08 150.82 90.16C145.38 89.25 140.22 92.92 139.3 98.37C135.28 122.25 114.5 140 90 140C65.5 140 44.72 122.26 40.69 98.38C39.78 92.94 34.62 89.27 29.17 90.18C23.73 91.1 20.05 96.26 20.97 101.71C26.61 135.17 55.7 160 90 160C124.3 160 153.39 135.16 159.02 101.68ZM80.46 26.98L61.27 82.97C60.45 85.16 60 87.53 60 90C60 101.04 68.95 110 80 110C80.1 110 80.19 110 80.29 110H100C105.5 110 110.5 107.8 114.1 104.1C117.8 100.5 120 95.5 120 90L80 89.99L84.38 77.24L99.38 33.46C99.78 32.38 100 31.21 100 30C100 24.48 95.52 20 90 20C85.53 20 81.74 22.93 80.46 26.98Z" fill="#167C80"/>
</svg>
