<svg width="180" height="180" viewBox="0 0 180 180" fill="none" xmlns="http://www.w3.org/2000/svg">
<circle cx="90" cy="90" r="88" stroke="#167C80" stroke-width="4"/>
<path d="M52.6667 48H127.333C133.227 48 138 52.7733 138 58.6667V96C138 122.512 116.512 144 90 144C63.488 144 42 122.512 42 96V58.6667C42 52.7733 46.7733 48 52.6667 48ZM126.811 102.229C127.301 99.328 125.344 96.576 122.437 96.0853C119.536 95.6 116.784 97.5573 116.293 100.464C114.149 113.2 103.067 122.667 90 122.667C76.9333 122.667 65.8507 113.205 63.7013 100.469C63.216 97.568 60.464 95.6107 57.5573 96.096C54.656 96.5867 52.6933 99.3387 53.184 102.245C56.192 120.091 71.7067 133.333 90 133.333C108.293 133.333 123.808 120.085 126.811 102.229ZM84.912 62.3893L74.6773 92.2507C74.24 93.4187 74 94.6827 74 96C74 101.888 78.7733 106.667 84.6667 106.667H95.3333C98.2667 106.667 100.933 105.493 102.853 103.52C104.827 101.6 106 98.9333 106 96L84.6667 95.9947L87.0027 89.1947L95.0027 65.8453C95.216 65.2693 95.3333 64.6453 95.3333 64C95.3333 61.056 92.944 58.6667 90 58.6667C87.616 58.6667 85.5947 60.2293 84.912 62.3893Z" fill="#167C80"/>
</svg>
