<svg width="1100" height="800" viewBox="0 0 1100 800" fill="none" xmlns="http://www.w3.org/2000/svg">
<rect x="592" y="494" width="6" height="42" fill="#C4C4C4"/>
<rect x="592" y="610" width="6" height="42" fill="#C4C4C4"/>
<rect x="83" y="495" width="6" height="160" fill="#C4C4C4"/>
<rect x="83" y="220" width="6" height="42" fill="#C4C4C4"/>
<rect x="83" y="337" width="6" height="42" fill="#C4C4C4"/>
<rect x="83" y="379" width="6" height="42" fill="#C4C4C4"/>
<rect x="83" y="104" width="6" height="42" fill="#C4C4C4"/>
<rect x="89" y="381" width="6" height="509" transform="rotate(-90 89 381)" fill="#C4C4C4"/>
<rect x="592" y="378" width="6" height="42" fill="#C4C4C4"/>
<rect x="89" y="655" width="6" height="509" transform="rotate(-90 89 655)" fill="#C4C4C4"/>
<rect x="83" y="537" width="6" height="158" fill="#C4C4C4"/>
<path d="M170.777 62.8398L177.262 48.5625H181.363L172.516 66.3945L172.457 77H169.098L169.039 66.3945L160.191 48.5625H164.312L170.777 62.8398ZM185.406 66.2383C185.406 64.7148 185.628 63.3021 186.07 62C186.513 60.6849 187.145 59.5456 187.965 58.582C188.798 57.6185 189.807 56.8633 190.992 56.3164C192.177 55.7565 193.512 55.4766 194.996 55.4766C196.493 55.4766 197.835 55.7565 199.02 56.3164C200.217 56.8633 201.227 57.6185 202.047 58.582C202.88 59.5456 203.518 60.6849 203.961 62C204.404 63.3021 204.625 64.7148 204.625 66.2383V66.668C204.625 68.1914 204.404 69.6042 203.961 70.9062C203.518 72.2083 202.88 73.3411 202.047 74.3047C201.227 75.2682 200.224 76.0234 199.039 76.5703C197.854 77.1172 196.52 77.3906 195.035 77.3906C193.538 77.3906 192.19 77.1172 190.992 76.5703C189.807 76.0234 188.798 75.2682 187.965 74.3047C187.145 73.3411 186.513 72.2083 186.07 70.9062C185.628 69.6042 185.406 68.1914 185.406 66.668V66.2383ZM189.02 66.668C189.02 67.7096 189.143 68.7057 189.391 69.6562C189.638 70.5938 190.009 71.4206 190.504 72.1367C191.012 72.8529 191.643 73.4193 192.398 73.8359C193.154 74.2526 194.033 74.4609 195.035 74.4609C196.025 74.4609 196.891 74.2526 197.633 73.8359C198.388 73.4193 199.013 72.8529 199.508 72.1367C200.016 71.4206 200.393 70.5938 200.641 69.6562C200.888 68.7057 201.012 67.7096 201.012 66.668V66.2383C201.012 65.2096 200.882 64.2266 200.621 63.2891C200.374 62.3385 199.996 61.5052 199.488 60.7891C198.993 60.0729 198.368 59.5065 197.613 59.0898C196.871 58.6602 195.999 58.4453 194.996 58.4453C193.993 58.4453 193.121 58.6602 192.379 59.0898C191.637 59.5065 191.012 60.0729 190.504 60.7891C190.009 61.5052 189.638 62.3385 189.391 63.2891C189.143 64.2266 189.02 65.2096 189.02 66.2383V66.668ZM224.156 74.0898C223.453 75.1315 222.574 75.9453 221.52 76.5312C220.465 77.1042 219.247 77.3906 217.867 77.3906C216.76 77.3906 215.758 77.2214 214.859 76.8828C213.961 76.5312 213.193 75.9909 212.555 75.2617C211.917 74.5326 211.422 73.6081 211.07 72.4883C210.732 71.3555 210.562 70.0013 210.562 68.4258V55.8672H214.176V68.4648C214.176 69.6107 214.267 70.5612 214.449 71.3164C214.632 72.0716 214.905 72.6771 215.27 73.1328C215.634 73.5755 216.077 73.888 216.598 74.0703C217.132 74.2526 217.743 74.3438 218.434 74.3438C219.905 74.3438 221.09 74.0443 221.988 73.4453C222.9 72.8464 223.577 72.0391 224.02 71.0234V55.8672H227.652V77H224.371L224.156 74.0898ZM248.316 55.4766C248.655 55.4766 249.007 55.4896 249.371 55.5156C249.736 55.5286 250.081 55.5612 250.406 55.6133C250.745 55.6523 251.051 55.7044 251.324 55.7695C251.611 55.8346 251.845 55.9062 252.027 55.9844L251.539 59.5195C250.836 59.3633 250.165 59.2526 249.527 59.1875C248.902 59.1094 248.245 59.0703 247.555 59.0703C245.862 59.0703 244.488 59.4544 243.434 60.2227C242.392 60.9909 241.624 62.0651 241.129 63.4453V77H237.496V55.8672H240.934L241.109 59.2266C241.969 58.0677 242.997 57.1562 244.195 56.4922C245.406 55.8151 246.78 55.4766 248.316 55.4766ZM296.402 77C296.259 76.7266 296.142 76.388 296.051 75.9844C295.973 75.5677 295.914 75.138 295.875 74.6953C295.51 75.0599 295.1 75.4049 294.645 75.7305C294.202 76.056 293.707 76.3424 293.16 76.5898C292.626 76.8372 292.053 77.0326 291.441 77.1758C290.829 77.319 290.178 77.3906 289.488 77.3906C288.368 77.3906 287.353 77.2279 286.441 76.9023C285.543 76.5768 284.775 76.1406 284.137 75.5938C283.512 75.0339 283.023 74.3763 282.672 73.6211C282.333 72.8529 282.164 72.026 282.164 71.1406C282.164 69.9818 282.392 68.9661 282.848 68.0938C283.316 67.2214 283.974 66.4987 284.82 65.9258C285.667 65.3398 286.682 64.9036 287.867 64.6172C289.065 64.3307 290.4 64.1875 291.871 64.1875H295.816V62.5273C295.816 61.8893 295.699 61.3164 295.465 60.8086C295.23 60.3008 294.898 59.8711 294.469 59.5195C294.039 59.1549 293.512 58.875 292.887 58.6797C292.275 58.4844 291.585 58.3867 290.816 58.3867C290.1 58.3867 289.456 58.4779 288.883 58.6602C288.323 58.8424 287.848 59.0833 287.457 59.3828C287.066 59.6823 286.76 60.0404 286.539 60.457C286.331 60.8607 286.227 61.2839 286.227 61.7266H282.594C282.607 60.9583 282.802 60.2031 283.18 59.4609C283.57 58.7188 284.124 58.0547 284.84 57.4688C285.569 56.8698 286.448 56.388 287.477 56.0234C288.518 55.6589 289.697 55.4766 291.012 55.4766C292.21 55.4766 293.323 55.6263 294.352 55.9258C295.38 56.2122 296.266 56.6549 297.008 57.2539C297.763 57.8398 298.355 58.5755 298.785 59.4609C299.215 60.3464 299.43 61.3815 299.43 62.5664V72.3906C299.43 73.0938 299.495 73.8424 299.625 74.6367C299.755 75.418 299.938 76.1016 300.172 76.6875V77H296.402ZM290.016 74.2461C290.719 74.2461 291.376 74.1549 291.988 73.9727C292.6 73.7904 293.154 73.5495 293.648 73.25C294.156 72.9505 294.592 72.612 294.957 72.2344C295.322 71.8438 295.608 71.4401 295.816 71.0234V66.7461H292.457C290.348 66.7461 288.707 67.0586 287.535 67.6836C286.363 68.3086 285.777 69.2917 285.777 70.6328C285.777 71.1536 285.862 71.6354 286.031 72.0781C286.214 72.5208 286.48 72.9049 286.832 73.2305C287.184 73.543 287.626 73.7904 288.16 73.9727C288.694 74.1549 289.312 74.2461 290.016 74.2461ZM324.371 66.668C324.371 68.1784 324.189 69.5911 323.824 70.9062C323.46 72.2083 322.926 73.3411 322.223 74.3047C321.52 75.2682 320.647 76.0234 319.605 76.5703C318.577 77.1172 317.398 77.3906 316.07 77.3906C314.781 77.3906 313.642 77.1823 312.652 76.7656C311.676 76.349 310.836 75.75 310.133 74.9688V85.125H306.52V55.8672H309.82L309.996 58.1719C310.699 57.2995 311.546 56.6354 312.535 56.1797C313.538 55.7109 314.697 55.4766 316.012 55.4766C317.366 55.4766 318.564 55.7435 319.605 56.2773C320.647 56.8112 321.52 57.5534 322.223 58.5039C322.926 59.4544 323.46 60.5938 323.824 61.9219C324.189 63.237 324.371 64.6823 324.371 66.2578V66.668ZM320.758 66.2578C320.758 65.2292 320.641 64.2526 320.406 63.3281C320.185 62.3906 319.833 61.5703 319.352 60.8672C318.883 60.151 318.284 59.5846 317.555 59.168C316.826 58.7513 315.953 58.543 314.938 58.543C313.779 58.543 312.802 58.8164 312.008 59.3633C311.227 59.8971 310.602 60.5872 310.133 61.4336V71.6094C310.602 72.4427 311.227 73.1263 312.008 73.6602C312.789 74.181 313.779 74.4414 314.977 74.4414C315.979 74.4414 316.845 74.2331 317.574 73.8164C318.303 73.3867 318.902 72.8138 319.371 72.0977C319.84 71.3815 320.185 70.5547 320.406 69.6172C320.641 68.6797 320.758 67.6966 320.758 66.668V66.2578ZM348.395 66.668C348.395 68.1784 348.212 69.5911 347.848 70.9062C347.483 72.2083 346.949 73.3411 346.246 74.3047C345.543 75.2682 344.671 76.0234 343.629 76.5703C342.6 77.1172 341.422 77.3906 340.094 77.3906C338.805 77.3906 337.665 77.1823 336.676 76.7656C335.699 76.349 334.859 75.75 334.156 74.9688V85.125H330.543V55.8672H333.844L334.02 58.1719C334.723 57.2995 335.569 56.6354 336.559 56.1797C337.561 55.7109 338.72 55.4766 340.035 55.4766C341.389 55.4766 342.587 55.7435 343.629 56.2773C344.671 56.8112 345.543 57.5534 346.246 58.5039C346.949 59.4544 347.483 60.5938 347.848 61.9219C348.212 63.237 348.395 64.6823 348.395 66.2578V66.668ZM344.781 66.2578C344.781 65.2292 344.664 64.2526 344.43 63.3281C344.208 62.3906 343.857 61.5703 343.375 60.8672C342.906 60.151 342.307 59.5846 341.578 59.168C340.849 58.7513 339.977 58.543 338.961 58.543C337.802 58.543 336.826 58.8164 336.031 59.3633C335.25 59.8971 334.625 60.5872 334.156 61.4336V71.6094C334.625 72.4427 335.25 73.1263 336.031 73.6602C336.812 74.181 337.802 74.4414 339 74.4414C340.003 74.4414 340.868 74.2331 341.598 73.8164C342.327 73.3867 342.926 72.8138 343.395 72.0977C343.863 71.3815 344.208 70.5547 344.43 69.6172C344.664 68.6797 344.781 67.6966 344.781 66.668V66.2578Z" fill="#333333"/>
<path d="M180.816 184.445C180.647 185.76 180.309 186.971 179.801 188.078C179.293 189.172 178.629 190.116 177.809 190.91C177.001 191.691 176.038 192.303 174.918 192.746C173.811 193.176 172.574 193.391 171.207 193.391C170.035 193.391 168.967 193.228 168.004 192.902C167.053 192.564 166.201 192.102 165.445 191.516C164.703 190.93 164.059 190.24 163.512 189.445C162.978 188.651 162.529 187.785 162.164 186.848C161.812 185.91 161.546 184.927 161.363 183.898C161.194 182.87 161.103 181.828 161.09 180.773V176.809C161.103 175.754 161.194 174.712 161.363 173.684C161.546 172.655 161.812 171.672 162.164 170.734C162.529 169.797 162.978 168.931 163.512 168.137C164.059 167.329 164.703 166.633 165.445 166.047C166.201 165.461 167.053 165.005 168.004 164.68C168.954 164.341 170.022 164.172 171.207 164.172C172.626 164.172 173.896 164.393 175.016 164.836C176.135 165.266 177.099 165.884 177.906 166.691C178.714 167.486 179.358 168.443 179.84 169.562C180.335 170.682 180.66 171.919 180.816 173.273H177.203C177.086 172.414 176.884 171.613 176.598 170.871C176.311 170.129 175.927 169.478 175.445 168.918C174.964 168.358 174.371 167.922 173.668 167.609C172.978 167.284 172.158 167.121 171.207 167.121C170.348 167.121 169.586 167.264 168.922 167.551C168.271 167.824 167.704 168.202 167.223 168.684C166.754 169.165 166.357 169.725 166.031 170.363C165.719 171.001 165.465 171.678 165.27 172.395C165.074 173.111 164.931 173.846 164.84 174.602C164.762 175.344 164.723 176.066 164.723 176.77V180.773C164.723 181.477 164.762 182.206 164.84 182.961C164.931 183.703 165.074 184.439 165.27 185.168C165.465 185.884 165.719 186.561 166.031 187.199C166.344 187.837 166.741 188.404 167.223 188.898C167.704 189.38 168.271 189.764 168.922 190.051C169.573 190.324 170.335 190.461 171.207 190.461C172.158 190.461 172.978 190.311 173.668 190.012C174.371 189.712 174.964 189.296 175.445 188.762C175.927 188.215 176.311 187.577 176.598 186.848C176.884 186.105 177.086 185.305 177.203 184.445H180.816ZM185.406 182.238C185.406 180.715 185.628 179.302 186.07 178C186.513 176.685 187.145 175.546 187.965 174.582C188.798 173.618 189.807 172.863 190.992 172.316C192.177 171.757 193.512 171.477 194.996 171.477C196.493 171.477 197.835 171.757 199.02 172.316C200.217 172.863 201.227 173.618 202.047 174.582C202.88 175.546 203.518 176.685 203.961 178C204.404 179.302 204.625 180.715 204.625 182.238V182.668C204.625 184.191 204.404 185.604 203.961 186.906C203.518 188.208 202.88 189.341 202.047 190.305C201.227 191.268 200.224 192.023 199.039 192.57C197.854 193.117 196.52 193.391 195.035 193.391C193.538 193.391 192.19 193.117 190.992 192.57C189.807 192.023 188.798 191.268 187.965 190.305C187.145 189.341 186.513 188.208 186.07 186.906C185.628 185.604 185.406 184.191 185.406 182.668V182.238ZM189.02 182.668C189.02 183.71 189.143 184.706 189.391 185.656C189.638 186.594 190.009 187.421 190.504 188.137C191.012 188.853 191.643 189.419 192.398 189.836C193.154 190.253 194.033 190.461 195.035 190.461C196.025 190.461 196.891 190.253 197.633 189.836C198.388 189.419 199.013 188.853 199.508 188.137C200.016 187.421 200.393 186.594 200.641 185.656C200.888 184.706 201.012 183.71 201.012 182.668V182.238C201.012 181.21 200.882 180.227 200.621 179.289C200.374 178.339 199.996 177.505 199.488 176.789C198.993 176.073 198.368 175.507 197.613 175.09C196.871 174.66 195.999 174.445 194.996 174.445C193.993 174.445 193.121 174.66 192.379 175.09C191.637 175.507 191.012 176.073 190.504 176.789C190.009 177.505 189.638 178.339 189.391 179.289C189.143 180.227 189.02 181.21 189.02 182.238V182.668ZM209.762 182.258C209.762 180.682 209.957 179.237 210.348 177.922C210.751 176.594 211.318 175.454 212.047 174.504C212.789 173.553 213.681 172.811 214.723 172.277C215.764 171.743 216.93 171.477 218.219 171.477C219.482 171.477 220.582 171.691 221.52 172.121C222.47 172.538 223.29 173.15 223.98 173.957V163H227.594V193H224.273L224.117 190.773C223.414 191.633 222.574 192.284 221.598 192.727C220.621 193.169 219.482 193.391 218.18 193.391C216.904 193.391 215.745 193.117 214.703 192.57C213.674 192.023 212.796 191.268 212.066 190.305C211.337 189.341 210.771 188.208 210.367 186.906C209.964 185.591 209.762 184.178 209.762 182.668V182.258ZM213.375 182.668C213.375 183.697 213.486 184.673 213.707 185.598C213.928 186.522 214.267 187.336 214.723 188.039C215.191 188.742 215.784 189.302 216.5 189.719C217.216 190.122 218.076 190.324 219.078 190.324C219.69 190.324 220.243 190.253 220.738 190.109C221.233 189.966 221.682 189.764 222.086 189.504C222.49 189.23 222.848 188.911 223.16 188.547C223.473 188.169 223.746 187.753 223.98 187.297V177.492C223.512 176.633 222.88 175.93 222.086 175.383C221.292 174.823 220.302 174.543 219.117 174.543C218.102 174.543 217.229 174.751 216.5 175.168C215.784 175.585 215.191 176.151 214.723 176.867C214.267 177.57 213.928 178.391 213.707 179.328C213.486 180.253 213.375 181.229 213.375 182.258V182.668ZM243.805 193.391C242.32 193.391 240.953 193.137 239.703 192.629C238.466 192.121 237.405 191.411 236.52 190.5C235.634 189.589 234.944 188.508 234.449 187.258C233.954 186.008 233.707 184.647 233.707 183.176V182.355C233.707 180.65 233.98 179.126 234.527 177.785C235.074 176.431 235.797 175.292 236.695 174.367C237.607 173.43 238.635 172.714 239.781 172.219C240.94 171.724 242.125 171.477 243.336 171.477C244.859 171.477 246.188 171.743 247.32 172.277C248.466 172.798 249.417 173.527 250.172 174.465C250.927 175.389 251.487 176.483 251.852 177.746C252.229 179.009 252.418 180.376 252.418 181.848V183.469H237.32C237.359 184.432 237.542 185.337 237.867 186.184C238.206 187.03 238.661 187.772 239.234 188.41C239.82 189.035 240.517 189.53 241.324 189.895C242.132 190.259 243.023 190.441 244 190.441C245.289 190.441 246.435 190.181 247.438 189.66C248.44 189.139 249.273 188.449 249.938 187.59L252.145 189.309C251.793 189.842 251.35 190.357 250.816 190.852C250.296 191.333 249.69 191.763 249 192.141C248.31 192.518 247.529 192.818 246.656 193.039C245.784 193.273 244.833 193.391 243.805 193.391ZM243.336 174.445C242.607 174.445 241.917 174.582 241.266 174.855C240.615 175.116 240.029 175.507 239.508 176.027C238.987 176.535 238.544 177.167 238.18 177.922C237.828 178.664 237.581 179.523 237.438 180.5H248.805V180.227C248.766 179.523 248.629 178.827 248.395 178.137C248.173 177.447 247.841 176.828 247.398 176.281C246.956 175.734 246.396 175.292 245.719 174.953C245.055 174.615 244.26 174.445 243.336 174.445Z" fill="#333333"/>
<path d="M166.48 304.934H180.387V308H162.867V279.562H166.48V304.934ZM186.988 286.867H197.789V304.875H204.684V308H186.988V304.875H194.176V290.012H186.988V286.867ZM193.707 281.32C193.707 280.721 193.883 280.22 194.234 279.816C194.599 279.4 195.146 279.191 195.875 279.191C196.591 279.191 197.132 279.4 197.496 279.816C197.861 280.22 198.043 280.721 198.043 281.32C198.043 281.906 197.861 282.395 197.496 282.785C197.132 283.176 196.591 283.371 195.875 283.371C195.146 283.371 194.599 283.176 194.234 282.785C193.883 282.395 193.707 281.906 193.707 281.32ZM228.355 297.668C228.355 299.178 228.173 300.591 227.809 301.906C227.444 303.208 226.91 304.341 226.207 305.305C225.504 306.268 224.632 307.023 223.59 307.57C222.561 308.117 221.376 308.391 220.035 308.391C218.681 308.391 217.503 308.15 216.5 307.668C215.51 307.186 214.664 306.496 213.961 305.598L213.785 308H210.465V278H214.078V289.133C214.768 288.273 215.602 287.616 216.578 287.16C217.555 286.704 218.694 286.477 219.996 286.477C221.35 286.477 222.548 286.743 223.59 287.277C224.632 287.811 225.504 288.553 226.207 289.504C226.91 290.454 227.444 291.594 227.809 292.922C228.173 294.237 228.355 295.682 228.355 297.258V297.668ZM224.742 297.258C224.742 296.229 224.638 295.253 224.43 294.328C224.234 293.391 223.915 292.57 223.473 291.867C223.03 291.151 222.451 290.585 221.734 290.168C221.018 289.751 220.139 289.543 219.098 289.543C218.473 289.543 217.9 289.628 217.379 289.797C216.858 289.953 216.389 290.181 215.973 290.48C215.569 290.767 215.204 291.112 214.879 291.516C214.566 291.906 214.299 292.336 214.078 292.805V302.043C214.312 302.512 214.586 302.948 214.898 303.352C215.224 303.742 215.595 304.087 216.012 304.387C216.428 304.686 216.897 304.921 217.418 305.09C217.939 305.246 218.512 305.324 219.137 305.324C220.126 305.324 220.973 305.122 221.676 304.719C222.392 304.302 222.971 303.742 223.414 303.039C223.87 302.336 224.202 301.522 224.41 300.598C224.632 299.673 224.742 298.697 224.742 297.668V297.258ZM248.316 286.477C248.655 286.477 249.007 286.49 249.371 286.516C249.736 286.529 250.081 286.561 250.406 286.613C250.745 286.652 251.051 286.704 251.324 286.77C251.611 286.835 251.845 286.906 252.027 286.984L251.539 290.52C250.836 290.363 250.165 290.253 249.527 290.188C248.902 290.109 248.245 290.07 247.555 290.07C245.862 290.07 244.488 290.454 243.434 291.223C242.392 291.991 241.624 293.065 241.129 294.445V308H237.496V286.867H240.934L241.109 290.227C241.969 289.068 242.997 288.156 244.195 287.492C245.406 286.815 246.78 286.477 248.316 286.477ZM272.379 308C272.236 307.727 272.118 307.388 272.027 306.984C271.949 306.568 271.891 306.138 271.852 305.695C271.487 306.06 271.077 306.405 270.621 306.73C270.178 307.056 269.684 307.342 269.137 307.59C268.603 307.837 268.03 308.033 267.418 308.176C266.806 308.319 266.155 308.391 265.465 308.391C264.345 308.391 263.329 308.228 262.418 307.902C261.52 307.577 260.751 307.141 260.113 306.594C259.488 306.034 259 305.376 258.648 304.621C258.31 303.853 258.141 303.026 258.141 302.141C258.141 300.982 258.368 299.966 258.824 299.094C259.293 298.221 259.951 297.499 260.797 296.926C261.643 296.34 262.659 295.904 263.844 295.617C265.042 295.331 266.376 295.188 267.848 295.188H271.793V293.527C271.793 292.889 271.676 292.316 271.441 291.809C271.207 291.301 270.875 290.871 270.445 290.52C270.016 290.155 269.488 289.875 268.863 289.68C268.251 289.484 267.561 289.387 266.793 289.387C266.077 289.387 265.432 289.478 264.859 289.66C264.299 289.842 263.824 290.083 263.434 290.383C263.043 290.682 262.737 291.04 262.516 291.457C262.307 291.861 262.203 292.284 262.203 292.727H258.57C258.583 291.958 258.779 291.203 259.156 290.461C259.547 289.719 260.1 289.055 260.816 288.469C261.546 287.87 262.424 287.388 263.453 287.023C264.495 286.659 265.673 286.477 266.988 286.477C268.186 286.477 269.299 286.626 270.328 286.926C271.357 287.212 272.242 287.655 272.984 288.254C273.74 288.84 274.332 289.576 274.762 290.461C275.191 291.346 275.406 292.382 275.406 293.566V303.391C275.406 304.094 275.471 304.842 275.602 305.637C275.732 306.418 275.914 307.102 276.148 307.688V308H272.379ZM265.992 305.246C266.695 305.246 267.353 305.155 267.965 304.973C268.577 304.79 269.13 304.549 269.625 304.25C270.133 303.951 270.569 303.612 270.934 303.234C271.298 302.844 271.585 302.44 271.793 302.023V297.746H268.434C266.324 297.746 264.684 298.059 263.512 298.684C262.34 299.309 261.754 300.292 261.754 301.633C261.754 302.154 261.839 302.635 262.008 303.078C262.19 303.521 262.457 303.905 262.809 304.23C263.16 304.543 263.603 304.79 264.137 304.973C264.671 305.155 265.289 305.246 265.992 305.246ZM296.363 286.477C296.702 286.477 297.053 286.49 297.418 286.516C297.783 286.529 298.128 286.561 298.453 286.613C298.792 286.652 299.098 286.704 299.371 286.77C299.658 286.835 299.892 286.906 300.074 286.984L299.586 290.52C298.883 290.363 298.212 290.253 297.574 290.188C296.949 290.109 296.292 290.07 295.602 290.07C293.909 290.07 292.535 290.454 291.48 291.223C290.439 291.991 289.671 293.065 289.176 294.445V308H285.543V286.867H288.98L289.156 290.227C290.016 289.068 291.044 288.156 292.242 287.492C293.453 286.815 294.827 286.477 296.363 286.477ZM307.105 286.867H317.906V304.875H324.801V308H307.105V304.875H314.293V290.012H307.105V286.867ZM313.824 281.32C313.824 280.721 314 280.22 314.352 279.816C314.716 279.4 315.263 279.191 315.992 279.191C316.708 279.191 317.249 279.4 317.613 279.816C317.978 280.22 318.16 280.721 318.16 281.32C318.16 281.906 317.978 282.395 317.613 282.785C317.249 283.176 316.708 283.371 315.992 283.371C315.263 283.371 314.716 283.176 314.352 282.785C314 282.395 313.824 281.906 313.824 281.32ZM339.898 308.391C338.414 308.391 337.047 308.137 335.797 307.629C334.56 307.121 333.499 306.411 332.613 305.5C331.728 304.589 331.038 303.508 330.543 302.258C330.048 301.008 329.801 299.647 329.801 298.176V297.355C329.801 295.65 330.074 294.126 330.621 292.785C331.168 291.431 331.891 290.292 332.789 289.367C333.701 288.43 334.729 287.714 335.875 287.219C337.034 286.724 338.219 286.477 339.43 286.477C340.953 286.477 342.281 286.743 343.414 287.277C344.56 287.798 345.51 288.527 346.266 289.465C347.021 290.389 347.581 291.483 347.945 292.746C348.323 294.009 348.512 295.376 348.512 296.848V298.469H333.414C333.453 299.432 333.635 300.337 333.961 301.184C334.299 302.03 334.755 302.772 335.328 303.41C335.914 304.035 336.611 304.53 337.418 304.895C338.225 305.259 339.117 305.441 340.094 305.441C341.383 305.441 342.529 305.181 343.531 304.66C344.534 304.139 345.367 303.449 346.031 302.59L348.238 304.309C347.887 304.842 347.444 305.357 346.91 305.852C346.389 306.333 345.784 306.763 345.094 307.141C344.404 307.518 343.622 307.818 342.75 308.039C341.878 308.273 340.927 308.391 339.898 308.391ZM339.43 289.445C338.701 289.445 338.01 289.582 337.359 289.855C336.708 290.116 336.122 290.507 335.602 291.027C335.081 291.535 334.638 292.167 334.273 292.922C333.922 293.664 333.674 294.523 333.531 295.5H344.898V295.227C344.859 294.523 344.723 293.827 344.488 293.137C344.267 292.447 343.935 291.828 343.492 291.281C343.049 290.734 342.49 290.292 341.812 289.953C341.148 289.615 340.354 289.445 339.43 289.445ZM368.629 302.395C368.629 301.965 368.544 301.581 368.375 301.242C368.206 300.891 367.919 300.572 367.516 300.285C367.112 299.999 366.578 299.738 365.914 299.504C365.25 299.257 364.423 299.035 363.434 298.84C362.223 298.592 361.116 298.293 360.113 297.941C359.124 297.59 358.271 297.173 357.555 296.691C356.852 296.197 356.305 295.624 355.914 294.973C355.523 294.309 355.328 293.54 355.328 292.668C355.328 291.809 355.53 291.008 355.934 290.266C356.337 289.51 356.904 288.853 357.633 288.293C358.362 287.733 359.228 287.29 360.23 286.965C361.246 286.639 362.359 286.477 363.57 286.477C364.872 286.477 366.044 286.646 367.086 286.984C368.128 287.323 369.013 287.792 369.742 288.391C370.471 288.99 371.031 289.693 371.422 290.5C371.826 291.294 372.027 292.154 372.027 293.078H368.414C368.414 292.622 368.297 292.18 368.062 291.75C367.828 291.307 367.503 290.917 367.086 290.578C366.669 290.24 366.161 289.966 365.562 289.758C364.977 289.549 364.312 289.445 363.57 289.445C362.802 289.445 362.125 289.53 361.539 289.699C360.966 289.868 360.484 290.096 360.094 290.383C359.716 290.669 359.43 291.001 359.234 291.379C359.039 291.757 358.941 292.147 358.941 292.551C358.941 292.967 359.02 293.339 359.176 293.664C359.332 293.99 359.599 294.283 359.977 294.543C360.367 294.803 360.882 295.038 361.52 295.246C362.171 295.454 362.991 295.656 363.98 295.852C365.283 296.125 366.448 296.444 367.477 296.809C368.505 297.16 369.371 297.59 370.074 298.098C370.777 298.592 371.311 299.172 371.676 299.836C372.053 300.5 372.242 301.268 372.242 302.141C372.242 303.078 372.027 303.931 371.598 304.699C371.181 305.467 370.595 306.125 369.84 306.672C369.085 307.219 368.18 307.642 367.125 307.941C366.07 308.241 364.918 308.391 363.668 308.391C362.236 308.391 360.96 308.202 359.84 307.824C358.72 307.434 357.77 306.926 356.988 306.301C356.22 305.663 355.628 304.927 355.211 304.094C354.807 303.26 354.605 302.395 354.605 301.496H358.219C358.271 302.238 358.466 302.863 358.805 303.371C359.156 303.879 359.586 304.289 360.094 304.602C360.615 304.914 361.188 305.135 361.812 305.266C362.438 305.396 363.056 305.461 363.668 305.461C365.191 305.461 366.396 305.181 367.281 304.621C368.167 304.061 368.616 303.319 368.629 302.395Z" fill="#333333"/>
<path d="M175.973 458.637H166.48L164.195 466H160.582L169.762 437.562H172.789L181.812 466H178.219L175.973 458.637ZM167.457 455.492H175.016L171.266 443.148L167.457 455.492ZM189.664 444.867L189.918 447.992C190.686 446.898 191.63 446.046 192.75 445.434C193.87 444.809 195.12 444.49 196.5 444.477C197.607 444.477 198.609 444.633 199.508 444.945C200.419 445.258 201.194 445.746 201.832 446.41C202.47 447.074 202.958 447.921 203.297 448.949C203.648 449.965 203.824 451.176 203.824 452.582V466H200.211V452.66C200.211 451.723 200.107 450.928 199.898 450.277C199.69 449.626 199.378 449.099 198.961 448.695C198.557 448.292 198.056 447.999 197.457 447.816C196.871 447.634 196.194 447.543 195.426 447.543C194.215 447.543 193.147 447.849 192.223 448.461C191.311 449.06 190.582 449.854 190.035 450.844V466H186.422V444.867H189.664ZM209.762 455.258C209.762 453.682 209.957 452.237 210.348 450.922C210.751 449.594 211.318 448.454 212.047 447.504C212.789 446.553 213.681 445.811 214.723 445.277C215.764 444.743 216.93 444.477 218.219 444.477C219.482 444.477 220.582 444.691 221.52 445.121C222.47 445.538 223.29 446.15 223.98 446.957V436H227.594V466H224.273L224.117 463.773C223.414 464.633 222.574 465.284 221.598 465.727C220.621 466.169 219.482 466.391 218.18 466.391C216.904 466.391 215.745 466.117 214.703 465.57C213.674 465.023 212.796 464.268 212.066 463.305C211.337 462.341 210.771 461.208 210.367 459.906C209.964 458.591 209.762 457.178 209.762 455.668V455.258ZM213.375 455.668C213.375 456.697 213.486 457.673 213.707 458.598C213.928 459.522 214.267 460.336 214.723 461.039C215.191 461.742 215.784 462.302 216.5 462.719C217.216 463.122 218.076 463.324 219.078 463.324C219.69 463.324 220.243 463.253 220.738 463.109C221.233 462.966 221.682 462.764 222.086 462.504C222.49 462.23 222.848 461.911 223.16 461.547C223.473 461.169 223.746 460.753 223.98 460.297V450.492C223.512 449.633 222.88 448.93 222.086 448.383C221.292 447.823 220.302 447.543 219.117 447.543C218.102 447.543 217.229 447.751 216.5 448.168C215.784 448.585 215.191 449.151 214.723 449.867C214.267 450.57 213.928 451.391 213.707 452.328C213.486 453.253 213.375 454.229 213.375 455.258V455.668ZM248.316 444.477C248.655 444.477 249.007 444.49 249.371 444.516C249.736 444.529 250.081 444.561 250.406 444.613C250.745 444.652 251.051 444.704 251.324 444.77C251.611 444.835 251.845 444.906 252.027 444.984L251.539 448.52C250.836 448.363 250.165 448.253 249.527 448.188C248.902 448.109 248.245 448.07 247.555 448.07C245.862 448.07 244.488 448.454 243.434 449.223C242.392 449.991 241.624 451.065 241.129 452.445V466H237.496V444.867H240.934L241.109 448.227C241.969 447.068 242.997 446.156 244.195 445.492C245.406 444.815 246.78 444.477 248.316 444.477ZM257.477 455.238C257.477 453.715 257.698 452.302 258.141 451C258.583 449.685 259.215 448.546 260.035 447.582C260.868 446.618 261.878 445.863 263.062 445.316C264.247 444.757 265.582 444.477 267.066 444.477C268.564 444.477 269.905 444.757 271.09 445.316C272.288 445.863 273.297 446.618 274.117 447.582C274.951 448.546 275.589 449.685 276.031 451C276.474 452.302 276.695 453.715 276.695 455.238V455.668C276.695 457.191 276.474 458.604 276.031 459.906C275.589 461.208 274.951 462.341 274.117 463.305C273.297 464.268 272.294 465.023 271.109 465.57C269.924 466.117 268.59 466.391 267.105 466.391C265.608 466.391 264.26 466.117 263.062 465.57C261.878 465.023 260.868 464.268 260.035 463.305C259.215 462.341 258.583 461.208 258.141 459.906C257.698 458.604 257.477 457.191 257.477 455.668V455.238ZM261.09 455.668C261.09 456.71 261.214 457.706 261.461 458.656C261.708 459.594 262.079 460.421 262.574 461.137C263.082 461.853 263.714 462.419 264.469 462.836C265.224 463.253 266.103 463.461 267.105 463.461C268.095 463.461 268.961 463.253 269.703 462.836C270.458 462.419 271.083 461.853 271.578 461.137C272.086 460.421 272.464 459.594 272.711 458.656C272.958 457.706 273.082 456.71 273.082 455.668V455.238C273.082 454.21 272.952 453.227 272.691 452.289C272.444 451.339 272.066 450.505 271.559 449.789C271.064 449.073 270.439 448.507 269.684 448.09C268.941 447.66 268.069 447.445 267.066 447.445C266.064 447.445 265.191 447.66 264.449 448.09C263.707 448.507 263.082 449.073 262.574 449.789C262.079 450.505 261.708 451.339 261.461 452.289C261.214 453.227 261.09 454.21 261.09 455.238V455.668ZM283.082 444.867H293.883V462.875H300.777V466H283.082V462.875H290.27V448.012H283.082V444.867ZM289.801 439.32C289.801 438.721 289.977 438.22 290.328 437.816C290.693 437.4 291.24 437.191 291.969 437.191C292.685 437.191 293.225 437.4 293.59 437.816C293.954 438.22 294.137 438.721 294.137 439.32C294.137 439.906 293.954 440.395 293.59 440.785C293.225 441.176 292.685 441.371 291.969 441.371C291.24 441.371 290.693 441.176 290.328 440.785C289.977 440.395 289.801 439.906 289.801 439.32ZM305.855 455.258C305.855 453.682 306.051 452.237 306.441 450.922C306.845 449.594 307.411 448.454 308.141 447.504C308.883 446.553 309.775 445.811 310.816 445.277C311.858 444.743 313.023 444.477 314.312 444.477C315.576 444.477 316.676 444.691 317.613 445.121C318.564 445.538 319.384 446.15 320.074 446.957V436H323.688V466H320.367L320.211 463.773C319.508 464.633 318.668 465.284 317.691 465.727C316.715 466.169 315.576 466.391 314.273 466.391C312.997 466.391 311.839 466.117 310.797 465.57C309.768 465.023 308.889 464.268 308.16 463.305C307.431 462.341 306.865 461.208 306.461 459.906C306.057 458.591 305.855 457.178 305.855 455.668V455.258ZM309.469 455.668C309.469 456.697 309.579 457.673 309.801 458.598C310.022 459.522 310.361 460.336 310.816 461.039C311.285 461.742 311.878 462.302 312.594 462.719C313.31 463.122 314.169 463.324 315.172 463.324C315.784 463.324 316.337 463.253 316.832 463.109C317.327 462.966 317.776 462.764 318.18 462.504C318.583 462.23 318.941 461.911 319.254 461.547C319.566 461.169 319.84 460.753 320.074 460.297V450.492C319.605 449.633 318.974 448.93 318.18 448.383C317.385 447.823 316.396 447.543 315.211 447.543C314.195 447.543 313.323 447.751 312.594 448.168C311.878 448.585 311.285 449.151 310.816 449.867C310.361 450.57 310.022 451.391 309.801 452.328C309.579 453.253 309.469 454.229 309.469 455.258V455.668ZM368.629 460.395C368.629 459.965 368.544 459.581 368.375 459.242C368.206 458.891 367.919 458.572 367.516 458.285C367.112 457.999 366.578 457.738 365.914 457.504C365.25 457.257 364.423 457.035 363.434 456.84C362.223 456.592 361.116 456.293 360.113 455.941C359.124 455.59 358.271 455.173 357.555 454.691C356.852 454.197 356.305 453.624 355.914 452.973C355.523 452.309 355.328 451.54 355.328 450.668C355.328 449.809 355.53 449.008 355.934 448.266C356.337 447.51 356.904 446.853 357.633 446.293C358.362 445.733 359.228 445.29 360.23 444.965C361.246 444.639 362.359 444.477 363.57 444.477C364.872 444.477 366.044 444.646 367.086 444.984C368.128 445.323 369.013 445.792 369.742 446.391C370.471 446.99 371.031 447.693 371.422 448.5C371.826 449.294 372.027 450.154 372.027 451.078H368.414C368.414 450.622 368.297 450.18 368.062 449.75C367.828 449.307 367.503 448.917 367.086 448.578C366.669 448.24 366.161 447.966 365.562 447.758C364.977 447.549 364.312 447.445 363.57 447.445C362.802 447.445 362.125 447.53 361.539 447.699C360.966 447.868 360.484 448.096 360.094 448.383C359.716 448.669 359.43 449.001 359.234 449.379C359.039 449.757 358.941 450.147 358.941 450.551C358.941 450.967 359.02 451.339 359.176 451.664C359.332 451.99 359.599 452.283 359.977 452.543C360.367 452.803 360.882 453.038 361.52 453.246C362.171 453.454 362.991 453.656 363.98 453.852C365.283 454.125 366.448 454.444 367.477 454.809C368.505 455.16 369.371 455.59 370.074 456.098C370.777 456.592 371.311 457.172 371.676 457.836C372.053 458.5 372.242 459.268 372.242 460.141C372.242 461.078 372.027 461.931 371.598 462.699C371.181 463.467 370.595 464.125 369.84 464.672C369.085 465.219 368.18 465.642 367.125 465.941C366.07 466.241 364.918 466.391 363.668 466.391C362.236 466.391 360.96 466.202 359.84 465.824C358.72 465.434 357.77 464.926 356.988 464.301C356.22 463.663 355.628 462.927 355.211 462.094C354.807 461.26 354.605 460.395 354.605 459.496H358.219C358.271 460.238 358.466 460.863 358.805 461.371C359.156 461.879 359.586 462.289 360.094 462.602C360.615 462.914 361.188 463.135 361.812 463.266C362.438 463.396 363.056 463.461 363.668 463.461C365.191 463.461 366.396 463.181 367.281 462.621C368.167 462.061 368.616 461.319 368.629 460.395ZM392.32 463.09C391.617 464.132 390.738 464.945 389.684 465.531C388.629 466.104 387.411 466.391 386.031 466.391C384.924 466.391 383.922 466.221 383.023 465.883C382.125 465.531 381.357 464.991 380.719 464.262C380.081 463.533 379.586 462.608 379.234 461.488C378.896 460.355 378.727 459.001 378.727 457.426V444.867H382.34V457.465C382.34 458.611 382.431 459.561 382.613 460.316C382.796 461.072 383.069 461.677 383.434 462.133C383.798 462.576 384.241 462.888 384.762 463.07C385.296 463.253 385.908 463.344 386.598 463.344C388.069 463.344 389.254 463.044 390.152 462.445C391.064 461.846 391.741 461.039 392.184 460.023V444.867H395.816V466H392.535L392.32 463.09ZM420.465 455.668C420.465 457.178 420.283 458.591 419.918 459.906C419.553 461.208 419.02 462.341 418.316 463.305C417.613 464.268 416.741 465.023 415.699 465.57C414.671 466.117 413.492 466.391 412.164 466.391C410.875 466.391 409.736 466.182 408.746 465.766C407.77 465.349 406.93 464.75 406.227 463.969V474.125H402.613V444.867H405.914L406.09 447.172C406.793 446.299 407.639 445.635 408.629 445.18C409.632 444.711 410.79 444.477 412.105 444.477C413.46 444.477 414.658 444.743 415.699 445.277C416.741 445.811 417.613 446.553 418.316 447.504C419.02 448.454 419.553 449.594 419.918 450.922C420.283 452.237 420.465 453.682 420.465 455.258V455.668ZM416.852 455.258C416.852 454.229 416.734 453.253 416.5 452.328C416.279 451.391 415.927 450.57 415.445 449.867C414.977 449.151 414.378 448.585 413.648 448.168C412.919 447.751 412.047 447.543 411.031 447.543C409.872 447.543 408.896 447.816 408.102 448.363C407.32 448.897 406.695 449.587 406.227 450.434V460.609C406.695 461.443 407.32 462.126 408.102 462.66C408.883 463.181 409.872 463.441 411.07 463.441C412.073 463.441 412.939 463.233 413.668 462.816C414.397 462.387 414.996 461.814 415.465 461.098C415.934 460.382 416.279 459.555 416.5 458.617C416.734 457.68 416.852 456.697 416.852 455.668V455.258ZM444.488 455.668C444.488 457.178 444.306 458.591 443.941 459.906C443.577 461.208 443.043 462.341 442.34 463.305C441.637 464.268 440.764 465.023 439.723 465.57C438.694 466.117 437.516 466.391 436.188 466.391C434.898 466.391 433.759 466.182 432.77 465.766C431.793 465.349 430.953 464.75 430.25 463.969V474.125H426.637V444.867H429.938L430.113 447.172C430.816 446.299 431.663 445.635 432.652 445.18C433.655 444.711 434.814 444.477 436.129 444.477C437.483 444.477 438.681 444.743 439.723 445.277C440.764 445.811 441.637 446.553 442.34 447.504C443.043 448.454 443.577 449.594 443.941 450.922C444.306 452.237 444.488 453.682 444.488 455.258V455.668ZM440.875 455.258C440.875 454.229 440.758 453.253 440.523 452.328C440.302 451.391 439.951 450.57 439.469 449.867C439 449.151 438.401 448.585 437.672 448.168C436.943 447.751 436.07 447.543 435.055 447.543C433.896 447.543 432.919 447.816 432.125 448.363C431.344 448.897 430.719 449.587 430.25 450.434V460.609C430.719 461.443 431.344 462.126 432.125 462.66C432.906 463.181 433.896 463.441 435.094 463.441C436.096 463.441 436.962 463.233 437.691 462.816C438.421 462.387 439.02 461.814 439.488 461.098C439.957 460.382 440.302 459.555 440.523 458.617C440.758 457.68 440.875 456.697 440.875 455.668V455.258ZM449.664 455.238C449.664 453.715 449.885 452.302 450.328 451C450.771 449.685 451.402 448.546 452.223 447.582C453.056 446.618 454.065 445.863 455.25 445.316C456.435 444.757 457.77 444.477 459.254 444.477C460.751 444.477 462.092 444.757 463.277 445.316C464.475 445.863 465.484 446.618 466.305 447.582C467.138 448.546 467.776 449.685 468.219 451C468.661 452.302 468.883 453.715 468.883 455.238V455.668C468.883 457.191 468.661 458.604 468.219 459.906C467.776 461.208 467.138 462.341 466.305 463.305C465.484 464.268 464.482 465.023 463.297 465.57C462.112 466.117 460.777 466.391 459.293 466.391C457.796 466.391 456.448 466.117 455.25 465.57C454.065 465.023 453.056 464.268 452.223 463.305C451.402 462.341 450.771 461.208 450.328 459.906C449.885 458.604 449.664 457.191 449.664 455.668V455.238ZM453.277 455.668C453.277 456.71 453.401 457.706 453.648 458.656C453.896 459.594 454.267 460.421 454.762 461.137C455.27 461.853 455.901 462.419 456.656 462.836C457.411 463.253 458.29 463.461 459.293 463.461C460.283 463.461 461.148 463.253 461.891 462.836C462.646 462.419 463.271 461.853 463.766 461.137C464.273 460.421 464.651 459.594 464.898 458.656C465.146 457.706 465.27 456.71 465.27 455.668V455.238C465.27 454.21 465.139 453.227 464.879 452.289C464.632 451.339 464.254 450.505 463.746 449.789C463.251 449.073 462.626 448.507 461.871 448.09C461.129 447.66 460.257 447.445 459.254 447.445C458.251 447.445 457.379 447.66 456.637 448.09C455.895 448.507 455.27 449.073 454.762 449.789C454.267 450.505 453.896 451.339 453.648 452.289C453.401 453.227 453.277 454.21 453.277 455.238V455.668ZM488.551 444.477C488.889 444.477 489.241 444.49 489.605 444.516C489.97 444.529 490.315 444.561 490.641 444.613C490.979 444.652 491.285 444.704 491.559 444.77C491.845 444.835 492.079 444.906 492.262 444.984L491.773 448.52C491.07 448.363 490.4 448.253 489.762 448.188C489.137 448.109 488.479 448.07 487.789 448.07C486.096 448.07 484.723 448.454 483.668 449.223C482.626 449.991 481.858 451.065 481.363 452.445V466H477.73V444.867H481.168L481.344 448.227C482.203 447.068 483.232 446.156 484.43 445.492C485.641 444.815 487.014 444.477 488.551 444.477ZM507.281 439.75V444.867H515.328V447.66H507.281V459.145C507.281 459.965 507.385 460.642 507.594 461.176C507.802 461.71 508.089 462.139 508.453 462.465C508.818 462.777 509.234 462.999 509.703 463.129C510.185 463.259 510.693 463.324 511.227 463.324C511.617 463.324 512.021 463.305 512.438 463.266C512.854 463.214 513.258 463.155 513.648 463.09C514.052 463.025 514.423 462.96 514.762 462.895C515.113 462.816 515.4 462.751 515.621 462.699L516.129 465.258C515.829 465.44 515.465 465.603 515.035 465.746C514.605 465.876 514.137 465.987 513.629 466.078C513.121 466.182 512.581 466.26 512.008 466.312C511.448 466.365 510.888 466.391 510.328 466.391C509.391 466.391 508.512 466.26 507.691 466C506.884 465.727 506.181 465.303 505.582 464.73C504.983 464.145 504.508 463.396 504.156 462.484C503.818 461.56 503.648 460.447 503.648 459.145V447.66H498.102V444.867H503.648V439.75H507.281Z" fill="#333333"/>
<path d="M675.48 462.934H689.387V466H671.867V437.562H675.48V462.934ZM695.988 444.867H706.789V462.875H713.684V466H695.988V462.875H703.176V448.012H695.988V444.867ZM702.707 439.32C702.707 438.721 702.883 438.22 703.234 437.816C703.599 437.4 704.146 437.191 704.875 437.191C705.591 437.191 706.132 437.4 706.496 437.816C706.861 438.22 707.043 438.721 707.043 439.32C707.043 439.906 706.861 440.395 706.496 440.785C706.132 441.176 705.591 441.371 704.875 441.371C704.146 441.371 703.599 441.176 703.234 440.785C702.883 440.395 702.707 439.906 702.707 439.32ZM722.688 444.867L722.941 447.992C723.71 446.898 724.654 446.046 725.773 445.434C726.893 444.809 728.143 444.49 729.523 444.477C730.63 444.477 731.633 444.633 732.531 444.945C733.443 445.258 734.217 445.746 734.855 446.41C735.493 447.074 735.982 447.921 736.32 448.949C736.672 449.965 736.848 451.176 736.848 452.582V466H733.234V452.66C733.234 451.723 733.13 450.928 732.922 450.277C732.714 449.626 732.401 449.099 731.984 448.695C731.581 448.292 731.079 447.999 730.48 447.816C729.895 447.634 729.217 447.543 728.449 447.543C727.238 447.543 726.171 447.849 725.246 448.461C724.335 449.06 723.605 449.854 723.059 450.844V466H719.445V444.867H722.688ZM752.805 466.391C751.32 466.391 749.953 466.137 748.703 465.629C747.466 465.121 746.405 464.411 745.52 463.5C744.634 462.589 743.944 461.508 743.449 460.258C742.954 459.008 742.707 457.647 742.707 456.176V455.355C742.707 453.65 742.98 452.126 743.527 450.785C744.074 449.431 744.797 448.292 745.695 447.367C746.607 446.43 747.635 445.714 748.781 445.219C749.94 444.724 751.125 444.477 752.336 444.477C753.859 444.477 755.188 444.743 756.32 445.277C757.466 445.798 758.417 446.527 759.172 447.465C759.927 448.389 760.487 449.483 760.852 450.746C761.229 452.009 761.418 453.376 761.418 454.848V456.469H746.32C746.359 457.432 746.542 458.337 746.867 459.184C747.206 460.03 747.661 460.772 748.234 461.41C748.82 462.035 749.517 462.53 750.324 462.895C751.132 463.259 752.023 463.441 753 463.441C754.289 463.441 755.435 463.181 756.438 462.66C757.44 462.139 758.273 461.449 758.938 460.59L761.145 462.309C760.793 462.842 760.35 463.357 759.816 463.852C759.296 464.333 758.69 464.763 758 465.141C757.31 465.518 756.529 465.818 755.656 466.039C754.784 466.273 753.833 466.391 752.805 466.391ZM752.336 447.445C751.607 447.445 750.917 447.582 750.266 447.855C749.615 448.116 749.029 448.507 748.508 449.027C747.987 449.535 747.544 450.167 747.18 450.922C746.828 451.664 746.581 452.523 746.438 453.5H757.805V453.227C757.766 452.523 757.629 451.827 757.395 451.137C757.173 450.447 756.841 449.828 756.398 449.281C755.956 448.734 755.396 448.292 754.719 447.953C754.055 447.615 753.26 447.445 752.336 447.445ZM781.379 466C781.236 465.727 781.118 465.388 781.027 464.984C780.949 464.568 780.891 464.138 780.852 463.695C780.487 464.06 780.077 464.405 779.621 464.73C779.178 465.056 778.684 465.342 778.137 465.59C777.603 465.837 777.03 466.033 776.418 466.176C775.806 466.319 775.155 466.391 774.465 466.391C773.345 466.391 772.329 466.228 771.418 465.902C770.52 465.577 769.751 465.141 769.113 464.594C768.488 464.034 768 463.376 767.648 462.621C767.31 461.853 767.141 461.026 767.141 460.141C767.141 458.982 767.368 457.966 767.824 457.094C768.293 456.221 768.951 455.499 769.797 454.926C770.643 454.34 771.659 453.904 772.844 453.617C774.042 453.331 775.376 453.188 776.848 453.188H780.793V451.527C780.793 450.889 780.676 450.316 780.441 449.809C780.207 449.301 779.875 448.871 779.445 448.52C779.016 448.155 778.488 447.875 777.863 447.68C777.251 447.484 776.561 447.387 775.793 447.387C775.077 447.387 774.432 447.478 773.859 447.66C773.299 447.842 772.824 448.083 772.434 448.383C772.043 448.682 771.737 449.04 771.516 449.457C771.307 449.861 771.203 450.284 771.203 450.727H767.57C767.583 449.958 767.779 449.203 768.156 448.461C768.547 447.719 769.1 447.055 769.816 446.469C770.546 445.87 771.424 445.388 772.453 445.023C773.495 444.659 774.673 444.477 775.988 444.477C777.186 444.477 778.299 444.626 779.328 444.926C780.357 445.212 781.242 445.655 781.984 446.254C782.74 446.84 783.332 447.576 783.762 448.461C784.191 449.346 784.406 450.382 784.406 451.566V461.391C784.406 462.094 784.471 462.842 784.602 463.637C784.732 464.418 784.914 465.102 785.148 465.688V466H781.379ZM774.992 463.246C775.695 463.246 776.353 463.155 776.965 462.973C777.577 462.79 778.13 462.549 778.625 462.25C779.133 461.951 779.569 461.612 779.934 461.234C780.298 460.844 780.585 460.44 780.793 460.023V455.746H777.434C775.324 455.746 773.684 456.059 772.512 456.684C771.34 457.309 770.754 458.292 770.754 459.633C770.754 460.154 770.839 460.635 771.008 461.078C771.19 461.521 771.457 461.905 771.809 462.23C772.16 462.543 772.603 462.79 773.137 462.973C773.671 463.155 774.289 463.246 774.992 463.246ZM790.852 455.258C790.852 453.682 791.04 452.237 791.418 450.922C791.809 449.594 792.368 448.454 793.098 447.504C793.827 446.553 794.712 445.811 795.754 445.277C796.796 444.743 797.974 444.477 799.289 444.477C800.591 444.477 801.73 444.711 802.707 445.18C803.697 445.635 804.536 446.299 805.227 447.172L805.402 444.867H808.684V465.551C808.684 466.944 808.462 468.181 808.02 469.262C807.59 470.342 806.978 471.26 806.184 472.016C805.402 472.771 804.465 473.344 803.371 473.734C802.277 474.125 801.066 474.32 799.738 474.32C799.191 474.32 798.566 474.255 797.863 474.125C797.16 474.008 796.444 473.806 795.715 473.52C794.999 473.246 794.302 472.875 793.625 472.406C792.961 471.938 792.388 471.358 791.906 470.668L793.781 468.5C794.224 469.034 794.68 469.483 795.148 469.848C795.617 470.225 796.092 470.525 796.574 470.746C797.056 470.967 797.538 471.124 798.02 471.215C798.501 471.319 798.983 471.371 799.465 471.371C800.324 471.371 801.099 471.247 801.789 471C802.479 470.753 803.065 470.388 803.547 469.906C804.042 469.438 804.419 468.852 804.68 468.148C804.94 467.445 805.07 466.638 805.07 465.727V463.91C804.367 464.717 803.534 465.336 802.57 465.766C801.62 466.182 800.513 466.391 799.25 466.391C797.961 466.391 796.796 466.117 795.754 465.57C794.712 465.023 793.827 464.268 793.098 463.305C792.382 462.341 791.828 461.208 791.438 459.906C791.047 458.591 790.852 457.178 790.852 455.668V455.258ZM794.465 455.668C794.465 456.697 794.569 457.673 794.777 458.598C794.999 459.522 795.337 460.336 795.793 461.039C796.262 461.742 796.854 462.302 797.57 462.719C798.286 463.122 799.146 463.324 800.148 463.324C800.773 463.324 801.333 463.253 801.828 463.109C802.336 462.953 802.785 462.738 803.176 462.465C803.579 462.191 803.938 461.866 804.25 461.488C804.562 461.111 804.836 460.694 805.07 460.238V450.551C804.836 450.108 804.562 449.704 804.25 449.34C803.938 448.975 803.579 448.663 803.176 448.402C802.772 448.129 802.323 447.921 801.828 447.777C801.333 447.621 800.786 447.543 800.188 447.543C799.172 447.543 798.299 447.751 797.57 448.168C796.854 448.585 796.262 449.151 795.793 449.867C795.337 450.57 794.999 451.391 794.777 452.328C794.569 453.253 794.465 454.229 794.465 455.258V455.668ZM824.875 466.391C823.391 466.391 822.023 466.137 820.773 465.629C819.536 465.121 818.475 464.411 817.59 463.5C816.704 462.589 816.014 461.508 815.52 460.258C815.025 459.008 814.777 457.647 814.777 456.176V455.355C814.777 453.65 815.051 452.126 815.598 450.785C816.145 449.431 816.867 448.292 817.766 447.367C818.677 446.43 819.706 445.714 820.852 445.219C822.01 444.724 823.195 444.477 824.406 444.477C825.93 444.477 827.258 444.743 828.391 445.277C829.536 445.798 830.487 446.527 831.242 447.465C831.997 448.389 832.557 449.483 832.922 450.746C833.299 452.009 833.488 453.376 833.488 454.848V456.469H818.391C818.43 457.432 818.612 458.337 818.938 459.184C819.276 460.03 819.732 460.772 820.305 461.41C820.891 462.035 821.587 462.53 822.395 462.895C823.202 463.259 824.094 463.441 825.07 463.441C826.359 463.441 827.505 463.181 828.508 462.66C829.51 462.139 830.344 461.449 831.008 460.59L833.215 462.309C832.863 462.842 832.421 463.357 831.887 463.852C831.366 464.333 830.76 464.763 830.07 465.141C829.38 465.518 828.599 465.818 827.727 466.039C826.854 466.273 825.904 466.391 824.875 466.391ZM824.406 447.445C823.677 447.445 822.987 447.582 822.336 447.855C821.685 448.116 821.099 448.507 820.578 449.027C820.057 449.535 819.615 450.167 819.25 450.922C818.898 451.664 818.651 452.523 818.508 453.5H829.875V453.227C829.836 452.523 829.699 451.827 829.465 451.137C829.243 450.447 828.911 449.828 828.469 449.281C828.026 448.734 827.466 448.292 826.789 447.953C826.125 447.615 825.331 447.445 824.406 447.445ZM854.445 458.812C854.445 457.94 854.243 457.204 853.84 456.605C853.449 456.007 852.941 455.505 852.316 455.102C851.691 454.685 851.001 454.34 850.246 454.066C849.504 453.793 848.788 453.546 848.098 453.324C847.095 452.999 846.073 452.608 845.031 452.152C844.003 451.697 843.059 451.137 842.199 450.473C841.353 449.809 840.656 449.027 840.109 448.129C839.576 447.217 839.309 446.15 839.309 444.926C839.309 443.702 839.576 442.608 840.109 441.645C840.656 440.681 841.366 439.867 842.238 439.203C843.111 438.539 844.1 438.038 845.207 437.699C846.314 437.348 847.427 437.172 848.547 437.172C849.784 437.172 850.975 437.38 852.121 437.797C853.267 438.201 854.283 438.773 855.168 439.516C856.053 440.258 856.763 441.156 857.297 442.211C857.831 443.266 858.111 444.444 858.137 445.746H854.426C854.322 444.926 854.12 444.184 853.82 443.52C853.521 442.842 853.124 442.263 852.629 441.781C852.134 441.299 851.542 440.928 850.852 440.668C850.174 440.395 849.406 440.258 848.547 440.258C847.857 440.258 847.18 440.355 846.516 440.551C845.865 440.746 845.279 441.039 844.758 441.43C844.25 441.82 843.84 442.302 843.527 442.875C843.228 443.448 843.078 444.112 843.078 444.867C843.091 445.688 843.299 446.384 843.703 446.957C844.107 447.517 844.615 447.992 845.227 448.383C845.852 448.773 846.522 449.099 847.238 449.359C847.967 449.62 848.651 449.848 849.289 450.043C849.992 450.264 850.702 450.518 851.418 450.805C852.134 451.078 852.824 451.397 853.488 451.762C854.152 452.126 854.771 452.536 855.344 452.992C855.917 453.448 856.418 453.969 856.848 454.555C857.277 455.128 857.609 455.766 857.844 456.469C858.091 457.159 858.215 457.927 858.215 458.773C858.215 460.049 857.928 461.163 857.355 462.113C856.796 463.064 856.066 463.858 855.168 464.496C854.27 465.121 853.254 465.596 852.121 465.922C850.988 466.234 849.855 466.391 848.723 466.391C847.46 466.391 846.223 466.195 845.012 465.805C843.801 465.414 842.714 464.854 841.75 464.125C840.799 463.383 840.025 462.484 839.426 461.43C838.827 460.362 838.508 459.151 838.469 457.797H842.16C842.277 458.682 842.518 459.47 842.883 460.16C843.247 460.837 843.716 461.417 844.289 461.898C844.862 462.367 845.52 462.725 846.262 462.973C847.017 463.207 847.837 463.324 848.723 463.324C849.426 463.324 850.116 463.24 850.793 463.07C851.483 462.888 852.095 462.615 852.629 462.25C853.163 461.872 853.599 461.404 853.938 460.844C854.276 460.271 854.445 459.594 854.445 458.812ZM863.215 466V437.562H869.797C871.776 437.589 873.54 437.927 875.09 438.578C876.652 439.216 877.967 440.115 879.035 441.273C880.116 442.419 880.936 443.799 881.496 445.414C882.069 447.016 882.362 448.793 882.375 450.746V452.836C882.362 454.789 882.069 456.573 881.496 458.188C880.936 459.789 880.116 461.169 879.035 462.328C877.967 463.474 876.652 464.372 875.09 465.023C873.54 465.661 871.776 465.987 869.797 466H863.215ZM866.887 440.531V463.051H869.797C871.333 463.038 872.661 462.771 873.781 462.25C874.901 461.716 875.826 460.993 876.555 460.082C877.297 459.171 877.844 458.096 878.195 456.859C878.56 455.622 878.749 454.281 878.762 452.836V450.707C878.749 449.262 878.56 447.927 878.195 446.703C877.831 445.466 877.284 444.398 876.555 443.5C875.826 442.589 874.901 441.872 873.781 441.352C872.661 440.831 871.333 440.557 869.797 440.531H866.887ZM894.426 452.797L891.262 456.391V466H887.57V437.562H891.262V451.449L894.016 448.012L902.355 437.562H906.75L896.809 450.004L907.414 466H903.02L894.426 452.797Z" fill="#333333"/>
<path d="M675.48 578.934H689.387V582H671.867V553.562H675.48V578.934ZM695.988 560.867H706.789V578.875H713.684V582H695.988V578.875H703.176V564.012H695.988V560.867ZM702.707 555.32C702.707 554.721 702.883 554.22 703.234 553.816C703.599 553.4 704.146 553.191 704.875 553.191C705.591 553.191 706.132 553.4 706.496 553.816C706.861 554.22 707.043 554.721 707.043 555.32C707.043 555.906 706.861 556.395 706.496 556.785C706.132 557.176 705.591 557.371 704.875 557.371C704.146 557.371 703.599 557.176 703.234 556.785C702.883 556.395 702.707 555.906 702.707 555.32ZM722.688 560.867L722.941 563.992C723.71 562.898 724.654 562.046 725.773 561.434C726.893 560.809 728.143 560.49 729.523 560.477C730.63 560.477 731.633 560.633 732.531 560.945C733.443 561.258 734.217 561.746 734.855 562.41C735.493 563.074 735.982 563.921 736.32 564.949C736.672 565.965 736.848 567.176 736.848 568.582V582H733.234V568.66C733.234 567.723 733.13 566.928 732.922 566.277C732.714 565.626 732.401 565.099 731.984 564.695C731.581 564.292 731.079 563.999 730.48 563.816C729.895 563.634 729.217 563.543 728.449 563.543C727.238 563.543 726.171 563.849 725.246 564.461C724.335 565.06 723.605 565.854 723.059 566.844V582H719.445V560.867H722.688ZM752.805 582.391C751.32 582.391 749.953 582.137 748.703 581.629C747.466 581.121 746.405 580.411 745.52 579.5C744.634 578.589 743.944 577.508 743.449 576.258C742.954 575.008 742.707 573.647 742.707 572.176V571.355C742.707 569.65 742.98 568.126 743.527 566.785C744.074 565.431 744.797 564.292 745.695 563.367C746.607 562.43 747.635 561.714 748.781 561.219C749.94 560.724 751.125 560.477 752.336 560.477C753.859 560.477 755.188 560.743 756.32 561.277C757.466 561.798 758.417 562.527 759.172 563.465C759.927 564.389 760.487 565.483 760.852 566.746C761.229 568.009 761.418 569.376 761.418 570.848V572.469H746.32C746.359 573.432 746.542 574.337 746.867 575.184C747.206 576.03 747.661 576.772 748.234 577.41C748.82 578.035 749.517 578.53 750.324 578.895C751.132 579.259 752.023 579.441 753 579.441C754.289 579.441 755.435 579.181 756.438 578.66C757.44 578.139 758.273 577.449 758.938 576.59L761.145 578.309C760.793 578.842 760.35 579.357 759.816 579.852C759.296 580.333 758.69 580.763 758 581.141C757.31 581.518 756.529 581.818 755.656 582.039C754.784 582.273 753.833 582.391 752.805 582.391ZM752.336 563.445C751.607 563.445 750.917 563.582 750.266 563.855C749.615 564.116 749.029 564.507 748.508 565.027C747.987 565.535 747.544 566.167 747.18 566.922C746.828 567.664 746.581 568.523 746.438 569.5H757.805V569.227C757.766 568.523 757.629 567.827 757.395 567.137C757.173 566.447 756.841 565.828 756.398 565.281C755.956 564.734 755.396 564.292 754.719 563.953C754.055 563.615 753.26 563.445 752.336 563.445ZM781.379 582C781.236 581.727 781.118 581.388 781.027 580.984C780.949 580.568 780.891 580.138 780.852 579.695C780.487 580.06 780.077 580.405 779.621 580.73C779.178 581.056 778.684 581.342 778.137 581.59C777.603 581.837 777.03 582.033 776.418 582.176C775.806 582.319 775.155 582.391 774.465 582.391C773.345 582.391 772.329 582.228 771.418 581.902C770.52 581.577 769.751 581.141 769.113 580.594C768.488 580.034 768 579.376 767.648 578.621C767.31 577.853 767.141 577.026 767.141 576.141C767.141 574.982 767.368 573.966 767.824 573.094C768.293 572.221 768.951 571.499 769.797 570.926C770.643 570.34 771.659 569.904 772.844 569.617C774.042 569.331 775.376 569.188 776.848 569.188H780.793V567.527C780.793 566.889 780.676 566.316 780.441 565.809C780.207 565.301 779.875 564.871 779.445 564.52C779.016 564.155 778.488 563.875 777.863 563.68C777.251 563.484 776.561 563.387 775.793 563.387C775.077 563.387 774.432 563.478 773.859 563.66C773.299 563.842 772.824 564.083 772.434 564.383C772.043 564.682 771.737 565.04 771.516 565.457C771.307 565.861 771.203 566.284 771.203 566.727H767.57C767.583 565.958 767.779 565.203 768.156 564.461C768.547 563.719 769.1 563.055 769.816 562.469C770.546 561.87 771.424 561.388 772.453 561.023C773.495 560.659 774.673 560.477 775.988 560.477C777.186 560.477 778.299 560.626 779.328 560.926C780.357 561.212 781.242 561.655 781.984 562.254C782.74 562.84 783.332 563.576 783.762 564.461C784.191 565.346 784.406 566.382 784.406 567.566V577.391C784.406 578.094 784.471 578.842 784.602 579.637C784.732 580.418 784.914 581.102 785.148 581.688V582H781.379ZM774.992 579.246C775.695 579.246 776.353 579.155 776.965 578.973C777.577 578.79 778.13 578.549 778.625 578.25C779.133 577.951 779.569 577.612 779.934 577.234C780.298 576.844 780.585 576.44 780.793 576.023V571.746H777.434C775.324 571.746 773.684 572.059 772.512 572.684C771.34 573.309 770.754 574.292 770.754 575.633C770.754 576.154 770.839 576.635 771.008 577.078C771.19 577.521 771.457 577.905 771.809 578.23C772.16 578.543 772.603 578.79 773.137 578.973C773.671 579.155 774.289 579.246 774.992 579.246ZM790.852 571.258C790.852 569.682 791.04 568.237 791.418 566.922C791.809 565.594 792.368 564.454 793.098 563.504C793.827 562.553 794.712 561.811 795.754 561.277C796.796 560.743 797.974 560.477 799.289 560.477C800.591 560.477 801.73 560.711 802.707 561.18C803.697 561.635 804.536 562.299 805.227 563.172L805.402 560.867H808.684V581.551C808.684 582.944 808.462 584.181 808.02 585.262C807.59 586.342 806.978 587.26 806.184 588.016C805.402 588.771 804.465 589.344 803.371 589.734C802.277 590.125 801.066 590.32 799.738 590.32C799.191 590.32 798.566 590.255 797.863 590.125C797.16 590.008 796.444 589.806 795.715 589.52C794.999 589.246 794.302 588.875 793.625 588.406C792.961 587.938 792.388 587.358 791.906 586.668L793.781 584.5C794.224 585.034 794.68 585.483 795.148 585.848C795.617 586.225 796.092 586.525 796.574 586.746C797.056 586.967 797.538 587.124 798.02 587.215C798.501 587.319 798.983 587.371 799.465 587.371C800.324 587.371 801.099 587.247 801.789 587C802.479 586.753 803.065 586.388 803.547 585.906C804.042 585.438 804.419 584.852 804.68 584.148C804.94 583.445 805.07 582.638 805.07 581.727V579.91C804.367 580.717 803.534 581.336 802.57 581.766C801.62 582.182 800.513 582.391 799.25 582.391C797.961 582.391 796.796 582.117 795.754 581.57C794.712 581.023 793.827 580.268 793.098 579.305C792.382 578.341 791.828 577.208 791.438 575.906C791.047 574.591 790.852 573.178 790.852 571.668V571.258ZM794.465 571.668C794.465 572.697 794.569 573.673 794.777 574.598C794.999 575.522 795.337 576.336 795.793 577.039C796.262 577.742 796.854 578.302 797.57 578.719C798.286 579.122 799.146 579.324 800.148 579.324C800.773 579.324 801.333 579.253 801.828 579.109C802.336 578.953 802.785 578.738 803.176 578.465C803.579 578.191 803.938 577.866 804.25 577.488C804.562 577.111 804.836 576.694 805.07 576.238V566.551C804.836 566.108 804.562 565.704 804.25 565.34C803.938 564.975 803.579 564.663 803.176 564.402C802.772 564.129 802.323 563.921 801.828 563.777C801.333 563.621 800.786 563.543 800.188 563.543C799.172 563.543 798.299 563.751 797.57 564.168C796.854 564.585 796.262 565.151 795.793 565.867C795.337 566.57 794.999 567.391 794.777 568.328C794.569 569.253 794.465 570.229 794.465 571.258V571.668ZM824.875 582.391C823.391 582.391 822.023 582.137 820.773 581.629C819.536 581.121 818.475 580.411 817.59 579.5C816.704 578.589 816.014 577.508 815.52 576.258C815.025 575.008 814.777 573.647 814.777 572.176V571.355C814.777 569.65 815.051 568.126 815.598 566.785C816.145 565.431 816.867 564.292 817.766 563.367C818.677 562.43 819.706 561.714 820.852 561.219C822.01 560.724 823.195 560.477 824.406 560.477C825.93 560.477 827.258 560.743 828.391 561.277C829.536 561.798 830.487 562.527 831.242 563.465C831.997 564.389 832.557 565.483 832.922 566.746C833.299 568.009 833.488 569.376 833.488 570.848V572.469H818.391C818.43 573.432 818.612 574.337 818.938 575.184C819.276 576.03 819.732 576.772 820.305 577.41C820.891 578.035 821.587 578.53 822.395 578.895C823.202 579.259 824.094 579.441 825.07 579.441C826.359 579.441 827.505 579.181 828.508 578.66C829.51 578.139 830.344 577.449 831.008 576.59L833.215 578.309C832.863 578.842 832.421 579.357 831.887 579.852C831.366 580.333 830.76 580.763 830.07 581.141C829.38 581.518 828.599 581.818 827.727 582.039C826.854 582.273 825.904 582.391 824.875 582.391ZM824.406 563.445C823.677 563.445 822.987 563.582 822.336 563.855C821.685 564.116 821.099 564.507 820.578 565.027C820.057 565.535 819.615 566.167 819.25 566.922C818.898 567.664 818.651 568.523 818.508 569.5H829.875V569.227C829.836 568.523 829.699 567.827 829.465 567.137C829.243 566.447 828.911 565.828 828.469 565.281C828.026 564.734 827.466 564.292 826.789 563.953C826.125 563.615 825.331 563.445 824.406 563.445ZM881.418 571.668C881.418 573.178 881.236 574.591 880.871 575.906C880.507 577.208 879.973 578.341 879.27 579.305C878.566 580.268 877.694 581.023 876.652 581.57C875.624 582.117 874.445 582.391 873.117 582.391C871.828 582.391 870.689 582.182 869.699 581.766C868.723 581.349 867.883 580.75 867.18 579.969V590.125H863.566V560.867H866.867L867.043 563.172C867.746 562.299 868.592 561.635 869.582 561.18C870.585 560.711 871.743 560.477 873.059 560.477C874.413 560.477 875.611 560.743 876.652 561.277C877.694 561.811 878.566 562.553 879.27 563.504C879.973 564.454 880.507 565.594 880.871 566.922C881.236 568.237 881.418 569.682 881.418 571.258V571.668ZM877.805 571.258C877.805 570.229 877.688 569.253 877.453 568.328C877.232 567.391 876.88 566.57 876.398 565.867C875.93 565.151 875.331 564.585 874.602 564.168C873.872 563.751 873 563.543 871.984 563.543C870.826 563.543 869.849 563.816 869.055 564.363C868.273 564.897 867.648 565.587 867.18 566.434V576.609C867.648 577.443 868.273 578.126 869.055 578.66C869.836 579.181 870.826 579.441 872.023 579.441C873.026 579.441 873.892 579.233 874.621 578.816C875.35 578.387 875.949 577.814 876.418 577.098C876.887 576.382 877.232 575.555 877.453 574.617C877.688 573.68 877.805 572.697 877.805 571.668V571.258ZM888.176 552H898.977V578.875H905.871V582H888.176V578.875H895.363V555.145H888.176V552ZM925.52 582C925.376 581.727 925.259 581.388 925.168 580.984C925.09 580.568 925.031 580.138 924.992 579.695C924.628 580.06 924.217 580.405 923.762 580.73C923.319 581.056 922.824 581.342 922.277 581.59C921.743 581.837 921.171 582.033 920.559 582.176C919.947 582.319 919.296 582.391 918.605 582.391C917.486 582.391 916.47 582.228 915.559 581.902C914.66 581.577 913.892 581.141 913.254 580.594C912.629 580.034 912.141 579.376 911.789 578.621C911.451 577.853 911.281 577.026 911.281 576.141C911.281 574.982 911.509 573.966 911.965 573.094C912.434 572.221 913.091 571.499 913.938 570.926C914.784 570.34 915.799 569.904 916.984 569.617C918.182 569.331 919.517 569.188 920.988 569.188H924.934V567.527C924.934 566.889 924.816 566.316 924.582 565.809C924.348 565.301 924.016 564.871 923.586 564.52C923.156 564.155 922.629 563.875 922.004 563.68C921.392 563.484 920.702 563.387 919.934 563.387C919.217 563.387 918.573 563.478 918 563.66C917.44 563.842 916.965 564.083 916.574 564.383C916.184 564.682 915.878 565.04 915.656 565.457C915.448 565.861 915.344 566.284 915.344 566.727H911.711C911.724 565.958 911.919 565.203 912.297 564.461C912.688 563.719 913.241 563.055 913.957 562.469C914.686 561.87 915.565 561.388 916.594 561.023C917.635 560.659 918.814 560.477 920.129 560.477C921.327 560.477 922.44 560.626 923.469 560.926C924.497 561.212 925.383 561.655 926.125 562.254C926.88 562.84 927.473 563.576 927.902 564.461C928.332 565.346 928.547 566.382 928.547 567.566V577.391C928.547 578.094 928.612 578.842 928.742 579.637C928.872 580.418 929.055 581.102 929.289 581.688V582H925.52ZM919.133 579.246C919.836 579.246 920.493 579.155 921.105 578.973C921.717 578.79 922.271 578.549 922.766 578.25C923.273 577.951 923.71 577.612 924.074 577.234C924.439 576.844 924.725 576.44 924.934 576.023V571.746H921.574C919.465 571.746 917.824 572.059 916.652 572.684C915.48 573.309 914.895 574.292 914.895 575.633C914.895 576.154 914.979 576.635 915.148 577.078C915.331 577.521 915.598 577.905 915.949 578.23C916.301 578.543 916.743 578.79 917.277 578.973C917.811 579.155 918.43 579.246 919.133 579.246ZM944.211 555.75V560.867H952.258V563.66H944.211V575.145C944.211 575.965 944.315 576.642 944.523 577.176C944.732 577.71 945.018 578.139 945.383 578.465C945.747 578.777 946.164 578.999 946.633 579.129C947.115 579.259 947.622 579.324 948.156 579.324C948.547 579.324 948.951 579.305 949.367 579.266C949.784 579.214 950.188 579.155 950.578 579.09C950.982 579.025 951.353 578.96 951.691 578.895C952.043 578.816 952.329 578.751 952.551 578.699L953.059 581.258C952.759 581.44 952.395 581.603 951.965 581.746C951.535 581.876 951.066 581.987 950.559 582.078C950.051 582.182 949.51 582.26 948.938 582.312C948.378 582.365 947.818 582.391 947.258 582.391C946.32 582.391 945.441 582.26 944.621 582C943.814 581.727 943.111 581.303 942.512 580.73C941.913 580.145 941.438 579.396 941.086 578.484C940.747 577.56 940.578 576.447 940.578 575.145V563.66H935.031V560.867H940.578V555.75H944.211ZM965.07 582V563.66H959.25V560.867H965.07V559.383C965.07 558.029 965.266 556.844 965.656 555.828C966.06 554.799 966.62 553.94 967.336 553.25C968.065 552.56 968.938 552.039 969.953 551.688C970.969 551.336 972.102 551.16 973.352 551.16C974.211 551.16 975.044 551.232 975.852 551.375C976.672 551.518 977.512 551.701 978.371 551.922L977.941 554.91C977.408 554.728 976.783 554.572 976.066 554.441C975.363 554.298 974.608 554.227 973.801 554.227C972.108 554.24 970.832 554.669 969.973 555.516C969.126 556.362 968.703 557.651 968.703 559.383V560.867H976.848V563.66H968.703V582H965.07ZM982.688 571.238C982.688 569.715 982.909 568.302 983.352 567C983.794 565.685 984.426 564.546 985.246 563.582C986.079 562.618 987.089 561.863 988.273 561.316C989.458 560.757 990.793 560.477 992.277 560.477C993.775 560.477 995.116 560.757 996.301 561.316C997.499 561.863 998.508 562.618 999.328 563.582C1000.16 564.546 1000.8 565.685 1001.24 567C1001.68 568.302 1001.91 569.715 1001.91 571.238V571.668C1001.91 573.191 1001.68 574.604 1001.24 575.906C1000.8 577.208 1000.16 578.341 999.328 579.305C998.508 580.268 997.505 581.023 996.32 581.57C995.135 582.117 993.801 582.391 992.316 582.391C990.819 582.391 989.471 582.117 988.273 581.57C987.089 581.023 986.079 580.268 985.246 579.305C984.426 578.341 983.794 577.208 983.352 575.906C982.909 574.604 982.688 573.191 982.688 571.668V571.238ZM986.301 571.668C986.301 572.71 986.424 573.706 986.672 574.656C986.919 575.594 987.29 576.421 987.785 577.137C988.293 577.853 988.924 578.419 989.68 578.836C990.435 579.253 991.314 579.461 992.316 579.461C993.306 579.461 994.172 579.253 994.914 578.836C995.669 578.419 996.294 577.853 996.789 577.137C997.297 576.421 997.674 575.594 997.922 574.656C998.169 573.706 998.293 572.71 998.293 571.668V571.238C998.293 570.21 998.163 569.227 997.902 568.289C997.655 567.339 997.277 566.505 996.77 565.789C996.275 565.073 995.65 564.507 994.895 564.09C994.152 563.66 993.28 563.445 992.277 563.445C991.275 563.445 990.402 563.66 989.66 564.09C988.918 564.507 988.293 565.073 987.785 565.789C987.29 566.505 986.919 567.339 986.672 568.289C986.424 569.227 986.301 570.21 986.301 571.238V571.668ZM1021.57 560.477C1021.91 560.477 1022.26 560.49 1022.63 560.516C1022.99 560.529 1023.34 560.561 1023.66 560.613C1024 560.652 1024.31 560.704 1024.58 560.77C1024.87 560.835 1025.1 560.906 1025.29 560.984L1024.8 564.52C1024.09 564.363 1023.42 564.253 1022.79 564.188C1022.16 564.109 1021.5 564.07 1020.81 564.07C1019.12 564.07 1017.75 564.454 1016.69 565.223C1015.65 565.991 1014.88 567.065 1014.39 568.445V582H1010.75V560.867H1014.19L1014.37 564.227C1015.23 563.068 1016.26 562.156 1017.45 561.492C1018.66 560.815 1020.04 560.477 1021.57 560.477ZM1033.41 560.867L1033.51 562.859C1033.94 562.117 1034.5 561.538 1035.19 561.121C1035.89 560.704 1036.74 560.49 1037.73 560.477C1039.67 560.477 1040.96 561.232 1041.61 562.742C1042.03 562.065 1042.58 561.525 1043.25 561.121C1043.94 560.704 1044.78 560.49 1045.75 560.477C1047.3 560.477 1048.49 560.952 1049.33 561.902C1050.16 562.853 1050.58 564.292 1050.58 566.219V582H1047.14V566.18C1047.14 564.409 1046.33 563.53 1044.7 563.543C1044.27 563.543 1043.9 563.602 1043.59 563.719C1043.27 563.836 1043.01 563.999 1042.8 564.207C1042.6 564.402 1042.43 564.637 1042.32 564.91C1042.2 565.171 1042.12 565.444 1042.08 565.73V582H1038.64V566.16C1038.64 565.314 1038.46 564.663 1038.08 564.207C1037.7 563.751 1037.1 563.53 1036.28 563.543C1035.53 563.543 1034.94 563.693 1034.52 563.992C1034.11 564.292 1033.8 564.689 1033.61 565.184V582H1030.17V560.867H1033.41Z" fill="#333333"/>
<path d="M175.973 733.637H166.48L164.195 741H160.582L169.762 712.562H172.789L181.812 741H178.219L175.973 733.637ZM167.457 730.492H175.016L171.266 718.148L167.457 730.492ZM189.664 719.867L189.918 722.992C190.686 721.898 191.63 721.046 192.75 720.434C193.87 719.809 195.12 719.49 196.5 719.477C197.607 719.477 198.609 719.633 199.508 719.945C200.419 720.258 201.194 720.746 201.832 721.41C202.47 722.074 202.958 722.921 203.297 723.949C203.648 724.965 203.824 726.176 203.824 727.582V741H200.211V727.66C200.211 726.723 200.107 725.928 199.898 725.277C199.69 724.626 199.378 724.099 198.961 723.695C198.557 723.292 198.056 722.999 197.457 722.816C196.871 722.634 196.194 722.543 195.426 722.543C194.215 722.543 193.147 722.849 192.223 723.461C191.311 724.06 190.582 724.854 190.035 725.844V741H186.422V719.867H189.664ZM209.762 730.258C209.762 728.682 209.957 727.237 210.348 725.922C210.751 724.594 211.318 723.454 212.047 722.504C212.789 721.553 213.681 720.811 214.723 720.277C215.764 719.743 216.93 719.477 218.219 719.477C219.482 719.477 220.582 719.691 221.52 720.121C222.47 720.538 223.29 721.15 223.98 721.957V711H227.594V741H224.273L224.117 738.773C223.414 739.633 222.574 740.284 221.598 740.727C220.621 741.169 219.482 741.391 218.18 741.391C216.904 741.391 215.745 741.117 214.703 740.57C213.674 740.023 212.796 739.268 212.066 738.305C211.337 737.341 210.771 736.208 210.367 734.906C209.964 733.591 209.762 732.178 209.762 730.668V730.258ZM213.375 730.668C213.375 731.697 213.486 732.673 213.707 733.598C213.928 734.522 214.267 735.336 214.723 736.039C215.191 736.742 215.784 737.302 216.5 737.719C217.216 738.122 218.076 738.324 219.078 738.324C219.69 738.324 220.243 738.253 220.738 738.109C221.233 737.966 221.682 737.764 222.086 737.504C222.49 737.23 222.848 736.911 223.16 736.547C223.473 736.169 223.746 735.753 223.98 735.297V725.492C223.512 724.633 222.88 723.93 222.086 723.383C221.292 722.823 220.302 722.543 219.117 722.543C218.102 722.543 217.229 722.751 216.5 723.168C215.784 723.585 215.191 724.151 214.723 724.867C214.267 725.57 213.928 726.391 213.707 727.328C213.486 728.253 213.375 729.229 213.375 730.258V730.668ZM248.316 719.477C248.655 719.477 249.007 719.49 249.371 719.516C249.736 719.529 250.081 719.561 250.406 719.613C250.745 719.652 251.051 719.704 251.324 719.77C251.611 719.835 251.845 719.906 252.027 719.984L251.539 723.52C250.836 723.363 250.165 723.253 249.527 723.188C248.902 723.109 248.245 723.07 247.555 723.07C245.862 723.07 244.488 723.454 243.434 724.223C242.392 724.991 241.624 726.065 241.129 727.445V741H237.496V719.867H240.934L241.109 723.227C241.969 722.068 242.997 721.156 244.195 720.492C245.406 719.815 246.78 719.477 248.316 719.477ZM257.477 730.238C257.477 728.715 257.698 727.302 258.141 726C258.583 724.685 259.215 723.546 260.035 722.582C260.868 721.618 261.878 720.863 263.062 720.316C264.247 719.757 265.582 719.477 267.066 719.477C268.564 719.477 269.905 719.757 271.09 720.316C272.288 720.863 273.297 721.618 274.117 722.582C274.951 723.546 275.589 724.685 276.031 726C276.474 727.302 276.695 728.715 276.695 730.238V730.668C276.695 732.191 276.474 733.604 276.031 734.906C275.589 736.208 274.951 737.341 274.117 738.305C273.297 739.268 272.294 740.023 271.109 740.57C269.924 741.117 268.59 741.391 267.105 741.391C265.608 741.391 264.26 741.117 263.062 740.57C261.878 740.023 260.868 739.268 260.035 738.305C259.215 737.341 258.583 736.208 258.141 734.906C257.698 733.604 257.477 732.191 257.477 730.668V730.238ZM261.09 730.668C261.09 731.71 261.214 732.706 261.461 733.656C261.708 734.594 262.079 735.421 262.574 736.137C263.082 736.853 263.714 737.419 264.469 737.836C265.224 738.253 266.103 738.461 267.105 738.461C268.095 738.461 268.961 738.253 269.703 737.836C270.458 737.419 271.083 736.853 271.578 736.137C272.086 735.421 272.464 734.594 272.711 733.656C272.958 732.706 273.082 731.71 273.082 730.668V730.238C273.082 729.21 272.952 728.227 272.691 727.289C272.444 726.339 272.066 725.505 271.559 724.789C271.064 724.073 270.439 723.507 269.684 723.09C268.941 722.66 268.069 722.445 267.066 722.445C266.064 722.445 265.191 722.66 264.449 723.09C263.707 723.507 263.082 724.073 262.574 724.789C262.079 725.505 261.708 726.339 261.461 727.289C261.214 728.227 261.09 729.21 261.09 730.238V730.668ZM283.082 719.867H293.883V737.875H300.777V741H283.082V737.875H290.27V723.012H283.082V719.867ZM289.801 714.32C289.801 713.721 289.977 713.22 290.328 712.816C290.693 712.4 291.24 712.191 291.969 712.191C292.685 712.191 293.225 712.4 293.59 712.816C293.954 713.22 294.137 713.721 294.137 714.32C294.137 714.906 293.954 715.395 293.59 715.785C293.225 716.176 292.685 716.371 291.969 716.371C291.24 716.371 290.693 716.176 290.328 715.785C289.977 715.395 289.801 714.906 289.801 714.32ZM305.855 730.258C305.855 728.682 306.051 727.237 306.441 725.922C306.845 724.594 307.411 723.454 308.141 722.504C308.883 721.553 309.775 720.811 310.816 720.277C311.858 719.743 313.023 719.477 314.312 719.477C315.576 719.477 316.676 719.691 317.613 720.121C318.564 720.538 319.384 721.15 320.074 721.957V711H323.688V741H320.367L320.211 738.773C319.508 739.633 318.668 740.284 317.691 740.727C316.715 741.169 315.576 741.391 314.273 741.391C312.997 741.391 311.839 741.117 310.797 740.57C309.768 740.023 308.889 739.268 308.16 738.305C307.431 737.341 306.865 736.208 306.461 734.906C306.057 733.591 305.855 732.178 305.855 730.668V730.258ZM309.469 730.668C309.469 731.697 309.579 732.673 309.801 733.598C310.022 734.522 310.361 735.336 310.816 736.039C311.285 736.742 311.878 737.302 312.594 737.719C313.31 738.122 314.169 738.324 315.172 738.324C315.784 738.324 316.337 738.253 316.832 738.109C317.327 737.966 317.776 737.764 318.18 737.504C318.583 737.23 318.941 736.911 319.254 736.547C319.566 736.169 319.84 735.753 320.074 735.297V725.492C319.605 724.633 318.974 723.93 318.18 723.383C317.385 722.823 316.396 722.543 315.211 722.543C314.195 722.543 313.323 722.751 312.594 723.168C311.878 723.585 311.285 724.151 310.816 724.867C310.361 725.57 310.022 726.391 309.801 727.328C309.579 728.253 309.469 729.229 309.469 730.258V730.668ZM373.082 728.422C373.069 729.438 372.978 730.466 372.809 731.508C372.652 732.536 372.405 733.533 372.066 734.496C371.728 735.46 371.292 736.358 370.758 737.191C370.237 738.025 369.612 738.754 368.883 739.379C368.154 740.004 367.314 740.499 366.363 740.863C365.426 741.215 364.371 741.391 363.199 741.391C362.027 741.391 360.966 741.215 360.016 740.863C359.078 740.499 358.245 740.004 357.516 739.379C356.786 738.754 356.155 738.025 355.621 737.191C355.087 736.345 354.645 735.44 354.293 734.477C353.954 733.513 353.701 732.517 353.531 731.488C353.362 730.46 353.271 729.438 353.258 728.422V725.18C353.271 724.164 353.355 723.142 353.512 722.113C353.681 721.072 353.935 720.069 354.273 719.105C354.625 718.142 355.061 717.243 355.582 716.41C356.116 715.564 356.747 714.828 357.477 714.203C358.206 713.565 359.039 713.07 359.977 712.719C360.927 712.354 361.988 712.172 363.16 712.172C364.332 712.172 365.393 712.354 366.344 712.719C367.294 713.07 368.134 713.559 368.863 714.184C369.592 714.809 370.217 715.544 370.738 716.391C371.272 717.224 371.708 718.122 372.047 719.086C372.398 720.049 372.652 721.052 372.809 722.094C372.978 723.135 373.069 724.164 373.082 725.18V728.422ZM369.508 725.141C369.495 724.464 369.449 723.76 369.371 723.031C369.293 722.289 369.156 721.56 368.961 720.844C368.779 720.115 368.531 719.424 368.219 718.773C367.906 718.109 367.516 717.53 367.047 717.035C366.578 716.527 366.025 716.13 365.387 715.844C364.749 715.544 364.007 715.395 363.16 715.395C362.327 715.395 361.591 715.544 360.953 715.844C360.315 716.143 359.762 716.547 359.293 717.055C358.824 717.549 358.434 718.129 358.121 718.793C357.809 719.444 357.555 720.134 357.359 720.863C357.177 721.579 357.04 722.309 356.949 723.051C356.871 723.78 356.826 724.477 356.812 725.141V728.422C356.826 729.086 356.871 729.789 356.949 730.531C357.04 731.273 357.184 732.009 357.379 732.738C357.574 733.454 357.828 734.145 358.141 734.809C358.453 735.473 358.844 736.059 359.312 736.566C359.781 737.061 360.335 737.458 360.973 737.758C361.611 738.057 362.353 738.207 363.199 738.207C364.046 738.207 364.788 738.057 365.426 737.758C366.077 737.458 366.63 737.061 367.086 736.566C367.555 736.059 367.939 735.479 368.238 734.828C368.551 734.164 368.798 733.474 368.98 732.758C369.176 732.029 369.306 731.293 369.371 730.551C369.449 729.809 369.495 729.099 369.508 728.422V725.141ZM393.492 733.812C393.492 732.94 393.29 732.204 392.887 731.605C392.496 731.007 391.988 730.505 391.363 730.102C390.738 729.685 390.048 729.34 389.293 729.066C388.551 728.793 387.835 728.546 387.145 728.324C386.142 727.999 385.12 727.608 384.078 727.152C383.049 726.697 382.105 726.137 381.246 725.473C380.4 724.809 379.703 724.027 379.156 723.129C378.622 722.217 378.355 721.15 378.355 719.926C378.355 718.702 378.622 717.608 379.156 716.645C379.703 715.681 380.413 714.867 381.285 714.203C382.158 713.539 383.147 713.038 384.254 712.699C385.361 712.348 386.474 712.172 387.594 712.172C388.831 712.172 390.022 712.38 391.168 712.797C392.314 713.201 393.329 713.773 394.215 714.516C395.1 715.258 395.81 716.156 396.344 717.211C396.878 718.266 397.158 719.444 397.184 720.746H393.473C393.368 719.926 393.167 719.184 392.867 718.52C392.568 717.842 392.171 717.263 391.676 716.781C391.181 716.299 390.589 715.928 389.898 715.668C389.221 715.395 388.453 715.258 387.594 715.258C386.904 715.258 386.227 715.355 385.562 715.551C384.911 715.746 384.326 716.039 383.805 716.43C383.297 716.82 382.887 717.302 382.574 717.875C382.275 718.448 382.125 719.112 382.125 719.867C382.138 720.688 382.346 721.384 382.75 721.957C383.154 722.517 383.661 722.992 384.273 723.383C384.898 723.773 385.569 724.099 386.285 724.359C387.014 724.62 387.698 724.848 388.336 725.043C389.039 725.264 389.749 725.518 390.465 725.805C391.181 726.078 391.871 726.397 392.535 726.762C393.199 727.126 393.818 727.536 394.391 727.992C394.964 728.448 395.465 728.969 395.895 729.555C396.324 730.128 396.656 730.766 396.891 731.469C397.138 732.159 397.262 732.927 397.262 733.773C397.262 735.049 396.975 736.163 396.402 737.113C395.842 738.064 395.113 738.858 394.215 739.496C393.316 740.121 392.301 740.596 391.168 740.922C390.035 741.234 388.902 741.391 387.77 741.391C386.507 741.391 385.27 741.195 384.059 740.805C382.848 740.414 381.76 739.854 380.797 739.125C379.846 738.383 379.072 737.484 378.473 736.43C377.874 735.362 377.555 734.151 377.516 732.797H381.207C381.324 733.682 381.565 734.47 381.93 735.16C382.294 735.837 382.763 736.417 383.336 736.898C383.909 737.367 384.566 737.725 385.309 737.973C386.064 738.207 386.884 738.324 387.77 738.324C388.473 738.324 389.163 738.24 389.84 738.07C390.53 737.888 391.142 737.615 391.676 737.25C392.21 736.872 392.646 736.404 392.984 735.844C393.323 735.271 393.492 734.594 393.492 733.812Z" fill="#333333"/>
<circle cx="595" cy="457" r="38" fill="#FF5630"/>
<path d="M601 451H589V463H601V451ZM597 459H593V455H597V459ZM613 455V451H609V447C609 444.79 607.21 443 605 443H601V439H597V443H593V439H589V443H585C582.79 443 581 444.79 581 447V451H577V455H581V459H577V463H581V467C581 469.21 582.79 471 585 471H589V475H593V471H597V475H601V471H605C607.21 471 609 469.21 609 467V463H613V459H609V455H613ZM605 467H585V447H605V467Z" fill="white"/>
<circle cx="595" cy="573" r="38" fill="#116677"/>
<path d="M595 559.5C602.425 559.5 608.5 565.575 608.5 573C608.5 580.425 602.425 586.5 595 586.5C587.575 586.5 581.5 580.425 581.5 573C581.5 565.575 587.575 559.5 595 559.5ZM595 555C585.1 555 577 563.1 577 573C577 582.9 585.1 591 595 591C604.9 591 613 582.9 613 573C613 563.1 604.9 555 595 555ZM595 566.25C591.175 566.25 588.25 569.175 588.25 573C588.25 576.825 591.175 579.75 595 579.75C598.825 579.75 601.75 576.825 601.75 573C601.75 569.175 598.825 566.25 595 566.25Z" fill="white"/>
<circle cx="86" cy="732" r="38" fill="#8BC34A"/>
<path d="M74 744.002C74 745.102 74.9 746.002 76 746.002H78V753.002C78 754.662 79.34 756.002 81 756.002C82.66 756.002 84 754.662 84 753.002V746.002H88V753.002C88 754.662 89.34 756.002 91 756.002C92.66 756.002 94 754.662 94 753.002V746.002H96C97.1 746.002 98 745.102 98 744.002V724.003H74V744.002ZM69 724.003C67.34 724.003 66 725.343 66 727.003V741.002C66 742.662 67.34 744.002 69 744.002C70.66 744.002 72 742.662 72 741.002V727.003C72 725.343 70.66 724.003 69 724.003ZM103 724.003C101.34 724.003 100 725.343 100 727.003V741.002C100 742.662 101.34 744.002 103 744.002C104.66 744.002 106 742.662 106 741.002V727.003C106 725.343 104.66 724.003 103 724.003ZM93.06 712.323L95.67 709.713C96.06 709.323 96.06 708.692 95.67 708.303C95.28 707.913 94.65 707.913 94.26 708.303L91.3 711.253C89.7 710.463 87.91 710.003 86 710.003C84.08 710.003 82.28 710.463 80.67 711.263L77.7 708.292C77.31 707.903 76.68 707.903 76.29 708.292C75.9 708.683 75.9 709.313 76.29 709.703L78.91 712.323C75.94 714.513 74 718.032 74 722.002H98C98 718.022 96.05 714.503 93.06 712.323ZM82 718.002H80V716.002H82V718.002ZM92 718.002H90V716.002H92V718.002Z" fill="white"/>
<circle cx="86" cy="457" r="38" fill="#4CAF50"/>
<path d="M102 449H96.38C95.48 447.44 94.24 446.09 92.75 445.08L96 441.83L93.17 439L88.82 443.35C87.92 443.13 86.97 443 86 443C85.03 443 84.08 443.13 83.18 443.35L78.83 439L76 441.83L79.25 445.08C77.76 446.09 76.52 447.44 75.62 449H70V453H74.18C74.07 453.65 74 454.32 74 455V457H70V461H74V463C74 463.68 74.07 464.35 74.18 465H70V469H75.62C77.69 472.58 81.56 475 86 475C90.44 475 94.31 472.58 96.38 469H102V465H97.82C97.93 464.35 98 463.68 98 463V461H102V457H98V455C98 454.32 97.93 453.65 97.82 453H102V449ZM90 465H82V461H90V465ZM90 457H82V453H90V457Z" fill="white"/>
<circle cx="86" cy="299" r="38" fill="#FFC107"/>
<path d="M105 298H102V290C102 287.79 100.21 286 98 286H90V283C90 280.24 87.76 278 85 278C82.24 278 80 280.24 80 283V286H72C69.79 286 68.02 287.79 68.02 290L68.01 297.6H71C73.98 297.6 76.4 300.02 76.4 303C76.4 305.98 73.98 308.4 71 308.4H68.01L68 316C68 318.21 69.79 320 72 320H79.6V317C79.6 314.02 82.02 311.6 85 311.6C87.98 311.6 90.4 314.02 90.4 317V320H98C100.21 320 102 318.21 102 316V308H105C107.76 308 110 305.76 110 303C110 300.24 107.76 298 105 298Z" fill="white"/>
<circle cx="86" cy="183" r="38" fill="#FF991F"/>
<path d="M80.8 192.2L71.7 183L80.9 173.8L78 171L66 183L78 195L80.8 192.2ZM91.2 192.2L100.4 183L91.2 173.8L94 171L106 183L94 195L91.2 192.2Z" fill="white"/>
<circle cx="86" cy="67" r="38" fill="#2684FF"/>
<path d="M72 74.11C72 81.84 78.27 88.11 86 88.11C93.73 88.11 100 81.84 100 74.11V66.11H72V74.11ZM94.25 50.85L98.45 46.65L96.8 45L92.19 49.61C90.31 48.68 88.23 48.11 86 48.11C83.77 48.11 81.69 48.68 79.81 49.61L75.2 45L73.55 46.65L77.75 50.85C74.28 53.39 72 57.47 72 62.11V64.11H100V62.11C100 57.47 97.72 53.39 94.25 50.85ZM80 60.11C78.89 60.11 78 59.21 78 58.11C78 57.01 78.89 56.11 80 56.11C81.11 56.11 82 57.01 82 58.11C82 59.21 81.11 60.11 80 60.11ZM92 60.11C90.89 60.11 90 59.21 90 58.11C90 57.01 90.89 56.11 92 56.11C93.11 56.11 94 57.01 94 58.11C94 59.21 93.11 60.11 92 60.11Z" fill="white"/>
<path d="M772.732 57.3269C772.359 57.3379 771.987 57.2724 771.639 57.1345C771.292 56.9965 770.976 56.789 770.712 56.5246C770.447 56.2603 770.24 55.9446 770.102 55.5971C769.964 55.2497 769.898 54.8776 769.909 54.5039V22.5836H776.892V51.5114H792.313V57.3468L772.732 57.3269ZM813.241 57.3269V22.5736H820.224V57.3269H813.241ZM867.426 22.5836H873.8V55.4216C873.798 55.7578 873.704 56.0869 873.528 56.3735C873.352 56.66 873.101 56.8931 872.803 57.0476C872.04 57.4778 871.174 57.6884 870.299 57.6561C869.426 57.698 868.554 57.5482 867.745 57.2172C867.072 56.8601 866.496 56.3428 866.069 55.7109L850.708 33.9652V57.3269H844.234V25.1571C844.204 24.7514 844.28 24.345 844.455 23.9777C844.63 23.6104 844.898 23.295 845.231 23.0624C846.036 22.5767 846.966 22.3407 847.905 22.3841C848.877 22.3288 849.846 22.5392 850.708 22.9925C851.547 23.6379 852.263 24.4284 852.822 25.3267L867.376 45.666L867.426 22.5836ZM920.883 28.4689H904.923V36.6884H919.327V42.5737H904.863V51.3817H920.434V57.3668H897.86V25.4464C897.854 25.0702 897.929 24.697 898.08 24.3526C898.232 24.0082 898.456 23.7007 898.738 23.4514C899.312 22.9357 900.061 22.6576 900.833 22.6733H920.883V28.4689ZM964.993 57.3269L962.07 48.7184H949.362L946.469 57.3269H939.217L950.998 25.1671C951.663 23.3184 953.235 22.394 955.716 22.394C958.196 22.394 959.769 23.3317 960.434 25.207L972.205 57.3269H964.993ZM951.357 42.8231H960.065L955.696 29.9751L951.357 42.8231ZM1006.81 57.9054C1001.49 57.9054 997.319 56.3161 994.3 53.1373C991.28 49.9586 989.754 45.6593 989.721 40.2395C989.721 34.6601 991.344 30.2245 994.589 26.9327C997.834 23.6409 1002.13 21.9784 1007.49 21.9451C1010.63 21.8518 1013.73 22.6249 1016.46 24.1796C1018.83 25.5439 1020.72 27.597 1021.89 30.0649L1016.29 33.0574C1014.61 29.6725 1011.65 27.9801 1007.4 27.9801C1005.96 27.9174 1004.52 28.1747 1003.19 28.7335C1001.86 29.2923 1000.67 30.1388 999.706 31.212C997.791 33.3667 996.833 36.3093 996.833 40.04C996.833 43.7707 997.724 46.6668 999.507 48.7283C1000.41 49.7745 1001.55 50.6008 1002.82 51.1451C1004.09 51.6894 1005.47 51.9375 1006.86 51.8705C1009.37 51.9676 1011.82 51.1245 1013.74 49.5064C1014.61 48.7707 1015.31 47.8544 1015.8 46.821C1016.28 45.7876 1016.53 44.6617 1016.53 43.5213H1007.73V37.9552H1023.45V41.8455C1023.53 43.9927 1023.15 46.1328 1022.35 48.1253C1021.54 50.1177 1020.33 51.9175 1018.78 53.4067C1017.18 54.9089 1015.3 56.0798 1013.24 56.8519C1011.19 57.624 1009 57.9821 1006.81 57.9054ZM1069.16 28.4689H1053.2V36.6884H1067.61V42.5737H1053.2V51.3817H1068.77V57.3668H1046.15V25.4464C1046.14 25.0702 1046.22 24.697 1046.37 24.3526C1046.52 24.0082 1046.75 23.7007 1047.03 23.4514C1047.6 22.9357 1048.35 22.6576 1049.12 22.6733H1069.16V28.4689Z" fill="#167C80"/>
<path d="M739.984 39.9502C738.496 39.9506 737.026 40.284 735.683 40.9261C734.34 41.5681 733.158 42.5026 732.223 43.661L731.844 43.5113C728.014 41.9961 724.063 40.8048 720.034 39.9502C720.034 34.6591 717.932 29.5847 714.19 25.8433C710.449 22.1019 705.375 20 700.084 20C694.792 20 689.718 22.1019 685.977 25.8433C682.235 29.5847 680.133 34.6591 680.133 39.9502L679.704 40.04C675.82 40.8721 672.01 42.0197 668.313 43.4714L667.934 43.6211C666.371 41.6727 664.14 40.3744 661.674 39.978C659.208 39.5815 656.682 40.1153 654.588 41.4757C652.493 42.8361 650.978 44.9262 650.337 47.3403C649.696 49.7545 649.975 52.3206 651.12 54.5408C652.264 56.761 654.192 58.477 656.53 59.3558C658.868 60.2346 661.449 60.2136 663.773 59.2969C666.096 58.3801 667.996 56.633 669.104 54.3944C670.212 52.1559 670.449 49.5856 669.769 47.1822C673.266 45.8104 676.869 44.7262 680.542 43.9403C681.468 48.4395 683.917 52.4816 687.477 55.3841C691.037 58.2866 695.49 59.8717 700.084 59.8717C704.677 59.8717 709.13 58.2866 712.69 55.3841C716.25 52.4816 718.699 48.4395 719.625 43.9403C723.291 44.7243 726.887 45.8052 730.378 47.1722C729.801 49.182 729.87 51.3224 730.575 53.2908C731.281 55.2593 732.587 56.9562 734.31 58.1419C736.032 59.3275 738.083 59.942 740.174 59.8983C742.265 59.8546 744.289 59.155 745.96 57.8985C747.631 56.6419 748.866 54.8919 749.488 52.8957C750.111 50.8995 750.09 48.7581 749.43 46.7741C748.769 44.7902 747.502 43.064 745.807 41.8395C744.112 40.615 742.075 39.9541 739.984 39.9502ZM660.183 55.9104C658.999 55.9104 657.842 55.5594 656.858 54.9017C655.874 54.2441 655.107 53.3094 654.654 52.2157C654.201 51.1221 654.082 49.9187 654.313 48.7577C654.544 47.5967 655.114 46.5303 655.951 45.6933C656.788 44.8562 657.854 44.2862 659.015 44.0553C660.176 43.8243 661.38 43.9429 662.473 44.3959C663.567 44.8489 664.502 45.616 665.159 46.6002C665.817 47.5845 666.168 48.7416 666.168 49.9253C666.168 51.5127 665.538 53.035 664.415 54.1574C663.293 55.2798 661.77 55.9104 660.183 55.9104ZM700.084 55.9104C696.927 55.9104 693.841 54.9744 691.217 53.2206C688.592 51.4669 686.546 48.9743 685.338 46.0579C684.13 43.1416 683.814 39.9325 684.43 36.8366C685.046 33.7406 686.566 30.8967 688.798 28.6647C691.03 26.4326 693.874 24.9125 696.97 24.2967C700.066 23.6809 703.275 23.997 706.191 25.2049C709.108 26.4129 711.6 28.4586 713.354 31.0832C715.108 33.7079 716.044 36.7936 716.044 39.9502C716.044 44.1831 714.362 48.2427 711.369 51.2358C708.376 54.2289 704.316 55.9104 700.084 55.9104ZM739.984 55.9104C738.8 55.9104 737.643 55.5594 736.659 54.9017C735.675 54.2441 734.908 53.3094 734.455 52.2157C734.002 51.1221 733.883 49.9187 734.114 48.7577C734.345 47.5967 734.915 46.5303 735.752 45.6933C736.589 44.8562 737.655 44.2862 738.816 44.0553C739.977 43.8243 741.181 43.9429 742.274 44.3959C743.368 44.8489 744.303 45.616 744.96 46.6002C745.618 47.5845 745.969 48.7416 745.969 49.9253C745.969 51.5127 745.339 53.035 744.216 54.1574C743.094 55.2798 741.571 55.9104 739.984 55.9104ZM708.064 39.9502C708.064 41.5285 707.596 43.0714 706.719 44.3837C705.842 45.6961 704.596 46.7189 703.137 47.3229C701.679 47.9269 700.075 48.0849 698.527 47.777C696.979 47.4691 695.557 46.709 694.441 45.593C693.325 44.477 692.565 43.0551 692.257 41.5071C691.949 39.9591 692.107 38.3546 692.711 36.8964C693.315 35.4382 694.338 34.1919 695.65 33.315C696.962 32.4382 698.505 31.9701 700.084 31.9701C702.2 31.9701 704.23 32.8109 705.726 34.3075C707.223 35.804 708.064 37.8338 708.064 39.9502Z" fill="#167C80"/>
</svg>
