<svg width="1000" height="500" viewBox="0 0 1000 500" fill="none" xmlns="http://www.w3.org/2000/svg">
<path d="M683.038 57.42C682.664 57.4311 682.291 57.3654 681.943 57.2271C681.594 57.0888 681.278 56.8808 681.013 56.6157C680.748 56.3507 680.54 56.0343 680.401 55.6859C680.263 55.3376 680.197 54.9646 680.208 54.59V22.59H687.208V51.59H702.668V57.44L683.038 57.42ZM723.648 57.42V22.58H730.648V57.42H723.648ZM777.968 22.59H784.358V55.51C784.356 55.847 784.262 56.1769 784.085 56.4642C783.909 56.7515 783.658 56.9851 783.358 57.14C782.594 57.5713 781.725 57.7824 780.848 57.75C779.973 57.792 779.099 57.6418 778.288 57.31C777.613 56.952 777.036 56.4335 776.608 55.8L761.208 34V57.42H754.718V25.17C754.689 24.7633 754.765 24.3558 754.94 23.9876C755.116 23.6194 755.384 23.3032 755.718 23.07C756.525 22.5831 757.458 22.3465 758.398 22.39C759.373 22.3346 760.344 22.5455 761.208 23C762.049 23.6469 762.767 24.4395 763.328 25.34L777.918 45.73L777.968 22.59ZM831.558 28.49H815.558V36.73H829.998V42.63H815.498V51.46H831.108V57.46H808.478V25.46C808.472 25.0828 808.547 24.7087 808.699 24.3635C808.851 24.0182 809.076 23.71 809.358 23.46C809.934 22.943 810.685 22.6642 811.458 22.68H831.558V28.49ZM875.778 57.42L872.848 48.79H860.108L857.208 57.42H849.938L861.748 25.18C862.415 23.3267 863.992 22.4 866.478 22.4C868.965 22.4 870.542 23.34 871.208 25.22L883.008 57.42H875.778ZM862.108 42.88H870.838L866.458 30L862.108 42.88ZM917.698 58C912.365 58 908.185 56.4067 905.158 53.22C902.132 50.0333 900.602 45.7233 900.568 40.29C900.568 34.6967 902.195 30.25 905.448 26.95C908.702 23.65 913.012 21.9833 918.378 21.95C921.527 21.8564 924.641 22.6314 927.378 24.19C929.75 25.5577 931.647 27.6159 932.818 30.09L927.208 33.09C925.522 29.6967 922.548 28 918.288 28C916.844 27.9371 915.403 28.1951 914.07 28.7553C912.737 29.3155 911.545 30.1641 910.578 31.24C908.658 33.4 907.698 36.35 907.698 40.09C907.698 43.83 908.592 46.7333 910.378 48.8C911.288 49.8487 912.424 50.6772 913.701 51.2228C914.978 51.7685 916.362 52.0171 917.748 51.95C920.263 52.0473 922.724 51.2021 924.648 49.58C925.522 48.8425 926.225 47.9239 926.708 46.8879C927.192 45.8519 927.444 44.7232 927.448 43.58H918.618V38H934.378V41.9C934.459 44.0526 934.084 46.198 933.278 48.1954C932.471 50.1928 931.251 51.9972 929.698 53.49C928.095 54.996 926.209 56.1698 924.149 56.9439C922.09 57.7179 919.897 58.0768 917.698 58ZM980.208 28.49H964.208V36.73H978.648V42.63H964.208V51.46H979.818V57.46H957.138V25.46C957.132 25.0828 957.207 24.7087 957.359 24.3635C957.511 24.0182 957.736 23.71 958.018 23.46C958.594 22.943 959.345 22.6642 960.118 22.68H980.208V28.49Z" fill="#167C80"/>
<path d="M650.208 40C648.716 40.0003 647.243 40.3346 645.897 40.9783C644.551 41.622 643.366 42.5588 642.428 43.72L642.048 43.57C638.209 42.0509 634.248 40.8567 630.208 40C630.208 34.6957 628.101 29.6086 624.351 25.8579C620.6 22.1071 615.513 20 610.208 20C604.904 20 599.817 22.1071 596.066 25.8579C592.316 29.6086 590.208 34.6957 590.208 40L589.778 40.09C585.885 40.9242 582.065 42.0746 578.358 43.53L577.978 43.68C576.412 41.7268 574.175 40.4252 571.703 40.0278C569.231 39.6304 566.699 40.1655 564.599 41.5293C562.499 42.8931 560.98 44.9884 560.338 47.4085C559.696 49.8287 559.975 52.4012 561.122 54.627C562.269 56.8527 564.203 58.573 566.546 59.454C568.89 60.335 571.478 60.3139 573.807 59.3949C576.136 58.4758 578.041 56.7243 579.152 54.4802C580.263 52.2361 580.5 49.6594 579.818 47.25C583.324 45.8748 586.936 44.7879 590.618 44C591.546 48.5105 594.002 52.5626 597.571 55.4724C601.14 58.3821 605.604 59.9711 610.208 59.9711C614.813 59.9711 619.277 58.3821 622.846 55.4724C626.415 52.5626 628.871 48.5105 629.798 44C633.474 44.786 637.079 45.8696 640.578 47.24C640 49.2548 640.069 51.4005 640.776 53.3739C641.484 55.3472 642.793 57.0484 644.52 58.237C646.247 59.4257 648.303 60.0416 650.399 59.9978C652.495 59.954 654.524 59.2527 656.199 57.993C657.875 56.7333 659.112 54.9789 659.736 52.9777C660.361 50.9766 660.34 48.8298 659.678 46.8409C659.016 44.852 657.745 43.1215 656.046 41.8939C654.347 40.6664 652.305 40.0039 650.208 40ZM570.208 56C569.022 56 567.862 55.6481 566.875 54.9888C565.888 54.3295 565.119 53.3925 564.665 52.2961C564.211 51.1997 564.092 49.9933 564.324 48.8295C564.555 47.6656 565.127 46.5965 565.966 45.7574C566.805 44.9182 567.874 44.3468 569.038 44.1153C570.202 43.8838 571.408 44.0026 572.505 44.4567C573.601 44.9109 574.538 45.6799 575.197 46.6666C575.857 47.6533 576.208 48.8133 576.208 50C576.208 51.5913 575.576 53.1174 574.451 54.2426C573.326 55.3679 571.8 56 570.208 56ZM610.208 56C607.044 56 603.951 55.0616 601.319 53.3035C598.688 51.5454 596.637 49.0466 595.426 46.1229C594.215 43.1993 593.899 39.9823 594.516 36.8786C595.133 33.7749 596.657 30.9239 598.895 28.6863C601.132 26.4487 603.983 24.9248 607.087 24.3074C610.191 23.6901 613.408 24.0069 616.331 25.2179C619.255 26.4289 621.754 28.4797 623.512 31.1109C625.27 33.7421 626.208 36.8355 626.208 40C626.208 44.2435 624.523 48.3131 621.522 51.3137C618.522 54.3143 614.452 56 610.208 56ZM650.208 56C649.022 56 647.862 55.6481 646.875 54.9888C645.888 54.3295 645.119 53.3925 644.665 52.2961C644.211 51.1997 644.092 49.9933 644.324 48.8295C644.555 47.6656 645.127 46.5965 645.966 45.7574C646.805 44.9182 647.874 44.3468 649.038 44.1153C650.202 43.8838 651.408 44.0026 652.505 44.4567C653.601 44.9109 654.538 45.6799 655.197 46.6666C655.857 47.6533 656.208 48.8133 656.208 50C656.208 51.5913 655.576 53.1174 654.451 54.2426C653.326 55.3679 651.8 56 650.208 56ZM618.208 40C618.208 41.5823 617.739 43.129 616.86 44.4446C615.981 45.7602 614.732 46.7855 613.27 47.391C611.808 47.9965 610.2 48.155 608.648 47.8463C607.096 47.5376 605.67 46.7757 604.552 45.6569C603.433 44.538 602.671 43.1126 602.362 41.5607C602.054 40.0089 602.212 38.4003 602.817 36.9385C603.423 35.4767 604.448 34.2273 605.764 33.3482C607.08 32.4692 608.626 32 610.208 32C612.33 32 614.365 32.8429 615.865 34.3431C617.366 35.8434 618.208 37.8783 618.208 40Z" fill="#167C80"/>
<path d="M500 183.467C463.267 183.467 433.467 213.267 433.467 250C433.467 286.733 463.267 316.533 500 316.533C536.733 316.533 566.533 286.733 566.533 250C566.533 213.267 536.733 183.467 500 183.467ZM496.533 289.2V261.6H478.8C476.333 261.6 474.667 258.933 475.867 256.733L500.4 208.933C501.933 205.8 506.667 206.933 506.667 210.467V238.4H523.6C526.067 238.4 527.667 241 526.6 243.2L502.867 290.667C501.267 293.867 496.533 292.733 496.533 289.2Z" fill="#FFB300"/>
<path d="M892.333 183.333H785.667C778.333 183.333 772.4 189.333 772.4 196.667L772.333 316.667L799 290H892.333C899.667 290 905.667 284 905.667 276.667V196.667C905.667 189.333 899.667 183.333 892.333 183.333ZM805.667 230H872.333C876 230 879 233 879 236.667C879 240.333 876 243.333 872.333 243.333H805.667C802 243.333 799 240.333 799 236.667C799 233 802 230 805.667 230ZM845.667 263.333H805.667C802 263.333 799 260.333 799 256.667C799 253 802 250 805.667 250H845.667C849.333 250 852.333 253 852.333 256.667C852.333 260.333 849.333 263.333 845.667 263.333ZM872.333 223.333H805.667C802 223.333 799 220.333 799 216.667C799 213 802 210 805.667 210H872.333C876 210 879 213 879 216.667C879 220.333 876 223.333 872.333 223.333Z" fill="#F44336"/>
<path d="M111.667 190V203.333C111.667 207 114.667 210 118.333 210C122 210 125 207 125 203.333V196.667H191.667V303.333H125V296.667C125 293 122 290 118.333 290C114.667 290 111.667 293 111.667 296.667V310C111.667 317.333 117.667 323.333 125 323.333H191.667C199 323.333 205 317.333 205 310V190C205 182.667 199 176.667 191.667 176.667H125C117.667 176.667 111.667 182.667 111.667 190Z" fill="#2196F3"/>
<path d="M128.333 273.333C130.267 272.533 132 271.4 133.667 270.133L133.533 270.333L140.267 272.933C141.8 273.533 143.533 272.933 144.333 271.467L149.933 261.733C150.733 260.333 150.4 258.467 149.133 257.467L143.467 252.933L143.333 253.133C143.467 252.067 143.667 251 143.667 249.933C143.667 248.867 143.467 247.8 143.333 246.733L143.467 246.933L149.133 242.4C150.4 241.4 150.733 239.533 149.933 238.133L144.333 228.4C143.533 227 141.8 226.333 140.267 226.933L133.533 229.533L133.667 229.733C132 228.6 130.267 227.467 128.333 226.667L127.2 219.467C127 217.867 125.6 216.667 123.933 216.667H112.733C111.067 216.667 109.667 217.867 109.467 219.467L108.333 226.667C106.4 227.467 104.667 228.6 103 229.867L103.133 229.667L96.3332 227.067C94.7999 226.467 93.0665 227.067 92.2665 228.533L86.6665 238.267C85.8665 239.667 86.1999 241.533 87.4665 242.533L93.1332 247.067L93.2665 246.867C93.1332 247.867 92.9332 248.933 92.9332 250C92.9332 251.067 93.1332 252.133 93.2665 253.2L93.1332 253L87.4665 257.533C86.1999 258.533 85.8665 260.4 86.6665 261.8L92.2665 271.533C93.0665 272.933 94.7999 273.6 96.3332 273L103.067 270.4L103 270.133C104.667 271.4 106.4 272.533 108.333 273.333L109.467 280.467C109.667 282.133 111.067 283.333 112.733 283.333H123.933C125.6 283.333 127 282.133 127.2 280.533L128.333 273.333ZM105 250C105 242.667 111 236.667 118.333 236.667C125.667 236.667 131.667 242.667 131.667 250C131.667 257.333 125.667 263.333 118.333 263.333C111 263.333 105 257.333 105 250Z" fill="#2196F3"/>
</svg>
