<svg width="1000" height="500" viewBox="0 0 1000 500" fill="none" xmlns="http://www.w3.org/2000/svg">
<path d="M430 160H570C581.05 160 590 168.95 590 180V250C590 299.71 549.71 340 500 340C450.29 340 410 299.71 410 250V180C410 168.95 418.95 160 430 160ZM569.02 261.68C569.94 256.24 566.27 251.08 560.82 250.16C555.38 249.25 550.22 252.92 549.3 258.37C545.28 282.25 524.5 300 500 300C475.5 300 454.72 282.26 450.69 258.38C449.78 252.94 444.62 249.27 439.17 250.18C433.73 251.1 430.05 256.26 430.97 261.71C436.61 295.17 465.7 320 500 320C534.3 320 563.39 295.16 569.02 261.68ZM490.46 186.98L471.27 242.97C470.45 245.16 470 247.53 470 250C470 261.04 478.95 270 490 270C490.1 270 490.19 270 490.29 270H510C515.5 270 520.5 267.8 524.1 264.1C527.8 260.5 530 255.5 530 250L490 249.99L494.38 237.24L509.38 193.46C509.78 192.38 510 191.21 510 190C510 184.48 505.52 180 500 180C495.53 180 491.74 182.93 490.46 186.98Z" fill="#167C80"/>
<path d="M866 176C825.152 176 792 209.152 792 250C792 290.848 825.152 324 866 324C906.848 324 940 290.848 940 250C940 209.152 906.848 176 866 176ZM866 309.2C833.366 309.2 806.8 282.634 806.8 250C806.8 217.366 833.366 190.8 866 190.8C898.634 190.8 925.2 217.366 925.2 250C925.2 282.634 898.634 309.2 866 309.2Z" fill="#9D2189"/>
<path d="M894.712 222.546L851.2 266.058L837.288 252.146C834.402 249.26 829.74 249.26 826.854 252.146C823.968 255.032 823.968 259.694 826.854 262.58L846.02 281.746C848.906 284.632 853.568 284.632 856.454 281.746L905.22 232.98C908.106 230.094 908.106 225.432 905.22 222.546C902.334 219.66 897.598 219.66 894.712 222.546Z" fill="#9D2189"/>
<path d="M153.333 230H126.667C123 230 120 233 120 236.667V263.333C120 267 123 270 126.667 270H153.333C157 270 160 267 160 263.333V236.667C160 233 157 230 153.333 230ZM146.667 256.667H133.333V243.333H146.667V256.667ZM200 236.667C200 233 197 230 193.333 230H186.667V216.667C186.667 209.333 180.667 203.333 173.333 203.333H160V196.667C160 193 157 190 153.333 190C149.667 190 146.667 193 146.667 196.667V203.333H133.333V196.667C133.333 193 130.333 190 126.667 190C123 190 120 193 120 196.667V203.333H106.667C99.3333 203.333 93.3333 209.333 93.3333 216.667V230H86.6667C83 230 80 233 80 236.667C80 240.333 83 243.333 86.6667 243.333H93.3333V256.667H86.6667C83 256.667 80 259.667 80 263.333C80 267 83 270 86.6667 270H93.3333V283.333C93.3333 290.667 99.3333 296.667 106.667 296.667H120V303.333C120 307 123 310 126.667 310C130.333 310 133.333 307 133.333 303.333V296.667H146.667V303.333C146.667 307 149.667 310 153.333 310C157 310 160 307 160 303.333V296.667H173.333C180.667 296.667 186.667 290.667 186.667 283.333V270H193.333C197 270 200 267 200 263.333C200 259.667 197 256.667 193.333 256.667H186.667V243.333H193.333C197 243.333 200 240.333 200 236.667ZM166.667 283.333H113.333C109.667 283.333 106.667 280.333 106.667 276.667V223.333C106.667 219.667 109.667 216.667 113.333 216.667H166.667C170.333 216.667 173.333 219.667 173.333 223.333V276.667C173.333 280.333 170.333 283.333 166.667 283.333Z" fill="#3F46B6"/>
</svg>
