<svg version="1" xmlns="http://www.w3.org/2000/svg" width="1068" height="1068" viewBox="0 0 801.000000 801.000000"><path d="M389.7 240.6c-.1.1-3.7.4-7.9.8-4.3.4-8.3.8-9 1.1-.7.2-2.6.6-4.3.9-5.4.9-11.9 2.6-18.5 4.8-3.6 1.2-6.7 2.3-7 2.3-3.8 1-22.8 10.7-30 15.3-14.6 9.6-30.9 24.7-40.4 37.7-1.7 2.2-3.3 4.2-3.6 4.5-2.6 2.2-13.1 21.7-16.8 31-1.6 4.1-3.3 8.4-3.7 9.5-.5 1.1-.7 2.4-.6 2.8 0 .4-.6 2.1-1.4 3.7-.9 1.6-1.5 3.2-1.5 3.5 0 .3 0 .6-.1.7 0 .2-.2 1.2-.4 2.3-.4 3-1.5 8.8-2 10.5-.6 2.4-1.7 12.1-2 17.6-.1 2.8-.5 5.5-.8 6.1-.4.6-.2 1.3.4 1.5 1.7.6-1.8 3.8-4 3.8-1 0-3.5.7-5.5 1.5s-3.7 1.5-3.8 1.4c-.2 0-1 .2-1.8.4-10.6 3.3-19.6 6-20 6-.3-.1-1.3.3-2.3.9-1 .5-2.7 1.1-3.8 1.4-1 .2-2.8.6-3.8.8-1.1.3-2.9 1-4 1.6-1.2.6-2.1.9-2.1.6 0-.3-1.6.2-3.5 1s-3.7 1.4-4 1.4c-.6-.1-26 7.7-28.5 8.7-1.8.8-1.7.7-5.9 1.7-3 .7-3.6.5-7.5-3.5-4.7-5-11.6-10.7-15.5-12.9-1.4-.8-2.8-1.7-3.1-2-.3-.3-3.6-2-7.5-3.7-7-3-14.5-5.1-19.8-5.5-1.5-.1-2.7-.5-2.7-.8 0-.3-4.8-.5-10.7-.4-12.7.2-22.9 2.6-34 8-8.5 4-20.6 12.8-22.4 16.1-.7 1.3-1.8 2.3-2.6 2.3-.7 0-1.3.4-1.3 1 0 .9-1.9 3.5-4.8 6.5-.6.8-1.2 1.7-1.2 2 0 .4-.8 1.9-1.8 3.3-1 1.5-2.5 4.3-3.2 6.2-.8 1.9-1.7 3.7-2 4-.8.7-4.8 14.6-5.5 19.4-.7 5-.8 20.7-.1 22.6.3.8.7 3.1 1 5.2.3 2 1.3 5.8 2.2 8.5 9.8 29 34.6 50.2 64.4 54.9 5.7.9 19.4.9 24 0 1.9-.4 5.1-1 7-1.3 5.1-1 5.4-1.1 14.5-5.2 3.3-1.5 6.4-2.8 6.9-2.8.5-.1 1.2-.5 1.5-1 .3-.4 2.4-2 4.6-3.5 5.1-3.5 13.5-11.6 17.2-16.5 1.5-2.1 3-4 3.3-4.3 1.2-1 8.8-16.6 9.5-19.5 1.2-4.4 1.2-4.5 1.5-4.8 2.3-2.8 3.2-33.9 1-37.2-1.6-2.6-.4-4.9 3-5.7 1.9-.5 4.2-1.2 5-1.5 1.9-.8 1.6-.7 7-2.2 2.5-.6 5.4-1.6 6.5-2.1 1.1-.4 6.1-2 11-3.5 5-1.5 10.8-3.3 13-4.2 2.2-.8 4.1-1.4 4.3-1.4.3.1 1.3-.1 7.2-1.9 2.5-.7 4.8-1.4 5.3-1.6.4-.1.9-.3 1.2-.4.3-.1.8-.3 1.3-.4.4-.2 2.7-.9 5.2-1.6 2.5-.7 4.8-1.4 5.3-1.6.4-.1.8-.2 1-.4.1-.1.9-.3 1.7-.5.8-.2 2.3-.6 3.2-1 1.1-.4 2 0 2.8 1.4.6 1.2.9 2.1.6 2.1-.3 0 0 1.5.5 3.2.6 1.8 1.2 4.1 1.4 5.1.7 2.9 4.7 14 6.1 16.8.7 1.5 1 2.9.7 3.3-.4.3-.1.6.5.6.7 0 1.2.6 1.2 1.2 0 1.9 11.9 22.8 13 22.8.5 0 1.2 1 1.6 2.2.3 1.2 1.2 2.7 1.8 3.3.6.6 2.2 2.6 3.6 4.4 7.9 10.4 24.8 25.8 37 33.7 2.5 1.6 4.7 3.1 5 3.4 1 1.1 23.6 11.8 27.5 13 2.2.7 4.6 1.7 5.3 2.3.6.5 1.2.7 1.2.4 0-.4 1.8 0 3.9.8 2.2.7 5.2 1.6 6.8 1.9 1.5.3 4.2.8 5.8 1.2 1.7.3 3.9.8 5 .9 1.1.2 2 .4 2 .5 0 1.3 37.6 1.8 47 .6 7.4-.9 18.2-3.2 21.5-4.4 1.4-.5 2.7-1 3-1 1.1 0 10.7-3 14-4.4 1.9-.8 3.8-1.6 4.2-1.7 1.5-.3 18.2-9.2 20.8-11.1 1.6-1.1 3.1-2 3.4-2 .4 0 1.2-.5 1.9-1 .7-.6 4.1-3.3 7.7-5.9 10.7-8 21-18.6 33.6-34.4.8-.9 1.4-2 1.4-2.3 0-.3 1-2 2.3-3.7 5.9-8.3 13.1-23.5 17.2-36.3 2-6.6 4-12.6 4.3-13.4.3-.8.4-2.1.3-2.8-.2-1.6.7-1.5 5.8.3 2.2.8 4.1 1.2 4.1.8 0-.3.6-.1 1.3.4.6.5 3.2 1.5 5.7 2.2 2.5.8 6.2 2 8.3 2.7 2 .8 3.7 1.2 3.7.9 0-.3 1.4.1 3 1 1.7.9 3 1.3 3 .9s.7 0 1.7.7c.9.8 1.8 1.2 2 1.1.2-.2 3.6.6 7.6 1.8 3.9 1.2 7.7 2.3 8.2 2.5.6.1 1.7.5 2.5.8 2 .7 8.8 2.8 10.3 3.1.7.2 2.1.6 3.2 1 1.1.5 3.1 1.2 4.5 1.7s3.9 1.2 5.5 1.5c4.3.8 4.6 1.3 3.2 7.4-1.7 7.3-1.4 23.7.5 32.6 5.4 24 21.4 43.9 44.3 55.2 5.9 2.9 8.4 3.9 12.4 4.7 1.2.3 2.9.7 4 .9 11.1 2.5 25.2 2.6 35.6.2 1.1-.2 2-.5 2-.6 0-.1.9-.3 2-.5 4.5-.7 19.6-7.5 21.5-9.5.3-.3 2.1-1.6 4-2.9 3-2 13.3-12.2 17.8-17.6 2.1-2.5 9-15.7 10.7-20.5 2.5-6.8 4.6-19 4.8-27 0-1.2-.8-8.7-1.7-15-.6-4.4-2-9.6-2.7-10.6-.5-.6-1-1.9-1.2-3-.3-2.5-5.1-11.7-9-17.4-4.2-6-14-15.9-20.2-20.1-4.8-3.3-17.2-10.2-17.7-9.8-.2 0-2.3-.5-4.8-1.2-6.4-1.8-7.1-1.9-10.6-2.3-1.6-.1-3.4-.5-4-.8-1.2-.6-18-.1-21.9.7-8.2 1.7-14.5 3.7-19.2 6-2.9 1.4-5.6 2.5-5.9 2.5-1.6 0-14.4 9.9-19.1 14.7-4.8 4.9-7.9 6.4-9.7 4.6-.3-.4-1.2-.8-1.9-.9-2.1-.3-22.1-6.5-24.2-7.5-1.1-.5-4.5-1.5-7.5-2.3-3-.8-6.8-1.9-8.5-2.6-1.6-.6-3.9-1.3-4.9-1.6-1-.2-3.5-.8-5.5-1.4-5.2-1.6-5.5-1.7-6.4-1.9-.4 0-2.3-.7-4.2-1.5-1.9-.8-3.5-1.3-3.5-1.1 0 .2-1.6-.3-3.5-1.1s-3.5-1.1-3.5-.8c0 .4-.6.2-1.2-.3-.7-.5-4.2-1.8-7.8-2.8-3.6-1-7-2.3-7.7-2.9-.7-.6-1.5-4.5-1.8-8.6-.3-4.1-.7-8.9-1-10.5-.2-1.7-.7-5.1-1-7.7-.3-2.6-.9-5.8-1.5-7.2-.5-1.4-.7-2.6-.5-2.6.2 0 0-1.2-.6-2.8-.6-1.5-1.2-3.5-1.4-4.5-.6-2.9-1.6-6-2.5-8.2-1.2-3-2.3-5.9-2.5-7.1-.2-.6-2.6-5.8-5.5-11.5-10.3-20.5-22.8-36.4-40.1-51-6.2-5.3-16.9-13-21.4-15.5-7.6-4.1-18.9-9.6-22.5-10.9-.3-.1-1.6-.6-3-1.2-3.4-1.4-22.5-6.9-22.5-6.4 0 0-1.8-.4-4-.9-5.8-1.4-16.3-2.2-29.3-2.4-6.2-.1-11.4-.1-11.5 0zm31 33.7c2.9.3 6.2 1.1 7.3 1.7 1.2.6 2.4 1 2.6.7.8-.7 21.7 6.2 23.2 7.7 1 1.1 7.5 3.9 8.5 3.8.4-.1.7.2.7.8 0 .5.6 1 1.3 1 .8 0 2.4.9 3.7 2 1.3 1.1 2.9 2 3.7 2 .7 0 1.3.4 1.3 1 0 .5 1.2 1.6 2.8 2.4 2.6 1.4 3.6 2.3 11.3 9.2 16.6 14.9 31 38.5 36.6 59.9 2.4 9.3 2.9 12.7 3.8 23 .3 3.3.7 7.3.9 9 .1 1.6-.1 3.6-.7 4.2-.6.9-.6 1.3.2 1.3.7 0 .9.5.6 1-.4.6-.8 3.2-1 5.8-2.2 29.2-14.2 55.7-35.2 77.6-3.2 3.3-7.6 7.4-9.6 9.1-2.1 1.6-4.4 3.5-5 4.1-6.2 5.5-36.7 21.1-36.7 18.8 0-.4-.6-.2-1.2.4-2.8 2.1-16.8 5-29.3 5.8-18.5 1.3-31.4-.1-48.4-5.2-3.1-1-6.1-1.8-6.7-2-2.4-.4-22.5-10.9-24.4-12.6-1-1-2.2-1.8-2.6-1.8-1 0-13.4-10.1-17.9-14.5-5.7-5.7-12.5-14-17.2-21-4.4-6.6-12.3-22.5-12.3-24.7 0-.8-.5-1.9-1.1-2.5-.5-.5-1.1-2.1-1.3-3.4-.2-1.3-.6-3.1-1-4-.4-.8-.8-2.9-.9-4.5-.1-1.6-.5-3.2-.9-3.5-.5-.3-1-2.7-1.4-5.5-.3-2.7-.7-6-1-7.4-.8-4.2-.3-32.5.6-32.5.1 0 .3-.9.5-2 .8-4.5 1.5-8.1 1.9-10.4.7-3.1 3.7-12.3 4.5-13.6.3-.6.6-1.5.7-2 .1-.6 2.3-5.3 4.8-10.5 4.8-9.5 12.2-20.6 18.2-27 1.8-1.9 4.1-4.4 5.1-5.6 5.6-6.4 29.1-23.3 31.5-22.7.4.2.8-.1.8-.6s1-1.2 2.3-1.6l2.7-.9c.3-.1 1.5-.7 2.8-1.4 1.2-.7 2.2-1 2.2-.6 0 .3.7 0 1.6-.7.9-.7 2.1-1.4 2.8-1.5 1.7-.4 12.9-3.5 14.6-4.1 2.1-.8 3.8-1.1 8.8-1.7 2.4-.2 4.5-.6 4.8-.9.6-.6 29.8-.1 36.1.6zM92.5 432.5c3.6.8 5.5 1.5 11.8 4.6 5.6 2.8 17.5 14.1 18.3 17.6.4 1.3.9 2.3 1.3 2.3s1.8 3 3.1 6.7c3.5 9.7 3.5 24.2 0 32.8-6 15-16.4 25-31.2 29.9-25.4 8.2-51.6-5.4-61.3-31.9-2.2-5.8-2.4-21.3-.4-27.2.7-2.1 1.1-3.8.9-3.8-.7 0 6.4-12.1 8.1-13.7.9-1 2.3-2.5 3.1-3.5 1.8-2.5 9.3-8.3 10.7-8.3.6 0 1.1-.4 1.1-.9 0-1.1 12.9-5.3 14.1-4.6.5.4.9.2.9-.3 0-1 14.7-.8 19.5.3zm638.2-.1c14.9 2.6 32.3 19.2 35.8 34.1.4 1.6.9 3.9 1.2 5 .8 3.3.9 17.7.1 18.2-.5.2-.8 1.2-.8 2.1 0 .9-.9 3.6-2 6-1 2.3-2 4.6-2.1 5-.4 1.8-6.1 9.1-10 12.8-15.1 14-36.5 17-55.5 7.8-5.4-2.6-14.7-10.9-17.9-15.9-2.4-3.7-5.2-8.7-5.4-9.7-.4-1.8-.9-3.5-1.9-6.5-.5-1.8-1-6.9-1-11.4 0-12.6 4.7-24.5 13.1-33.1 6.2-6.4 13.6-11.5 16-11 .4.1.7-.2.7-.7 0-.8 1.6-1.3 9-2.7 1.3-.3 2.6-.7 2.8-.9.5-.5 13.8.2 17.9.9z"/><path d="M393 336c0 .3-1 .5-2.2.6-4.9.2-8.8.9-8.8 1.4 0 .3-.9.6-2 .7-5.9.5-20.9 10.2-28.3 18.4-7 7.7-14.2 22-15 29.4-.2 1.7-.6 3.5-.9 4-1.5 2.8.4 26.9 2.3 28.1.5.3.9 1.4.9 2.4s1.7 5.1 3.7 9.2c4.4 8.7 17.1 21.9 24.8 25.8 2.8 1.4 5.8 3.1 6.8 3.9.9.8 1.7 1.1 1.7.8 0-.3 1.7 0 3.8.7 2.1.8 5.6 1.7 7.8 2.1 5.1.9 19.6 1.3 20.9.6.5-.2 2.3-.6 4-.6 1.6-.1 3.7-.4 4.5-.8 3-1.1 8.5-2.7 9.4-2.6.5 0 1.2-.4 1.6-1.1.4-.6 1.3-1.2 2.1-1.4 5.8-.9 22.6-16.8 27.3-25.7 6.2-11.8 8-19.3 7.9-32.9 0-21.8-10.6-40.9-29.6-53.4-6.2-4.1-17.8-8.5-24.2-9.2-6.5-.7-18.5-1-18.5-.4z"/></svg>